<svg xmlns="http://www.w3.org/2000/svg" xmlns:xlink="http://www.w3.org/1999/xlink" width="375" zoomAndPan="magnify" viewBox="0 0 281.25 123.000003" height="164" preserveAspectRatio="xMidYMid meet" version="1.0"><defs><clipPath id="4bbfdefdf4"><path d="M 0.761719 42 L 84.121094 42 L 84.121094 92.75 L 0.761719 92.75 Z M 0.761719 42 " clip-rule="nonzero"/></clipPath><clipPath id="05c32e9aed"><path d="M 196.359375 38 L 279.742188 38 L 279.742188 88.910156 L 196.359375 88.910156 Z M 196.359375 38 " clip-rule="nonzero"/></clipPath><clipPath id="8de1f9b70a"><path d="M 45.332031 30 L 129.75 30 L 129.75 81 L 45.332031 81 Z M 45.332031 30 " clip-rule="nonzero"/></clipPath><clipPath id="f8b79d279d"><path d="M 159.386719 32 L 242.074219 32 L 242.074219 82 L 159.386719 82 Z M 159.386719 32 " clip-rule="nonzero"/></clipPath><clipPath id="ff9f44dce6"><path d="M 125.027344 32 L 209.347656 32 L 209.347656 83 L 125.027344 83 Z M 125.027344 32 " clip-rule="nonzero"/></clipPath><clipPath id="d761b5c612"><path d="M 97.507812 47 L 181.925781 47 L 181.925781 98 L 97.507812 98 Z M 97.507812 47 " clip-rule="nonzero"/></clipPath><clipPath id="b4ba81439c"><path d="M 0.761719 66.960938 L 279.742188 66.960938 L 279.742188 122.007812 L 0.761719 122.007812 Z M 0.761719 66.960938 " clip-rule="nonzero"/></clipPath></defs><g clip-path="url(#4bbfdefdf4)"><path fill="#1694dd" d="M 79.457031 69.769531 C 78.1875 68.664062 76.769531 67.800781 75.199219 67.179688 C 73.632812 66.5625 72.003906 66.226562 70.316406 66.167969 C 70.410156 65.65625 70.476562 65.136719 70.515625 64.617188 C 70.558594 64.097656 70.570312 63.578125 70.558594 63.054688 C 70.546875 62.535156 70.507812 62.015625 70.441406 61.496094 C 70.375 60.980469 70.285156 60.464844 70.164062 59.957031 C 70.046875 59.449219 69.902344 58.949219 69.734375 58.457031 C 69.566406 57.960938 69.371094 57.476562 69.152344 57.003906 C 68.933594 56.527344 68.691406 56.066406 68.425781 55.617188 C 68.160156 55.167969 67.871094 54.734375 67.5625 54.3125 C 67.25 53.890625 66.921875 53.488281 66.570312 53.101562 C 66.214844 52.714844 65.847656 52.34375 65.457031 51.996094 C 65.066406 51.644531 64.660156 51.316406 64.238281 51.007812 C 63.816406 50.699219 63.378906 50.414062 62.925781 50.148438 C 62.472656 49.882812 62.011719 49.644531 61.535156 49.425781 C 61.054688 49.207031 60.570312 49.015625 60.074219 48.847656 C 59.578125 48.679688 59.074219 48.535156 58.5625 48.417969 C 58.050781 48.300781 57.535156 48.207031 57.015625 48.144531 C 55.824219 47.992188 54.628906 47.980469 53.433594 48.109375 C 52.238281 48.234375 51.074219 48.496094 49.9375 48.890625 C 48.804688 49.289062 47.730469 49.808594 46.71875 50.453125 C 45.707031 51.097656 44.78125 51.847656 43.945312 52.707031 C 43.550781 51.800781 43.078125 50.9375 42.53125 50.113281 C 41.988281 49.289062 41.375 48.515625 40.699219 47.792969 C 40.019531 47.074219 39.285156 46.414062 38.492188 45.816406 C 37.703125 45.222656 36.867188 44.695312 35.984375 44.242188 C 35.101562 43.789062 34.191406 43.414062 33.242188 43.113281 C 32.296875 42.816406 31.332031 42.597656 30.347656 42.464844 C 29.367188 42.328125 28.378906 42.277344 27.386719 42.3125 C 26.394531 42.34375 25.414062 42.460938 24.441406 42.660156 C 23.46875 42.863281 22.519531 43.140625 21.597656 43.503906 C 20.671875 43.863281 19.785156 44.300781 18.9375 44.8125 C 18.089844 45.324219 17.289062 45.90625 16.542969 46.550781 C 15.792969 47.199219 15.101562 47.90625 14.476562 48.671875 C 13.847656 49.433594 13.289062 50.246094 12.800781 51.105469 C 12.3125 51.964844 11.902344 52.859375 11.566406 53.789062 C 11.230469 54.71875 10.980469 55.671875 10.808594 56.644531 C 10.636719 57.617188 10.550781 58.59375 10.546875 59.582031 C 10.535156 59.769531 10.535156 59.953125 10.546875 60.140625 C 9.726562 60.359375 8.933594 60.644531 8.160156 60.992188 C 7.386719 61.339844 6.648438 61.746094 5.941406 62.210938 C 5.234375 62.679688 4.574219 63.199219 3.949219 63.769531 C 3.328125 64.34375 2.757812 64.964844 2.238281 65.628906 C 1.71875 66.296875 1.253906 66.996094 0.847656 67.738281 C 0.441406 68.476562 0.0976562 69.246094 -0.183594 70.039062 C -0.464844 70.835938 -0.679688 71.648438 -0.828125 72.480469 C -0.976562 73.308594 -1.058594 74.144531 -1.070312 74.988281 L -1.070312 75.179688 C -1.054688 75.753906 -1.011719 76.320312 -0.9375 76.886719 C -0.867188 77.457031 -0.765625 78.019531 -0.640625 78.574219 C -0.511719 79.132812 -0.359375 79.683594 -0.179688 80.226562 C 0 80.765625 0.207031 81.300781 0.441406 81.824219 C 0.671875 82.34375 0.929688 82.855469 1.210938 83.351562 C 1.496094 83.851562 1.800781 84.332031 2.132812 84.800781 C 2.460938 85.269531 2.8125 85.722656 3.1875 86.15625 C 3.558594 86.589844 3.953125 87.003906 4.367188 87.398438 C 4.78125 87.796875 5.214844 88.171875 5.664062 88.523438 C 6.117188 88.878906 6.582031 89.210938 7.066406 89.519531 C 7.550781 89.828125 8.046875 90.113281 8.558594 90.375 C 9.070312 90.636719 9.59375 90.871094 10.125 91.082031 C 10.660156 91.292969 11.203125 91.476562 11.757812 91.636719 C 12.308594 91.792969 12.867188 91.921875 13.433594 92.027344 C 13.996094 92.132812 14.566406 92.207031 15.136719 92.257812 C 15.710938 92.304688 16.285156 92.328125 16.859375 92.320312 L 72.503906 92.320312 C 73.265625 92.320312 74.023438 92.246094 74.769531 92.097656 C 75.519531 91.949219 76.246094 91.730469 76.949219 91.441406 C 77.65625 91.152344 78.324219 90.796875 78.957031 90.375 C 79.59375 89.953125 80.179688 89.472656 80.71875 88.9375 C 81.257812 88.398438 81.738281 87.816406 82.164062 87.183594 C 82.585938 86.554688 82.945312 85.890625 83.238281 85.1875 C 83.53125 84.488281 83.75 83.765625 83.898438 83.019531 C 84.046875 82.277344 84.121094 81.523438 84.121094 80.765625 C 84.144531 79.738281 84.058594 78.71875 83.863281 77.707031 C 83.671875 76.699219 83.371094 75.71875 82.96875 74.773438 C 82.566406 73.824219 82.070312 72.929688 81.480469 72.085938 C 80.886719 71.242188 80.210938 70.472656 79.457031 69.769531 Z M 79.457031 69.769531 " fill-opacity="1" fill-rule="nonzero"/></g><g clip-path="url(#05c32e9aed)"><path fill="#1694dd" d="M 200.886719 65.929688 C 202.144531 64.824219 203.550781 63.960938 205.105469 63.34375 C 206.660156 62.726562 208.269531 62.386719 209.941406 62.332031 C 209.851562 61.816406 209.785156 61.300781 209.742188 60.78125 C 209.703125 60.261719 209.691406 59.738281 209.703125 59.21875 C 209.714844 58.699219 209.753906 58.179688 209.820312 57.660156 C 209.882812 57.144531 209.976562 56.628906 210.09375 56.121094 C 210.210938 55.613281 210.351562 55.113281 210.519531 54.621094 C 210.6875 54.125 210.878906 53.640625 211.097656 53.167969 C 211.3125 52.695312 211.554688 52.230469 211.816406 51.78125 C 212.082031 51.332031 212.367188 50.898438 212.671875 50.476562 C 212.980469 50.054688 213.308594 49.652344 213.65625 49.265625 C 214.003906 48.878906 214.371094 48.511719 214.757812 48.160156 C 215.144531 47.8125 215.546875 47.480469 215.964844 47.171875 C 216.382812 46.863281 216.816406 46.578125 217.265625 46.3125 C 217.714844 46.050781 218.175781 45.808594 218.644531 45.589844 C 219.117188 45.375 219.601562 45.179688 220.09375 45.011719 C 220.585938 44.84375 221.085938 44.699219 221.589844 44.582031 C 222.097656 44.464844 222.609375 44.375 223.125 44.308594 C 224.304688 44.160156 225.488281 44.148438 226.671875 44.273438 C 227.855469 44.398438 229.011719 44.660156 230.136719 45.058594 C 231.257812 45.453125 232.324219 45.972656 233.324219 46.617188 C 234.328125 47.261719 235.246094 48.015625 236.074219 48.871094 C 236.46875 47.96875 236.933594 47.101562 237.472656 46.277344 C 238.015625 45.453125 238.621094 44.679688 239.292969 43.960938 C 239.964844 43.238281 240.691406 42.582031 241.476562 41.984375 C 242.261719 41.390625 243.089844 40.863281 243.960938 40.410156 C 244.835938 39.957031 245.742188 39.578125 246.679688 39.28125 C 247.617188 38.984375 248.570312 38.765625 249.546875 38.632812 C 250.519531 38.496094 251.5 38.445312 252.484375 38.480469 C 253.464844 38.511719 254.4375 38.628906 255.402344 38.828125 C 256.363281 39.027344 257.304688 39.308594 258.21875 39.671875 C 259.136719 40.03125 260.011719 40.46875 260.855469 40.980469 C 261.695312 41.492188 262.488281 42.070312 263.230469 42.71875 C 263.972656 43.367188 264.652344 44.070312 265.277344 44.835938 C 265.898438 45.601562 266.453125 46.414062 266.933594 47.273438 C 267.417969 48.132812 267.828125 49.027344 268.160156 49.953125 C 268.492188 50.882812 268.742188 51.835938 268.910156 52.808594 C 269.082031 53.78125 269.167969 54.757812 269.167969 55.746094 C 269.179688 55.933594 269.179688 56.117188 269.167969 56.304688 C 269.980469 56.523438 270.769531 56.808594 271.535156 57.152344 C 272.300781 57.5 273.03125 57.910156 273.730469 58.375 C 274.433594 58.839844 275.089844 59.359375 275.707031 59.933594 C 276.320312 60.507812 276.886719 61.125 277.402344 61.792969 C 277.917969 62.457031 278.378906 63.160156 278.78125 63.898438 C 279.183594 64.640625 279.523438 65.40625 279.800781 66.203125 C 280.082031 66.996094 280.292969 67.808594 280.441406 68.640625 C 280.589844 69.46875 280.667969 70.304688 280.679688 71.148438 L 280.679688 71.339844 C 280.664062 71.914062 280.621094 72.480469 280.550781 73.046875 C 280.480469 73.617188 280.378906 74.175781 280.253906 74.734375 C 280.128906 75.292969 279.976562 75.84375 279.796875 76.382812 C 279.617188 76.925781 279.414062 77.460938 279.183594 77.980469 C 278.953125 78.503906 278.699219 79.015625 278.417969 79.511719 C 278.136719 80.007812 277.835938 80.492188 277.507812 80.960938 C 277.183594 81.429688 276.832031 81.878906 276.464844 82.3125 C 276.09375 82.746094 275.703125 83.160156 275.292969 83.558594 C 274.882812 83.953125 274.453125 84.328125 274.007812 84.683594 C 273.558594 85.035156 273.097656 85.367188 272.617188 85.675781 C 272.140625 85.988281 271.644531 86.269531 271.140625 86.53125 C 270.632812 86.792969 270.113281 87.027344 269.585938 87.238281 C 269.054688 87.449219 268.519531 87.632812 267.972656 87.792969 C 267.425781 87.949219 266.871094 88.082031 266.308594 88.183594 C 265.75 88.289062 265.1875 88.363281 264.621094 88.414062 C 264.050781 88.460938 263.484375 88.484375 262.914062 88.476562 L 207.773438 88.476562 C 207.019531 88.476562 206.269531 88.402344 205.527344 88.253906 C 204.789062 88.109375 204.066406 87.886719 203.371094 87.597656 C 202.671875 87.308594 202.007812 86.953125 201.378906 86.53125 C 200.75 86.109375 200.167969 85.628906 199.636719 85.09375 C 199.101562 84.558594 198.625 83.972656 198.203125 83.34375 C 197.785156 82.710938 197.429688 82.046875 197.140625 81.347656 C 196.851562 80.644531 196.632812 79.921875 196.484375 79.179688 C 196.335938 78.433594 196.261719 77.683594 196.261719 76.925781 C 196.242188 75.898438 196.324219 74.878906 196.519531 73.867188 C 196.710938 72.859375 197.003906 71.878906 197.402344 70.933594 C 197.800781 69.984375 198.296875 69.089844 198.882812 68.246094 C 199.46875 67.40625 200.136719 66.632812 200.886719 65.929688 Z M 200.886719 65.929688 " fill-opacity="1" fill-rule="nonzero"/></g><g clip-path="url(#8de1f9b70a)"><path fill="#1694dd" d="M 125.128906 58.09375 C 123.871094 56.984375 122.464844 56.121094 120.910156 55.503906 C 119.355469 54.886719 117.742188 54.546875 116.070312 54.492188 C 116.164062 53.980469 116.230469 53.460938 116.269531 52.941406 C 116.3125 52.421875 116.324219 51.902344 116.3125 51.378906 C 116.300781 50.859375 116.261719 50.339844 116.195312 49.820312 C 116.128906 49.304688 116.039062 48.792969 115.921875 48.28125 C 115.804688 47.773438 115.664062 47.273438 115.496094 46.78125 C 115.328125 46.285156 115.136719 45.800781 114.917969 45.328125 C 114.703125 44.855469 114.460938 44.390625 114.199219 43.941406 C 113.933594 43.492188 113.648438 43.058594 113.339844 42.636719 C 113.035156 42.21875 112.707031 41.8125 112.355469 41.425781 C 112.007812 41.039062 111.640625 40.671875 111.257812 40.320312 C 110.871094 39.972656 110.46875 39.644531 110.050781 39.335938 C 109.628906 39.027344 109.195312 38.738281 108.75 38.472656 C 108.300781 38.210938 107.839844 37.96875 107.367188 37.75 C 106.894531 37.535156 106.414062 37.339844 105.921875 37.171875 C 105.429688 37.003906 104.929688 36.863281 104.425781 36.746094 C 103.917969 36.625 103.40625 36.535156 102.890625 36.46875 C 101.710938 36.320312 100.527344 36.308594 99.339844 36.433594 C 98.15625 36.5625 97.003906 36.820312 95.878906 37.21875 C 94.753906 37.613281 93.691406 38.132812 92.6875 38.777344 C 91.683594 39.421875 90.769531 40.175781 89.941406 41.035156 C 89.546875 40.128906 89.082031 39.261719 88.539062 38.4375 C 88 37.613281 87.394531 36.839844 86.722656 36.121094 C 86.050781 35.398438 85.320312 34.742188 84.539062 34.144531 C 83.753906 33.550781 82.925781 33.023438 82.050781 32.570312 C 81.179688 32.117188 80.273438 31.742188 79.335938 31.441406 C 78.398438 31.144531 77.441406 30.925781 76.46875 30.792969 C 75.492188 30.65625 74.515625 30.605469 73.53125 30.640625 C 72.546875 30.671875 71.574219 30.789062 70.613281 30.988281 C 69.648438 31.1875 68.710938 31.46875 67.792969 31.832031 C 66.878906 32.191406 66 32.628906 65.160156 33.140625 C 64.320312 33.652344 63.527344 34.230469 62.785156 34.878906 C 62.042969 35.527344 61.359375 36.234375 60.738281 36.996094 C 60.117188 37.761719 59.5625 38.574219 59.078125 39.433594 C 58.59375 40.292969 58.1875 41.1875 57.855469 42.117188 C 57.523438 43.046875 57.273438 43.996094 57.105469 44.96875 C 56.933594 45.941406 56.847656 46.921875 56.84375 47.90625 C 56.835938 48.09375 56.835938 48.277344 56.84375 48.464844 C 56.035156 48.683594 55.246094 48.96875 54.480469 49.316406 C 53.714844 49.664062 52.980469 50.070312 52.28125 50.535156 C 51.582031 51.003906 50.925781 51.523438 50.308594 52.09375 C 49.691406 52.667969 49.128906 53.289062 48.613281 53.953125 C 48.097656 54.617188 47.636719 55.320312 47.234375 56.0625 C 46.832031 56.800781 46.492188 57.570312 46.210938 58.363281 C 45.933594 59.160156 45.71875 59.972656 45.574219 60.800781 C 45.425781 61.632812 45.34375 62.46875 45.332031 63.308594 L 45.332031 63.503906 C 45.347656 64.074219 45.394531 64.644531 45.464844 65.210938 C 45.535156 65.777344 45.632812 66.339844 45.757812 66.894531 C 45.886719 67.453125 46.039062 68.003906 46.214844 68.546875 C 46.394531 69.089844 46.601562 69.621094 46.832031 70.144531 C 47.0625 70.664062 47.316406 71.175781 47.597656 71.671875 C 47.875 72.171875 48.179688 72.652344 48.503906 73.121094 C 48.832031 73.589844 49.179688 74.039062 49.550781 74.472656 C 49.921875 74.910156 50.3125 75.324219 50.722656 75.71875 C 51.132812 76.117188 51.5625 76.492188 52.007812 76.84375 C 52.453125 77.199219 52.917969 77.53125 53.398438 77.839844 C 53.875 78.148438 54.367188 78.433594 54.875 78.695312 C 55.382812 78.953125 55.898438 79.191406 56.429688 79.402344 C 56.957031 79.613281 57.496094 79.796875 58.042969 79.953125 C 58.589844 80.113281 59.144531 80.242188 59.703125 80.347656 C 60.265625 80.449219 60.828125 80.527344 61.394531 80.574219 C 61.960938 80.625 62.53125 80.644531 63.097656 80.640625 L 118.238281 80.640625 C 118.996094 80.640625 119.746094 80.566406 120.484375 80.417969 C 121.226562 80.269531 121.945312 80.050781 122.644531 79.761719 C 123.34375 79.46875 124.007812 79.113281 124.636719 78.691406 C 125.261719 78.269531 125.84375 77.792969 126.378906 77.253906 C 126.914062 76.71875 127.390625 76.136719 127.8125 75.503906 C 128.230469 74.875 128.585938 74.207031 128.875 73.507812 C 129.164062 72.808594 129.382812 72.085938 129.53125 71.339844 C 129.675781 70.597656 129.75 69.84375 129.75 69.085938 C 129.773438 68.058594 129.6875 67.039062 129.496094 66.03125 C 129.304688 65.019531 129.007812 64.042969 128.609375 63.09375 C 128.210938 62.144531 127.71875 61.25 127.132812 60.410156 C 126.546875 59.566406 125.878906 58.792969 125.128906 58.09375 Z M 125.128906 58.09375 " fill-opacity="1" fill-rule="nonzero"/></g><g clip-path="url(#f8b79d279d)"><path fill="#1694dd" d="M 163.925781 59.675781 C 165.15625 58.585938 166.539062 57.738281 168.0625 57.128906 C 169.589844 56.519531 171.171875 56.1875 172.8125 56.128906 C 172.722656 55.625 172.65625 55.117188 172.617188 54.605469 C 172.578125 54.089844 172.566406 53.578125 172.578125 53.066406 C 172.589844 52.550781 172.628906 52.039062 172.691406 51.53125 C 172.757812 51.019531 172.847656 50.515625 172.960938 50.015625 C 173.074219 49.515625 173.214844 49.019531 173.378906 48.535156 C 173.542969 48.046875 173.734375 47.570312 173.945312 47.105469 C 174.160156 46.636719 174.394531 46.183594 174.652344 45.738281 C 174.910156 45.296875 175.191406 44.867188 175.496094 44.453125 C 175.796875 44.039062 176.117188 43.644531 176.460938 43.261719 C 176.800781 42.878906 177.164062 42.515625 177.542969 42.171875 C 177.917969 41.828125 178.316406 41.503906 178.726562 41.199219 C 179.136719 40.894531 179.5625 40.613281 180.003906 40.355469 C 180.441406 40.09375 180.894531 39.855469 181.359375 39.640625 C 181.820312 39.425781 182.296875 39.238281 182.777344 39.070312 C 183.261719 38.90625 183.75 38.765625 184.246094 38.648438 C 184.746094 38.535156 185.246094 38.445312 185.753906 38.378906 C 186.914062 38.230469 188.074219 38.21875 189.238281 38.34375 C 190.398438 38.46875 191.53125 38.726562 192.636719 39.117188 C 193.738281 39.507812 194.785156 40.019531 195.769531 40.652344 C 196.753906 41.289062 197.652344 42.027344 198.464844 42.875 C 198.851562 41.984375 199.308594 41.132812 199.839844 40.320312 C 200.371094 39.507812 200.964844 38.746094 201.625 38.035156 C 202.285156 37.324219 203 36.675781 203.769531 36.089844 C 204.539062 35.503906 205.351562 34.984375 206.210938 34.539062 C 207.066406 34.089844 207.957031 33.71875 208.875 33.425781 C 209.796875 33.132812 210.734375 32.917969 211.691406 32.785156 C 212.648438 32.652344 213.609375 32.605469 214.574219 32.636719 C 215.539062 32.667969 216.492188 32.785156 217.4375 32.980469 C 218.382812 33.179688 219.304688 33.453125 220.203125 33.808594 C 221.105469 34.164062 221.964844 34.59375 222.792969 35.101562 C 223.617188 35.605469 224.394531 36.175781 225.121094 36.8125 C 225.851562 37.449219 226.519531 38.144531 227.132812 38.898438 C 227.742188 39.652344 228.285156 40.453125 228.761719 41.296875 C 229.234375 42.144531 229.636719 43.023438 229.960938 43.941406 C 230.289062 44.855469 230.535156 45.792969 230.699219 46.75 C 230.867188 47.707031 230.953125 48.671875 230.953125 49.644531 C 230.964844 49.828125 230.964844 50.011719 230.953125 50.195312 C 231.75 50.410156 232.523438 50.6875 233.277344 51.03125 C 234.027344 51.375 234.746094 51.773438 235.433594 52.234375 C 236.121094 52.691406 236.765625 53.207031 237.371094 53.769531 C 237.972656 54.335938 238.53125 54.945312 239.035156 55.601562 C 239.542969 56.253906 239.992188 56.945312 240.386719 57.675781 C 240.785156 58.40625 241.117188 59.160156 241.390625 59.945312 C 241.664062 60.726562 241.875 61.527344 242.019531 62.34375 C 242.164062 63.164062 242.242188 63.984375 242.253906 64.816406 L 242.253906 65.007812 C 242.238281 65.570312 242.195312 66.128906 242.125 66.6875 C 242.054688 67.246094 241.960938 67.800781 241.835938 68.347656 C 241.710938 68.898438 241.5625 69.4375 241.386719 69.972656 C 241.210938 70.507812 241.011719 71.03125 240.785156 71.546875 C 240.558594 72.0625 240.308594 72.5625 240.035156 73.054688 C 239.757812 73.542969 239.460938 74.019531 239.140625 74.480469 C 238.820312 74.941406 238.476562 75.386719 238.113281 75.8125 C 237.75 76.242188 237.367188 76.648438 236.964844 77.039062 C 236.5625 77.429688 236.140625 77.796875 235.703125 78.148438 C 235.261719 78.496094 234.808594 78.824219 234.339844 79.125 C 233.867188 79.429688 233.386719 79.710938 232.886719 79.96875 C 232.390625 80.226562 231.882812 80.457031 231.363281 80.664062 C 230.84375 80.871094 230.316406 81.054688 229.777344 81.210938 C 229.242188 81.363281 228.695312 81.492188 228.148438 81.597656 C 227.597656 81.699219 227.042969 81.773438 226.488281 81.820312 C 225.929688 81.871094 225.375 81.890625 224.8125 81.886719 L 170.6875 81.886719 C 169.945312 81.886719 169.207031 81.8125 168.480469 81.667969 C 167.753906 81.519531 167.046875 81.304688 166.359375 81.019531 C 165.675781 80.734375 165.023438 80.382812 164.40625 79.96875 C 163.789062 79.550781 163.21875 79.082031 162.695312 78.550781 C 162.171875 78.023438 161.703125 77.449219 161.289062 76.828125 C 160.878906 76.207031 160.53125 75.550781 160.246094 74.859375 C 159.960938 74.171875 159.746094 73.457031 159.601562 72.726562 C 159.457031 71.992188 159.386719 71.253906 159.386719 70.507812 C 159.363281 69.492188 159.445312 68.488281 159.636719 67.496094 C 159.824219 66.5 160.113281 65.535156 160.503906 64.601562 C 160.898438 63.667969 161.378906 62.789062 161.957031 61.957031 C 162.53125 61.128906 163.1875 60.367188 163.925781 59.675781 Z M 163.925781 59.675781 " fill-opacity="1" fill-rule="nonzero"/></g><g clip-path="url(#ff9f44dce6)"><path fill="#1694dd" d="M 129.554688 60.109375 C 130.8125 59 132.21875 58.140625 133.773438 57.519531 C 135.328125 56.902344 136.9375 56.566406 138.609375 56.507812 C 138.519531 55.996094 138.453125 55.476562 138.410156 54.957031 C 138.371094 54.4375 138.359375 53.917969 138.371094 53.394531 C 138.382812 52.875 138.421875 52.355469 138.488281 51.835938 C 138.550781 51.320312 138.644531 50.808594 138.761719 50.300781 C 138.878906 49.792969 139.019531 49.289062 139.1875 48.796875 C 139.355469 48.304688 139.546875 47.820312 139.765625 47.34375 C 139.980469 46.871094 140.222656 46.410156 140.484375 45.960938 C 140.746094 45.511719 141.035156 45.074219 141.339844 44.65625 C 141.648438 44.234375 141.976562 43.832031 142.324219 43.441406 C 142.671875 43.054688 143.039062 42.6875 143.425781 42.339844 C 143.8125 41.988281 144.214844 41.660156 144.632812 41.351562 C 145.050781 41.042969 145.484375 40.753906 145.933594 40.492188 C 146.382812 40.226562 146.84375 39.984375 147.3125 39.769531 C 147.785156 39.550781 148.269531 39.359375 148.761719 39.191406 C 149.253906 39.019531 149.75 38.878906 150.257812 38.761719 C 150.765625 38.644531 151.277344 38.550781 151.792969 38.488281 C 152.972656 38.335938 154.15625 38.324219 155.339844 38.449219 C 156.523438 38.578125 157.679688 38.839844 158.804688 39.234375 C 159.925781 39.628906 160.992188 40.152344 161.992188 40.796875 C 162.996094 41.441406 163.914062 42.191406 164.742188 43.050781 C 165.136719 42.144531 165.601562 41.28125 166.140625 40.457031 C 166.683594 39.628906 167.289062 38.859375 167.960938 38.136719 C 168.632812 37.417969 169.359375 36.757812 170.144531 36.160156 C 170.929688 35.566406 171.757812 35.042969 172.628906 34.585938 C 173.503906 34.132812 174.410156 33.757812 175.347656 33.457031 C 176.285156 33.160156 177.238281 32.941406 178.214844 32.808594 C 179.1875 32.675781 180.167969 32.625 181.152344 32.65625 C 182.132812 32.691406 183.105469 32.804688 184.070312 33.007812 C 185.03125 33.207031 185.972656 33.488281 186.886719 33.847656 C 187.804688 34.210938 188.679688 34.644531 189.523438 35.15625 C 190.363281 35.667969 191.15625 36.25 191.898438 36.894531 C 192.640625 37.542969 193.320312 38.25 193.945312 39.015625 C 194.566406 39.777344 195.121094 40.589844 195.601562 41.449219 C 196.085938 42.308594 196.496094 43.203125 196.828125 44.132812 C 197.15625 45.0625 197.410156 46.011719 197.578125 46.984375 C 197.75 47.957031 197.835938 48.9375 197.835938 49.921875 C 197.847656 50.109375 197.847656 50.296875 197.835938 50.480469 C 198.648438 50.699219 199.4375 50.984375 200.203125 51.332031 C 200.96875 51.679688 201.699219 52.085938 202.398438 52.550781 C 203.097656 53.019531 203.757812 53.539062 204.375 54.113281 C 204.988281 54.683594 205.554688 55.304688 206.070312 55.96875 C 206.585938 56.632812 207.046875 57.335938 207.449219 58.078125 C 207.851562 58.816406 208.191406 59.585938 208.46875 60.378906 C 208.75 61.175781 208.960938 61.988281 209.109375 62.816406 C 209.257812 63.648438 209.335938 64.484375 209.347656 65.328125 L 209.347656 65.519531 C 209.332031 66.089844 209.289062 66.660156 209.21875 67.226562 C 209.148438 67.792969 209.046875 68.355469 208.921875 68.914062 C 208.796875 69.46875 208.644531 70.019531 208.464844 70.5625 C 208.285156 71.105469 208.082031 71.636719 207.851562 72.160156 C 207.621094 72.679688 207.367188 73.191406 207.085938 73.6875 C 206.804688 74.1875 206.503906 74.667969 206.175781 75.136719 C 205.851562 75.605469 205.5 76.054688 205.132812 76.488281 C 204.761719 76.925781 204.371094 77.339844 203.960938 77.734375 C 203.550781 78.132812 203.121094 78.507812 202.675781 78.859375 C 202.226562 79.214844 201.765625 79.546875 201.285156 79.855469 C 200.808594 80.164062 200.3125 80.449219 199.808594 80.710938 C 199.300781 80.96875 198.78125 81.207031 198.253906 81.417969 C 197.722656 81.625 197.1875 81.8125 196.640625 81.96875 C 196.09375 82.125 195.539062 82.257812 194.976562 82.363281 C 194.417969 82.464844 193.855469 82.542969 193.289062 82.589844 C 192.71875 82.640625 192.152344 82.660156 191.582031 82.65625 L 136.441406 82.65625 C 135.6875 82.65625 134.9375 82.582031 134.195312 82.433594 C 133.457031 82.285156 132.734375 82.066406 132.039062 81.777344 C 131.339844 81.484375 130.675781 81.128906 130.046875 80.707031 C 129.417969 80.285156 128.835938 79.808594 128.300781 79.269531 C 127.769531 78.734375 127.292969 78.152344 126.871094 77.519531 C 126.449219 76.890625 126.097656 76.222656 125.808594 75.523438 C 125.519531 74.824219 125.300781 74.101562 125.152344 73.355469 C 125.003906 72.613281 124.929688 71.859375 124.929688 71.101562 C 124.910156 70.074219 124.992188 69.054688 125.1875 68.046875 C 125.378906 67.035156 125.671875 66.058594 126.070312 65.109375 C 126.46875 64.164062 126.964844 63.265625 127.550781 62.425781 C 128.136719 61.582031 128.804688 60.808594 129.554688 60.109375 Z M 129.554688 60.109375 " fill-opacity="1" fill-rule="nonzero"/></g><g clip-path="url(#d761b5c612)"><path fill="#1694dd" d="M 177.300781 75.074219 C 176.042969 73.964844 174.640625 73.101562 173.085938 72.484375 C 171.53125 71.867188 169.917969 71.527344 168.246094 71.472656 C 168.335938 70.957031 168.402344 70.441406 168.445312 69.921875 C 168.484375 69.402344 168.5 68.882812 168.484375 68.359375 C 168.472656 67.839844 168.433594 67.320312 168.371094 66.800781 C 168.304688 66.285156 168.214844 65.769531 168.097656 65.261719 C 167.980469 64.753906 167.835938 64.253906 167.667969 63.761719 C 167.5 63.265625 167.308594 62.78125 167.09375 62.308594 C 166.875 61.835938 166.636719 61.371094 166.371094 60.921875 C 166.109375 60.472656 165.824219 60.039062 165.515625 59.617188 C 165.207031 59.199219 164.878906 58.792969 164.53125 58.40625 C 164.183594 58.019531 163.816406 57.652344 163.429688 57.300781 C 163.042969 56.953125 162.640625 56.621094 162.222656 56.3125 C 161.804688 56.003906 161.371094 55.71875 160.921875 55.453125 C 160.472656 55.191406 160.015625 54.949219 159.542969 54.730469 C 159.070312 54.515625 158.585938 54.320312 158.09375 54.152344 C 157.601562 53.984375 157.105469 53.839844 156.597656 53.722656 C 156.089844 53.605469 155.582031 53.515625 155.066406 53.449219 C 153.882812 53.300781 152.699219 53.289062 151.515625 53.414062 C 150.332031 53.539062 149.175781 53.800781 148.054688 54.199219 C 146.929688 54.59375 145.867188 55.113281 144.863281 55.757812 C 143.859375 56.402344 142.941406 57.15625 142.113281 58.011719 C 141.722656 57.109375 141.253906 56.242188 140.714844 55.417969 C 140.171875 54.59375 139.566406 53.820312 138.894531 53.101562 C 138.222656 52.378906 137.496094 51.722656 136.710938 51.125 C 135.929688 50.527344 135.097656 50.003906 134.226562 49.550781 C 133.351562 49.097656 132.445312 48.71875 131.507812 48.421875 C 130.570312 48.125 129.617188 47.90625 128.640625 47.773438 C 127.667969 47.636719 126.6875 47.585938 125.707031 47.621094 C 124.722656 47.652344 123.75 47.769531 122.785156 47.96875 C 121.824219 48.167969 120.882812 48.449219 119.96875 48.8125 C 119.054688 49.171875 118.175781 49.609375 117.332031 50.121094 C 116.492188 50.632812 115.699219 51.210938 114.957031 51.859375 C 114.214844 52.507812 113.535156 53.210938 112.910156 53.976562 C 112.289062 54.742188 111.738281 55.554688 111.253906 56.414062 C 110.769531 57.273438 110.359375 58.167969 110.03125 59.097656 C 109.699219 60.023438 109.445312 60.976562 109.277344 61.949219 C 109.109375 62.921875 109.019531 63.898438 109.019531 64.886719 C 109.007812 65.074219 109.007812 65.257812 109.019531 65.445312 C 108.207031 65.664062 107.417969 65.949219 106.652344 66.296875 C 105.886719 66.644531 105.15625 67.050781 104.457031 67.515625 C 103.757812 67.980469 103.097656 68.503906 102.484375 69.074219 C 101.867188 69.648438 101.300781 70.269531 100.785156 70.933594 C 100.269531 71.597656 99.808594 72.300781 99.40625 73.039062 C 99.003906 73.78125 98.664062 74.546875 98.386719 75.34375 C 98.109375 76.140625 97.894531 76.953125 97.746094 77.78125 C 97.597656 78.609375 97.519531 79.449219 97.507812 80.289062 L 97.507812 80.484375 C 97.523438 81.054688 97.566406 81.625 97.636719 82.191406 C 97.710938 82.757812 97.808594 83.320312 97.933594 83.875 C 98.058594 84.433594 98.210938 84.984375 98.390625 85.527344 C 98.570312 86.066406 98.773438 86.601562 99.003906 87.125 C 99.234375 87.644531 99.488281 88.15625 99.769531 88.652344 C 100.050781 89.152344 100.351562 89.632812 100.679688 90.101562 C 101.007812 90.570312 101.355469 91.019531 101.726562 91.453125 C 102.09375 91.886719 102.484375 92.304688 102.894531 92.699219 C 103.304688 93.09375 103.734375 93.46875 104.183594 93.824219 C 104.628906 94.179688 105.089844 94.511719 105.570312 94.820312 C 106.050781 95.128906 106.542969 95.414062 107.046875 95.675781 C 107.554688 95.933594 108.074219 96.171875 108.601562 96.382812 C 109.132812 96.589844 109.667969 96.777344 110.21875 96.933594 C 110.765625 97.089844 111.316406 97.222656 111.878906 97.328125 C 112.4375 97.429688 113 97.507812 113.566406 97.554688 C 114.136719 97.605469 114.703125 97.625 115.273438 97.621094 L 170.414062 97.621094 C 171.167969 97.621094 171.917969 97.546875 172.660156 97.398438 C 173.402344 97.25 174.121094 97.03125 174.820312 96.738281 C 175.515625 96.449219 176.179688 96.09375 176.808594 95.671875 C 177.4375 95.25 178.019531 94.773438 178.554688 94.234375 C 179.085938 93.699219 179.566406 93.117188 179.984375 92.484375 C 180.40625 91.855469 180.757812 91.1875 181.046875 90.488281 C 181.339844 89.785156 181.554688 89.066406 181.703125 88.320312 C 181.851562 87.578125 181.925781 86.824219 181.925781 86.066406 C 181.949219 85.039062 181.863281 84.019531 181.671875 83.011719 C 181.476562 82 181.183594 81.019531 180.785156 80.074219 C 180.386719 79.125 179.894531 78.230469 179.304688 77.386719 C 178.71875 76.546875 178.050781 75.773438 177.300781 75.074219 Z M 177.300781 75.074219 " fill-opacity="1" fill-rule="nonzero"/></g><g clip-path="url(#b4ba81439c)"><path fill="#1694dd" d="M -2 66.960938 L 284.253906 66.960938 C 285.832031 66.960938 287.347656 67.589844 288.464844 68.710938 C 289.582031 69.832031 290.210938 71.351562 290.210938 72.933594 L 290.210938 119.847656 C 290.210938 121.429688 289.582031 122.949219 288.464844 124.070312 C 287.347656 125.191406 285.832031 125.820312 284.253906 125.820312 L -2 125.820312 C -3.578125 125.820312 -5.09375 125.191406 -6.210938 124.070312 C -7.328125 122.949219 -7.957031 121.429688 -7.957031 119.847656 L -7.957031 72.933594 C -7.957031 71.351562 -7.328125 69.832031 -6.210938 68.710938 C -5.09375 67.589844 -3.578125 66.960938 -2 66.960938 " fill-opacity="1" fill-rule="nonzero"/></g></svg>