<svg xmlns="http://www.w3.org/2000/svg" xmlns:xlink="http://www.w3.org/1999/xlink" width="375" zoomAndPan="magnify" viewBox="0 0 281.25 123.000003" height="164" preserveAspectRatio="xMidYMid meet" version="1.0"><defs><clipPath id="813e106b26"><path d="M 47.875 62 L 105.335938 62 L 105.335938 96.351562 L 47.875 96.351562 Z M 47.875 62 " clip-rule="nonzero"/></clipPath><clipPath id="c41d616390"><path d="M 70.742188 57 L 131.394531 57 L 131.394531 94 L 70.742188 94 Z M 70.742188 57 " clip-rule="nonzero"/></clipPath><clipPath id="417f4b018d"><path d="M 138.480469 61 L 198.957031 61 L 198.957031 97.726562 L 138.480469 97.726562 Z M 138.480469 61 " clip-rule="nonzero"/></clipPath><clipPath id="d15f4924d6"><path d="M 96.570312 62 L 157.046875 62 L 157.046875 98.746094 L 96.570312 98.746094 Z M 96.570312 62 " clip-rule="nonzero"/></clipPath><clipPath id="4f9c86d84c"><path d="M 174.617188 62 L 235.09375 62 L 235.09375 98.746094 L 174.617188 98.746094 Z M 174.617188 62 " clip-rule="nonzero"/></clipPath><clipPath id="ce8980dfb4"><path d="M 0.761719 83.835938 L 118.316406 83.835938 L 118.316406 122.007812 L 0.761719 122.007812 Z M 0.761719 83.835938 " clip-rule="nonzero"/></clipPath><clipPath id="a97a44a072"><path d="M 112.523438 80.460938 L 279.742188 80.460938 L 279.742188 122.007812 L 112.523438 122.007812 Z M 112.523438 80.460938 " clip-rule="nonzero"/></clipPath><clipPath id="bfc21383c1"><path d="M 0.761719 67 L 47.78125 67 L 47.78125 101 L 0.761719 101 Z M 0.761719 67 " clip-rule="nonzero"/></clipPath><clipPath id="c4e2a16408"><path d="M 227.089844 62 L 279.742188 62 L 279.742188 100.34375 L 227.089844 100.34375 Z M 227.089844 62 " clip-rule="nonzero"/></clipPath><clipPath id="11cb49c6b9"><path d="M 25.867188 76 L 81.730469 76 L 81.730469 109.753906 L 25.867188 109.753906 Z M 25.867188 76 " clip-rule="nonzero"/></clipPath></defs><g clip-path="url(#813e106b26)"><path fill="#004aad" d="M 102.1875 80.800781 C 101.332031 80.054688 100.375 79.46875 99.316406 79.050781 C 98.257812 78.632812 97.160156 78.402344 96.023438 78.367188 C 96.148438 77.667969 96.203125 76.96875 96.1875 76.257812 C 96.167969 75.550781 96.082031 74.851562 95.921875 74.164062 C 95.761719 73.472656 95.535156 72.808594 95.238281 72.164062 C 94.941406 71.519531 94.585938 70.914062 94.164062 70.34375 C 93.746094 69.773438 93.273438 69.25 92.746094 68.777344 C 92.21875 68.300781 91.648438 67.882812 91.039062 67.527344 C 90.425781 67.167969 89.785156 66.871094 89.113281 66.644531 C 88.441406 66.417969 87.753906 66.257812 87.050781 66.167969 C 86.246094 66.066406 85.441406 66.058594 84.636719 66.144531 C 83.828125 66.230469 83.042969 66.40625 82.277344 66.675781 C 81.515625 66.941406 80.789062 67.296875 80.105469 67.730469 C 79.425781 68.167969 78.800781 68.675781 78.238281 69.257812 C 77.96875 68.644531 77.652344 68.058594 77.285156 67.5 C 76.914062 66.941406 76.503906 66.421875 76.046875 65.933594 C 75.589844 65.445312 75.09375 65 74.558594 64.59375 C 74.027344 64.191406 73.460938 63.835938 72.867188 63.53125 C 72.273438 63.222656 71.65625 62.96875 71.019531 62.765625 C 70.378906 62.5625 69.730469 62.417969 69.066406 62.324219 C 68.402344 62.234375 67.738281 62.199219 67.066406 62.222656 C 66.398438 62.246094 65.738281 62.324219 65.082031 62.460938 C 64.425781 62.59375 63.785156 62.785156 63.164062 63.03125 C 62.539062 63.273438 61.941406 63.570312 61.371094 63.914062 C 60.796875 64.261719 60.257812 64.652344 59.753906 65.09375 C 59.246094 65.53125 58.78125 66.007812 58.359375 66.527344 C 57.9375 67.042969 57.558594 67.59375 57.230469 68.175781 C 56.902344 68.753906 56.625 69.359375 56.398438 69.988281 C 56.171875 70.617188 56 71.261719 55.886719 71.921875 C 55.769531 72.578125 55.710938 73.242188 55.710938 73.910156 C 55.703125 74.035156 55.703125 74.160156 55.710938 74.285156 C 55.15625 74.433594 54.621094 74.628906 54.101562 74.863281 C 53.578125 75.097656 53.082031 75.371094 52.605469 75.6875 C 52.128906 76.003906 51.679688 76.355469 51.261719 76.742188 C 50.84375 77.132812 50.457031 77.550781 50.105469 78 C 49.753906 78.453125 49.441406 78.925781 49.167969 79.425781 C 48.894531 79.929688 48.660156 80.449219 48.472656 80.984375 C 48.28125 81.523438 48.136719 82.074219 48.039062 82.636719 C 47.9375 83.195312 47.882812 83.761719 47.875 84.332031 L 47.875 84.464844 C 47.894531 85.238281 47.992188 86.003906 48.164062 86.761719 C 48.335938 87.515625 48.578125 88.25 48.894531 88.957031 C 49.207031 89.667969 49.585938 90.339844 50.035156 90.972656 C 50.480469 91.609375 50.980469 92.195312 51.542969 92.730469 C 52.101562 93.269531 52.710938 93.746094 53.363281 94.167969 C 54.015625 94.585938 54.703125 94.9375 55.425781 95.222656 C 56.148438 95.507812 56.890625 95.722656 57.65625 95.863281 C 58.417969 96.003906 59.191406 96.070312 59.964844 96.0625 L 97.5 96.0625 C 98.011719 96.0625 98.523438 96.011719 99.027344 95.910156 C 99.53125 95.8125 100.023438 95.664062 100.496094 95.464844 C 100.972656 95.269531 101.425781 95.027344 101.851562 94.742188 C 102.28125 94.457031 102.675781 94.132812 103.039062 93.769531 C 103.402344 93.410156 103.726562 93.011719 104.015625 92.585938 C 104.300781 92.160156 104.542969 91.710938 104.738281 91.234375 C 104.933594 90.761719 105.082031 90.273438 105.183594 89.769531 C 105.285156 89.265625 105.335938 88.757812 105.335938 88.242188 C 105.363281 86.835938 105.105469 85.484375 104.558594 84.1875 C 104.007812 82.890625 103.21875 81.761719 102.1875 80.800781 Z M 102.1875 80.800781 " fill-opacity="1" fill-rule="nonzero"/></g><g clip-path="url(#c41d616390)"><path fill="#004aad" d="M 128.070312 77.703125 C 127.167969 76.902344 126.160156 76.28125 125.042969 75.832031 C 123.925781 75.386719 122.765625 75.140625 121.566406 75.101562 C 121.699219 74.355469 121.757812 73.605469 121.738281 72.851562 C 121.71875 72.09375 121.628906 71.347656 121.457031 70.613281 C 121.289062 69.875 121.050781 69.164062 120.738281 68.476562 C 120.425781 67.789062 120.046875 67.140625 119.605469 66.53125 C 119.160156 65.921875 118.660156 65.363281 118.105469 64.859375 C 117.550781 64.351562 116.949219 63.90625 116.304688 63.523438 C 115.660156 63.140625 114.980469 62.828125 114.273438 62.582031 C 113.5625 62.339844 112.839844 62.167969 112.097656 62.074219 C 111.246094 61.964844 110.398438 61.957031 109.546875 62.050781 C 108.695312 62.140625 107.867188 62.328125 107.058594 62.617188 C 106.25 62.902344 105.484375 63.277344 104.765625 63.742188 C 104.042969 64.210938 103.386719 64.753906 102.792969 65.371094 C 102.507812 64.71875 102.171875 64.09375 101.785156 63.496094 C 101.398438 62.902344 100.960938 62.34375 100.480469 61.820312 C 99.996094 61.300781 99.472656 60.824219 98.910156 60.394531 C 98.347656 59.964844 97.75 59.585938 97.125 59.257812 C 96.496094 58.929688 95.84375 58.65625 95.171875 58.441406 C 94.5 58.222656 93.8125 58.066406 93.109375 57.96875 C 92.410156 57.875 91.707031 57.835938 91 57.859375 C 90.296875 57.882812 89.597656 57.96875 88.90625 58.113281 C 88.210938 58.257812 87.539062 58.460938 86.878906 58.722656 C 86.222656 58.984375 85.589844 59.296875 84.988281 59.667969 C 84.382812 60.039062 83.8125 60.457031 83.28125 60.925781 C 82.746094 61.394531 82.257812 61.902344 81.808594 62.457031 C 81.363281 63.007812 80.964844 63.59375 80.617188 64.214844 C 80.269531 64.835938 79.976562 65.484375 79.738281 66.15625 C 79.5 66.828125 79.320312 67.515625 79.199219 68.21875 C 79.078125 68.917969 79.015625 69.628906 79.011719 70.339844 C 79.003906 70.476562 79.003906 70.609375 79.011719 70.746094 C 78.429688 70.902344 77.863281 71.109375 77.3125 71.359375 C 76.761719 71.609375 76.238281 71.902344 75.734375 72.242188 C 75.230469 72.578125 74.757812 72.953125 74.316406 73.367188 C 73.875 73.78125 73.46875 74.230469 73.097656 74.710938 C 72.726562 75.191406 72.398438 75.699219 72.105469 76.234375 C 71.816406 76.769531 71.574219 77.324219 71.375 77.898438 C 71.171875 78.472656 71.019531 79.0625 70.914062 79.660156 C 70.808594 80.261719 70.75 80.867188 70.742188 81.476562 L 70.742188 81.613281 C 70.765625 82.441406 70.867188 83.257812 71.046875 84.066406 C 71.230469 84.875 71.484375 85.65625 71.816406 86.414062 C 72.148438 87.171875 72.550781 87.886719 73.019531 88.566406 C 73.492188 89.246094 74.023438 89.871094 74.613281 90.445312 C 75.203125 91.019531 75.84375 91.527344 76.535156 91.976562 C 77.226562 92.425781 77.949219 92.800781 78.714844 93.105469 C 79.476562 93.410156 80.261719 93.636719 81.066406 93.789062 C 81.871094 93.9375 82.6875 94.007812 83.507812 94 L 123.125 94 C 123.667969 94 124.203125 93.945312 124.738281 93.839844 C 125.269531 93.734375 125.785156 93.574219 126.289062 93.363281 C 126.789062 93.15625 127.265625 92.898438 127.71875 92.59375 C 128.171875 92.289062 128.589844 91.941406 128.972656 91.554688 C 129.355469 91.167969 129.699219 90.746094 130 90.289062 C 130.300781 89.832031 130.558594 89.351562 130.765625 88.84375 C 130.972656 88.339844 131.128906 87.816406 131.234375 87.277344 C 131.339844 86.742188 131.394531 86.199219 131.394531 85.648438 C 131.425781 84.148438 131.152344 82.703125 130.574219 81.316406 C 129.996094 79.933594 129.160156 78.726562 128.070312 77.703125 Z M 128.070312 77.703125 " fill-opacity="1" fill-rule="nonzero"/></g><g clip-path="url(#417f4b018d)"><path fill="#004aad" d="M 141.800781 81.117188 C 142.707031 80.316406 143.714844 79.691406 144.832031 79.246094 C 145.949219 78.796875 147.109375 78.554688 148.308594 78.511719 C 148.175781 77.769531 148.117188 77.019531 148.136719 76.265625 C 148.15625 75.507812 148.246094 74.761719 148.417969 74.027344 C 148.585938 73.289062 148.824219 72.578125 149.136719 71.890625 C 149.449219 71.203125 149.828125 70.554688 150.269531 69.945312 C 150.714844 69.335938 151.214844 68.777344 151.769531 68.269531 C 152.324219 67.765625 152.925781 67.320312 153.570312 66.9375 C 154.214844 66.554688 154.894531 66.238281 155.601562 65.996094 C 156.308594 65.75 157.035156 65.582031 157.777344 65.488281 C 158.628906 65.378906 159.476562 65.371094 160.328125 65.460938 C 161.179688 65.554688 162.007812 65.742188 162.816406 66.027344 C 163.625 66.3125 164.386719 66.691406 165.109375 67.15625 C 165.832031 67.621094 166.488281 68.164062 167.082031 68.785156 C 167.367188 68.132812 167.703125 67.507812 168.089844 66.910156 C 168.476562 66.3125 168.914062 65.753906 169.394531 65.234375 C 169.878906 64.714844 170.402344 64.238281 170.964844 63.808594 C 171.527344 63.375 172.125 62.996094 172.75 62.667969 C 173.378906 62.339844 174.03125 62.070312 174.703125 61.851562 C 175.375 61.636719 176.0625 61.480469 176.761719 61.382812 C 177.464844 61.285156 178.167969 61.25 178.875 61.273438 C 179.578125 61.296875 180.277344 61.382812 180.96875 61.527344 C 181.664062 61.671875 182.335938 61.875 182.996094 62.132812 C 183.652344 62.394531 184.285156 62.710938 184.886719 63.082031 C 185.492188 63.449219 186.0625 63.871094 186.59375 64.335938 C 187.128906 64.804688 187.617188 65.316406 188.066406 65.867188 C 188.511719 66.421875 188.910156 67.007812 189.257812 67.628906 C 189.605469 68.25 189.898438 68.894531 190.136719 69.566406 C 190.375 70.238281 190.554688 70.925781 190.675781 71.628906 C 190.796875 72.332031 190.859375 73.039062 190.863281 73.753906 C 190.871094 73.886719 190.871094 74.023438 190.863281 74.15625 C 191.445312 74.316406 192.011719 74.519531 192.5625 74.773438 C 193.113281 75.023438 193.636719 75.316406 194.140625 75.652344 C 194.644531 75.992188 195.117188 76.367188 195.558594 76.78125 C 196 77.195312 196.40625 77.644531 196.777344 78.125 C 197.148438 78.605469 197.476562 79.113281 197.765625 79.648438 C 198.058594 80.183594 198.300781 80.738281 198.5 81.3125 C 198.703125 81.886719 198.855469 82.472656 198.960938 83.074219 C 199.066406 83.671875 199.125 84.277344 199.132812 84.886719 L 199.132812 85.027344 C 199.109375 85.855469 199.007812 86.671875 198.828125 87.480469 C 198.644531 88.285156 198.390625 89.070312 198.058594 89.828125 C 197.726562 90.582031 197.324219 91.300781 196.855469 91.980469 C 196.382812 92.65625 195.851562 93.28125 195.261719 93.855469 C 194.671875 94.429688 194.03125 94.941406 193.339844 95.390625 C 192.648438 95.835938 191.925781 96.214844 191.160156 96.519531 C 190.398438 96.824219 189.613281 97.050781 188.808594 97.199219 C 188 97.351562 187.1875 97.421875 186.367188 97.414062 L 146.75 97.414062 C 146.207031 97.414062 145.671875 97.359375 145.136719 97.253906 C 144.605469 97.144531 144.089844 96.988281 143.585938 96.777344 C 143.085938 96.566406 142.609375 96.308594 142.15625 96.003906 C 141.703125 95.699219 141.285156 95.355469 140.902344 94.96875 C 140.519531 94.578125 140.175781 94.15625 139.875 93.703125 C 139.574219 93.246094 139.316406 92.765625 139.109375 92.257812 C 138.902344 91.75 138.746094 91.230469 138.640625 90.691406 C 138.535156 90.152344 138.480469 89.609375 138.480469 89.0625 C 138.449219 87.558594 138.722656 86.117188 139.300781 84.730469 C 139.878906 83.347656 140.714844 82.140625 141.800781 81.117188 Z M 141.800781 81.117188 " fill-opacity="1" fill-rule="nonzero"/></g><g clip-path="url(#d15f4924d6)"><path fill="#004aad" d="M 99.890625 82.136719 C 100.792969 81.335938 101.804688 80.710938 102.921875 80.265625 C 104.039062 79.820312 105.199219 79.574219 106.398438 79.535156 C 106.265625 78.789062 106.207031 78.039062 106.226562 77.285156 C 106.242188 76.527344 106.335938 75.78125 106.503906 75.046875 C 106.675781 74.308594 106.914062 73.597656 107.226562 72.910156 C 107.539062 72.222656 107.917969 71.574219 108.359375 70.964844 C 108.804688 70.355469 109.300781 69.796875 109.859375 69.292969 C 110.414062 68.785156 111.015625 68.339844 111.660156 67.957031 C 112.304688 67.574219 112.980469 67.257812 113.691406 67.015625 C 114.398438 66.769531 115.125 66.601562 115.867188 66.507812 C 116.71875 66.398438 117.566406 66.390625 118.417969 66.480469 C 119.269531 66.574219 120.097656 66.761719 120.90625 67.046875 C 121.714844 67.335938 122.476562 67.710938 123.199219 68.175781 C 123.917969 68.640625 124.578125 69.183594 125.171875 69.804688 C 125.457031 69.152344 125.789062 68.527344 126.179688 67.929688 C 126.566406 67.335938 127.003906 66.777344 127.484375 66.253906 C 127.96875 65.734375 128.492188 65.257812 129.054688 64.828125 C 129.617188 64.394531 130.214844 64.015625 130.839844 63.6875 C 131.46875 63.359375 132.117188 63.089844 132.792969 62.871094 C 133.464844 62.65625 134.152344 62.5 134.851562 62.402344 C 135.554688 62.304688 136.257812 62.269531 136.960938 62.292969 C 137.667969 62.316406 138.367188 62.402344 139.058594 62.546875 C 139.75 62.691406 140.425781 62.894531 141.085938 63.152344 C 141.742188 63.414062 142.375 63.730469 142.976562 64.101562 C 143.582031 64.46875 144.152344 64.890625 144.683594 65.355469 C 145.21875 65.824219 145.707031 66.335938 146.15625 66.886719 C 146.601562 67.441406 147 68.027344 147.347656 68.648438 C 147.695312 69.269531 147.988281 69.917969 148.226562 70.589844 C 148.464844 71.257812 148.644531 71.945312 148.765625 72.648438 C 148.886719 73.351562 148.949219 74.058594 148.953125 74.773438 C 148.957031 74.910156 148.957031 75.042969 148.953125 75.175781 C 149.535156 75.335938 150.101562 75.539062 150.652344 75.792969 C 151.199219 76.042969 151.726562 76.335938 152.230469 76.675781 C 152.734375 77.011719 153.203125 77.386719 153.648438 77.800781 C 154.089844 78.214844 154.496094 78.664062 154.867188 79.144531 C 155.238281 79.625 155.566406 80.132812 155.855469 80.667969 C 156.144531 81.203125 156.390625 81.757812 156.589844 82.332031 C 156.792969 82.90625 156.945312 83.492188 157.050781 84.09375 C 157.15625 84.695312 157.214844 85.296875 157.222656 85.90625 L 157.222656 86.046875 C 157.199219 86.875 157.097656 87.691406 156.917969 88.5 C 156.734375 89.308594 156.480469 90.089844 156.148438 90.847656 C 155.816406 91.601562 155.414062 92.320312 154.941406 93 C 154.472656 93.675781 153.941406 94.304688 153.351562 94.875 C 152.757812 95.449219 152.117188 95.960938 151.429688 96.410156 C 150.738281 96.855469 150.011719 97.234375 149.25 97.539062 C 148.488281 97.84375 147.703125 98.070312 146.898438 98.222656 C 146.089844 98.371094 145.277344 98.441406 144.457031 98.433594 L 104.839844 98.433594 C 104.296875 98.433594 103.757812 98.378906 103.226562 98.273438 C 102.695312 98.164062 102.175781 98.007812 101.675781 97.796875 C 101.175781 97.585938 100.695312 97.328125 100.246094 97.023438 C 99.792969 96.722656 99.375 96.375 98.992188 95.988281 C 98.609375 95.597656 98.265625 95.175781 97.964844 94.722656 C 97.660156 94.265625 97.40625 93.785156 97.199219 93.277344 C 96.992188 92.769531 96.835938 92.25 96.730469 91.710938 C 96.621094 91.171875 96.570312 90.628906 96.570312 90.082031 C 96.539062 88.578125 96.8125 87.136719 97.390625 85.75 C 97.96875 84.367188 98.804688 83.160156 99.890625 82.136719 Z M 99.890625 82.136719 " fill-opacity="1" fill-rule="nonzero"/></g><g clip-path="url(#4f9c86d84c)"><path fill="#004aad" d="M 177.9375 82.136719 C 178.839844 81.335938 179.851562 80.710938 180.96875 80.265625 C 182.085938 79.820312 183.246094 79.574219 184.445312 79.535156 C 184.3125 78.789062 184.253906 78.039062 184.273438 77.285156 C 184.289062 76.527344 184.382812 75.78125 184.550781 75.046875 C 184.722656 74.308594 184.960938 73.597656 185.273438 72.910156 C 185.585938 72.222656 185.964844 71.574219 186.40625 70.964844 C 186.851562 70.355469 187.347656 69.796875 187.90625 69.292969 C 188.460938 68.785156 189.0625 68.339844 189.707031 67.957031 C 190.351562 67.574219 191.027344 67.257812 191.738281 67.015625 C 192.445312 66.769531 193.171875 66.601562 193.914062 66.507812 C 194.765625 66.398438 195.613281 66.390625 196.464844 66.480469 C 197.316406 66.574219 198.144531 66.761719 198.953125 67.046875 C 199.761719 67.335938 200.523438 67.710938 201.246094 68.175781 C 201.964844 68.640625 202.625 69.183594 203.21875 69.804688 C 203.503906 69.152344 203.835938 68.527344 204.226562 67.929688 C 204.613281 67.335938 205.050781 66.777344 205.53125 66.253906 C 206.015625 65.734375 206.539062 65.257812 207.101562 64.828125 C 207.664062 64.394531 208.261719 64.015625 208.886719 63.6875 C 209.515625 63.359375 210.164062 63.089844 210.839844 62.871094 C 211.511719 62.65625 212.199219 62.5 212.898438 62.402344 C 213.601562 62.304688 214.304688 62.269531 215.007812 62.292969 C 215.714844 62.316406 216.414062 62.402344 217.105469 62.546875 C 217.796875 62.691406 218.472656 62.894531 219.132812 63.152344 C 219.789062 63.414062 220.417969 63.730469 221.023438 64.101562 C 221.628906 64.46875 222.195312 64.890625 222.730469 65.355469 C 223.265625 65.824219 223.753906 66.335938 224.199219 66.886719 C 224.648438 67.441406 225.046875 68.027344 225.394531 68.648438 C 225.742188 69.269531 226.035156 69.917969 226.273438 70.589844 C 226.511719 71.257812 226.691406 71.945312 226.8125 72.648438 C 226.933594 73.351562 226.996094 74.058594 227 74.773438 C 227.003906 74.910156 227.003906 75.042969 227 75.175781 C 227.582031 75.335938 228.148438 75.539062 228.699219 75.792969 C 229.246094 76.042969 229.773438 76.335938 230.277344 76.675781 C 230.777344 77.011719 231.25 77.386719 231.695312 77.800781 C 232.136719 78.214844 232.542969 78.664062 232.914062 79.144531 C 233.285156 79.625 233.613281 80.132812 233.902344 80.667969 C 234.191406 81.203125 234.4375 81.757812 234.636719 82.332031 C 234.835938 82.90625 234.992188 83.492188 235.097656 84.09375 C 235.203125 84.695312 235.261719 85.296875 235.269531 85.90625 L 235.269531 86.046875 C 235.246094 86.875 235.144531 87.691406 234.964844 88.5 C 234.78125 89.308594 234.527344 90.089844 234.195312 90.847656 C 233.863281 91.601562 233.460938 92.320312 232.988281 93 C 232.519531 93.675781 231.988281 94.304688 231.398438 94.875 C 230.804688 95.449219 230.164062 95.960938 229.476562 96.410156 C 228.785156 96.855469 228.058594 97.234375 227.296875 97.539062 C 226.535156 97.84375 225.75 98.070312 224.945312 98.222656 C 224.136719 98.371094 223.324219 98.441406 222.503906 98.433594 L 182.886719 98.433594 C 182.34375 98.433594 181.804688 98.378906 181.273438 98.273438 C 180.742188 98.164062 180.222656 98.007812 179.722656 97.796875 C 179.21875 97.585938 178.742188 97.328125 178.292969 97.023438 C 177.839844 96.722656 177.421875 96.375 177.039062 95.988281 C 176.65625 95.597656 176.3125 95.175781 176.011719 94.722656 C 175.707031 94.265625 175.453125 93.785156 175.246094 93.277344 C 175.039062 92.769531 174.882812 92.25 174.777344 91.710938 C 174.667969 91.171875 174.617188 90.628906 174.617188 90.082031 C 174.585938 88.578125 174.855469 87.136719 175.4375 85.75 C 176.015625 84.367188 176.847656 83.160156 177.9375 82.136719 Z M 177.9375 82.136719 " fill-opacity="1" fill-rule="nonzero"/></g><g clip-path="url(#ce8980dfb4)"><path fill="#004aad" d="M 0.570312 83.835938 L 112.359375 83.835938 C 115.648438 83.835938 118.316406 86.5 118.316406 89.789062 L 118.316406 123.371094 C 118.316406 126.660156 115.648438 129.324219 112.359375 129.324219 L 0.570312 129.324219 C -2.71875 129.324219 -5.382812 126.660156 -5.382812 123.371094 L -5.382812 89.789062 C -5.382812 86.5 -2.71875 83.835938 0.570312 83.835938 " fill-opacity="1" fill-rule="nonzero"/></g><g clip-path="url(#a97a44a072)"><path fill="#004aad" d="M 118.484375 80.460938 L 282.136719 80.460938 C 285.417969 80.460938 288.078125 83.117188 288.078125 86.390625 L 288.078125 123.210938 C 288.078125 126.488281 285.417969 129.144531 282.136719 129.144531 L 118.484375 129.144531 C 115.203125 129.144531 112.542969 126.488281 112.542969 123.210938 L 112.542969 86.390625 C 112.542969 83.117188 115.203125 80.460938 118.484375 80.460938 " fill-opacity="1" fill-rule="nonzero"/></g><g clip-path="url(#bfc21383c1)"><path fill="#004aad" d="M 44.722656 85.816406 C 43.890625 85.085938 42.960938 84.515625 41.929688 84.105469 C 40.902344 83.695312 39.832031 83.472656 38.726562 83.4375 C 38.851562 82.753906 38.902344 82.070312 38.886719 81.378906 C 38.871094 80.6875 38.785156 80.003906 38.628906 79.328125 C 38.472656 78.65625 38.253906 78.003906 37.964844 77.375 C 37.675781 76.746094 37.328125 76.152344 36.921875 75.597656 C 36.511719 75.039062 36.054688 74.527344 35.542969 74.0625 C 35.03125 73.601562 34.476562 73.191406 33.882812 72.84375 C 33.289062 72.492188 32.664062 72.203125 32.011719 71.980469 C 31.359375 71.757812 30.691406 71.601562 30.003906 71.515625 C 29.222656 71.417969 28.441406 71.410156 27.65625 71.492188 C 26.871094 71.578125 26.109375 71.75 25.367188 72.011719 C 24.621094 72.273438 23.917969 72.617188 23.253906 73.042969 C 22.589844 73.46875 21.984375 73.96875 21.433594 74.535156 C 21.175781 73.9375 20.867188 73.363281 20.507812 72.820312 C 20.152344 72.273438 19.75 71.761719 19.304688 71.285156 C 18.859375 70.808594 18.378906 70.375 17.859375 69.980469 C 17.339844 69.585938 16.792969 69.238281 16.214844 68.9375 C 15.636719 68.636719 15.039062 68.386719 14.417969 68.191406 C 13.796875 67.992188 13.164062 67.851562 12.519531 67.761719 C 11.875 67.671875 11.226562 67.636719 10.578125 67.660156 C 9.925781 67.683594 9.28125 67.757812 8.644531 67.890625 C 8.007812 68.023438 7.386719 68.210938 6.78125 68.449219 C 6.175781 68.6875 5.59375 68.976562 5.035156 69.3125 C 4.480469 69.652344 3.957031 70.035156 3.464844 70.464844 C 2.972656 70.894531 2.523438 71.359375 2.109375 71.863281 C 1.699219 72.371094 1.332031 72.90625 1.011719 73.476562 C 0.691406 74.042969 0.421875 74.636719 0.203125 75.25 C -0.015625 75.867188 -0.183594 76.492188 -0.292969 77.136719 C -0.40625 77.78125 -0.464844 78.429688 -0.464844 79.082031 C -0.472656 79.203125 -0.472656 79.328125 -0.464844 79.449219 C -1.003906 79.59375 -1.523438 79.78125 -2.03125 80.011719 C -2.539062 80.242188 -3.023438 80.511719 -3.484375 80.820312 C -3.949219 81.128906 -4.382812 81.472656 -4.789062 81.851562 C -5.199219 82.230469 -5.574219 82.640625 -5.914062 83.078125 C -6.253906 83.519531 -6.558594 83.984375 -6.824219 84.472656 C -7.09375 84.964844 -7.316406 85.472656 -7.503906 85.996094 C -7.6875 86.523438 -7.828125 87.058594 -7.925781 87.609375 C -8.023438 88.15625 -8.074219 88.710938 -8.082031 89.269531 L -8.082031 89.394531 C -8.0625 90.152344 -7.96875 90.902344 -7.800781 91.640625 C -7.636719 92.378906 -7.398438 93.09375 -7.09375 93.789062 C -6.789062 94.480469 -6.417969 95.136719 -5.984375 95.757812 C -5.550781 96.378906 -5.0625 96.953125 -4.519531 97.476562 C -3.972656 98 -3.382812 98.46875 -2.746094 98.878906 C -2.113281 99.289062 -1.445312 99.632812 -0.742188 99.910156 C -0.0390625 100.191406 0.683594 100.398438 1.425781 100.535156 C 2.167969 100.675781 2.917969 100.738281 3.671875 100.730469 L 40.164062 100.730469 C 40.664062 100.730469 41.160156 100.679688 41.648438 100.582031 C 42.140625 100.484375 42.617188 100.339844 43.078125 100.148438 C 43.539062 99.957031 43.980469 99.722656 44.394531 99.441406 C 44.8125 99.164062 45.195312 98.847656 45.550781 98.492188 C 45.902344 98.136719 46.21875 97.75 46.496094 97.335938 C 46.773438 96.917969 47.007812 96.476562 47.199219 96.011719 C 47.390625 95.550781 47.535156 95.070312 47.632812 94.578125 C 47.730469 94.089844 47.78125 93.589844 47.78125 93.089844 C 47.808594 91.714844 47.558594 90.394531 47.027344 89.125 C 46.492188 87.859375 45.722656 86.753906 44.722656 85.816406 Z M 44.722656 85.816406 " fill-opacity="1" fill-rule="nonzero"/></g><g clip-path="url(#c4e2a16408)"><path fill="#004aad" d="M 287.441406 83.027344 C 286.488281 82.191406 285.425781 81.539062 284.25 81.074219 C 283.074219 80.609375 281.855469 80.355469 280.589844 80.3125 C 280.730469 79.535156 280.792969 78.753906 280.773438 77.964844 C 280.753906 77.179688 280.65625 76.398438 280.476562 75.632812 C 280.300781 74.863281 280.046875 74.121094 279.71875 73.40625 C 279.390625 72.6875 278.992188 72.011719 278.527344 71.378906 C 278.058594 70.742188 277.535156 70.160156 276.949219 69.632812 C 276.363281 69.105469 275.730469 68.640625 275.050781 68.238281 C 274.375 67.839844 273.660156 67.511719 272.914062 67.257812 C 272.167969 67.003906 271.40625 66.828125 270.621094 66.730469 C 269.730469 66.617188 268.832031 66.605469 267.9375 66.703125 C 267.042969 66.796875 266.167969 66.996094 265.320312 67.292969 C 264.46875 67.589844 263.664062 67.984375 262.90625 68.46875 C 262.148438 68.953125 261.453125 69.519531 260.828125 70.167969 C 260.53125 69.488281 260.175781 68.835938 259.769531 68.214844 C 259.359375 67.589844 258.902344 67.007812 258.394531 66.464844 C 257.886719 65.921875 257.335938 65.425781 256.742188 64.976562 C 256.148438 64.527344 255.523438 64.132812 254.863281 63.789062 C 254.203125 63.449219 253.515625 63.164062 252.808594 62.941406 C 252.097656 62.714844 251.375 62.550781 250.640625 62.449219 C 249.902344 62.347656 249.160156 62.308594 248.417969 62.335938 C 247.675781 62.359375 246.9375 62.449219 246.210938 62.597656 C 245.480469 62.75 244.773438 62.960938 244.078125 63.234375 C 243.386719 63.503906 242.722656 63.835938 242.085938 64.21875 C 241.449219 64.605469 240.851562 65.042969 240.289062 65.53125 C 239.730469 66.019531 239.214844 66.550781 238.742188 67.125 C 238.273438 67.703125 237.855469 68.316406 237.488281 68.960938 C 237.121094 69.609375 236.8125 70.285156 236.5625 70.984375 C 236.3125 71.683594 236.121094 72.402344 235.992188 73.132812 C 235.867188 73.867188 235.800781 74.605469 235.796875 75.347656 C 235.789062 75.488281 235.789062 75.628906 235.796875 75.769531 C 235.183594 75.933594 234.589844 76.148438 234.007812 76.410156 C 233.429688 76.671875 232.875 76.980469 232.347656 77.332031 C 231.816406 77.683594 231.320312 78.074219 230.855469 78.503906 C 230.390625 78.9375 229.960938 79.40625 229.570312 79.90625 C 229.179688 80.40625 228.832031 80.9375 228.53125 81.496094 C 228.226562 82.050781 227.96875 82.628906 227.757812 83.230469 C 227.546875 83.828125 227.382812 84.441406 227.273438 85.066406 C 227.160156 85.691406 227.101562 86.324219 227.089844 86.957031 L 227.089844 87.101562 C 227.117188 87.964844 227.222656 88.820312 227.414062 89.660156 C 227.605469 90.503906 227.875 91.316406 228.222656 92.109375 C 228.574219 92.898438 228.996094 93.644531 229.492188 94.351562 C 229.984375 95.058594 230.546875 95.710938 231.167969 96.308594 C 231.789062 96.910156 232.464844 97.441406 233.191406 97.90625 C 233.917969 98.375 234.679688 98.765625 235.484375 99.085938 C 236.285156 99.402344 237.113281 99.640625 237.960938 99.796875 C 238.808594 99.953125 239.664062 100.027344 240.527344 100.019531 L 282.230469 100.019531 C 282.800781 100.019531 283.367188 99.960938 283.929688 99.851562 C 284.488281 99.738281 285.035156 99.574219 285.5625 99.355469 C 286.089844 99.136719 286.59375 98.867188 287.066406 98.550781 C 287.542969 98.234375 287.984375 97.871094 288.386719 97.46875 C 288.789062 97.0625 289.152344 96.625 289.46875 96.148438 C 289.785156 95.671875 290.054688 95.171875 290.273438 94.644531 C 290.492188 94.117188 290.65625 93.570312 290.769531 93.011719 C 290.882812 92.449219 290.9375 91.882812 290.9375 91.3125 C 290.972656 89.746094 290.683594 88.238281 290.074219 86.792969 C 289.464844 85.351562 288.585938 84.09375 287.441406 83.027344 Z M 287.441406 83.027344 " fill-opacity="1" fill-rule="nonzero"/></g><g clip-path="url(#11cb49c6b9)"><path fill="#004aad" d="M 78.671875 94.554688 C 77.839844 93.824219 76.910156 93.253906 75.878906 92.84375 C 74.851562 92.433594 73.785156 92.210938 72.675781 92.175781 C 72.800781 91.492188 72.851562 90.808594 72.835938 90.117188 C 72.820312 89.425781 72.734375 88.742188 72.578125 88.066406 C 72.421875 87.394531 72.203125 86.742188 71.914062 86.113281 C 71.625 85.484375 71.277344 84.890625 70.871094 84.335938 C 70.460938 83.777344 70.003906 83.265625 69.492188 82.800781 C 68.980469 82.339844 68.425781 81.929688 67.832031 81.582031 C 67.238281 81.230469 66.613281 80.941406 65.960938 80.71875 C 65.308594 80.496094 64.640625 80.339844 63.957031 80.253906 C 63.171875 80.15625 62.390625 80.148438 61.605469 80.230469 C 60.824219 80.316406 60.058594 80.488281 59.316406 80.75 C 58.570312 81.011719 57.867188 81.355469 57.203125 81.78125 C 56.539062 82.207031 55.933594 82.707031 55.386719 83.273438 C 55.125 82.675781 54.816406 82.101562 54.457031 81.558594 C 54.101562 81.011719 53.699219 80.5 53.253906 80.023438 C 52.8125 79.546875 52.328125 79.113281 51.808594 78.71875 C 51.292969 78.324219 50.742188 77.976562 50.164062 77.675781 C 49.585938 77.375 48.988281 77.125 48.367188 76.929688 C 47.746094 76.730469 47.113281 76.589844 46.46875 76.5 C 45.824219 76.410156 45.175781 76.375 44.527344 76.398438 C 43.875 76.421875 43.230469 76.496094 42.59375 76.628906 C 41.957031 76.761719 41.335938 76.949219 40.730469 77.1875 C 40.125 77.425781 39.542969 77.714844 38.988281 78.050781 C 38.429688 78.390625 37.90625 78.773438 37.414062 79.203125 C 36.921875 79.632812 36.472656 80.097656 36.058594 80.605469 C 35.648438 81.109375 35.28125 81.644531 34.960938 82.214844 C 34.640625 82.78125 34.371094 83.375 34.152344 83.988281 C 33.933594 84.605469 33.765625 85.234375 33.65625 85.875 C 33.542969 86.519531 33.484375 87.167969 33.484375 87.820312 C 33.476562 87.941406 33.476562 88.066406 33.484375 88.1875 C 32.945312 88.332031 32.425781 88.519531 31.917969 88.75 C 31.414062 88.980469 30.925781 89.25 30.464844 89.558594 C 30 89.867188 29.566406 90.210938 29.160156 90.589844 C 28.75 90.96875 28.375 91.378906 28.035156 91.816406 C 27.695312 92.257812 27.390625 92.722656 27.125 93.210938 C 26.855469 93.703125 26.632812 94.210938 26.449219 94.734375 C 26.261719 95.261719 26.121094 95.796875 26.023438 96.347656 C 25.925781 96.898438 25.875 97.449219 25.867188 98.007812 L 25.867188 98.132812 C 25.886719 98.890625 25.980469 99.640625 26.148438 100.378906 C 26.316406 101.117188 26.550781 101.832031 26.855469 102.527344 C 27.164062 103.21875 27.53125 103.875 27.964844 104.496094 C 28.398438 105.117188 28.886719 105.691406 29.433594 106.214844 C 29.976562 106.738281 30.566406 107.207031 31.203125 107.617188 C 31.835938 108.027344 32.507812 108.371094 33.207031 108.648438 C 33.910156 108.929688 34.632812 109.136719 35.375 109.273438 C 36.117188 109.414062 36.867188 109.476562 37.621094 109.46875 L 74.113281 109.46875 C 74.613281 109.46875 75.109375 109.417969 75.597656 109.320312 C 76.089844 109.222656 76.566406 109.078125 77.027344 108.886719 C 77.488281 108.695312 77.929688 108.460938 78.34375 108.179688 C 78.761719 107.902344 79.144531 107.585938 79.5 107.230469 C 79.851562 106.875 80.167969 106.488281 80.445312 106.074219 C 80.722656 105.65625 80.957031 105.214844 81.148438 104.75 C 81.339844 104.289062 81.484375 103.808594 81.582031 103.316406 C 81.679688 102.828125 81.730469 102.328125 81.730469 101.828125 C 81.761719 100.453125 81.507812 99.132812 80.976562 97.863281 C 80.441406 96.597656 79.671875 95.492188 78.671875 94.554688 Z M 78.671875 94.554688 " fill-opacity="1" fill-rule="nonzero"/></g></svg>