<svg xmlns="http://www.w3.org/2000/svg" xmlns:xlink="http://www.w3.org/1999/xlink" width="375" zoomAndPan="magnify" viewBox="0 0 281.25 123.000003" height="164" preserveAspectRatio="xMidYMid meet" version="1.0"><defs><clipPath id="e278a2cd47"><path d="M 134.550781 93 L 213.511719 93 L 213.511719 122.007812 L 134.550781 122.007812 Z M 134.550781 93 " clip-rule="nonzero"/></clipPath><clipPath id="f81b2f5ca7"><path d="M 157.574219 91 L 236.210938 91 L 236.210938 122.007812 L 157.574219 122.007812 Z M 157.574219 91 " clip-rule="nonzero"/></clipPath><clipPath id="11ca6f109f"><path d="M 183.976562 98 L 279.742188 98 L 279.742188 122.007812 L 183.976562 122.007812 Z M 183.976562 98 " clip-rule="nonzero"/></clipPath><clipPath id="ca3f22c4c8"><path d="M 103.5 93 L 182.460938 93 L 182.460938 122.007812 L 103.5 122.007812 Z M 103.5 93 " clip-rule="nonzero"/></clipPath><clipPath id="a6f7e5ccc7"><path d="M 0.761719 101 L 86.191406 101 L 86.191406 122.007812 L 0.761719 122.007812 Z M 0.761719 101 " clip-rule="nonzero"/></clipPath><clipPath id="2cc94d70f9"><path d="M 62.753906 98 L 141.710938 98 L 141.710938 122.007812 L 62.753906 122.007812 Z M 62.753906 98 " clip-rule="nonzero"/></clipPath></defs><g clip-path="url(#e278a2cd47)"><path fill="#ededed" d="M 209.1875 118.941406 C 208.011719 117.917969 206.695312 117.121094 205.242188 116.550781 C 203.789062 115.980469 202.28125 115.667969 200.714844 115.613281 C 200.804688 115.140625 200.863281 114.664062 200.902344 114.183594 C 200.941406 113.703125 200.953125 113.222656 200.941406 112.738281 C 200.929688 112.257812 200.894531 111.777344 200.832031 111.300781 C 200.769531 110.820312 200.6875 110.347656 200.578125 109.878906 C 200.46875 109.40625 200.332031 108.945312 200.175781 108.488281 C 200.019531 108.03125 199.839844 107.585938 199.636719 107.148438 C 199.433594 106.710938 199.210938 106.28125 198.964844 105.867188 C 198.71875 105.453125 198.449219 105.050781 198.164062 104.660156 C 197.875 104.273438 197.566406 103.898438 197.242188 103.542969 C 196.917969 103.183594 196.574219 102.84375 196.210938 102.523438 C 195.851562 102.199219 195.476562 101.894531 195.082031 101.609375 C 194.691406 101.324219 194.285156 101.058594 193.867188 100.816406 C 193.449219 100.570312 193.015625 100.347656 192.574219 100.148438 C 192.132812 99.945312 191.683594 99.769531 191.222656 99.613281 C 190.761719 99.457031 190.296875 99.324219 189.820312 99.214844 C 189.347656 99.109375 188.871094 99.023438 188.386719 98.964844 C 187.28125 98.824219 186.175781 98.8125 185.066406 98.929688 C 183.960938 99.046875 182.878906 99.289062 181.828125 99.652344 C 180.777344 100.019531 179.785156 100.5 178.84375 101.097656 C 177.90625 101.691406 177.050781 102.386719 176.273438 103.179688 C 175.90625 102.34375 175.46875 101.542969 174.964844 100.78125 C 174.460938 100.019531 173.894531 99.304688 173.265625 98.640625 C 172.636719 97.972656 171.953125 97.367188 171.222656 96.816406 C 170.488281 96.265625 169.714844 95.777344 168.894531 95.359375 C 168.078125 94.941406 167.230469 94.59375 166.355469 94.316406 C 165.480469 94.042969 164.585938 93.839844 163.671875 93.714844 C 162.761719 93.59375 161.847656 93.546875 160.925781 93.574219 C 160.007812 93.605469 159.097656 93.714844 158.195312 93.898438 C 157.296875 94.082031 156.417969 94.34375 155.5625 94.675781 C 154.703125 95.011719 153.882812 95.414062 153.097656 95.886719 C 152.308594 96.359375 151.570312 96.894531 150.875 97.492188 C 150.179688 98.089844 149.542969 98.742188 148.960938 99.449219 C 148.378906 100.15625 147.859375 100.90625 147.410156 101.699219 C 146.957031 102.496094 146.574219 103.320312 146.265625 104.179688 C 145.953125 105.039062 145.71875 105.917969 145.5625 106.816406 C 145.402344 107.714844 145.320312 108.617188 145.320312 109.53125 C 145.308594 109.703125 145.308594 109.875 145.320312 110.046875 C 144.558594 110.25 143.824219 110.511719 143.105469 110.832031 C 142.390625 111.152344 141.707031 111.527344 141.050781 111.960938 C 140.398438 112.390625 139.78125 112.871094 139.207031 113.398438 C 138.628906 113.929688 138.101562 114.503906 137.617188 115.117188 C 137.136719 115.730469 136.707031 116.378906 136.328125 117.0625 C 135.953125 117.746094 135.632812 118.457031 135.375 119.191406 C 135.113281 119.925781 134.914062 120.675781 134.777344 121.445312 C 134.636719 122.210938 134.5625 122.984375 134.550781 123.761719 L 134.550781 123.941406 C 134.582031 125 134.714844 126.042969 134.949219 127.074219 C 135.1875 128.109375 135.519531 129.109375 135.953125 130.074219 C 136.382812 131.042969 136.90625 131.960938 137.519531 132.828125 C 138.132812 133.695312 138.824219 134.496094 139.59375 135.226562 C 140.363281 135.960938 141.195312 136.613281 142.09375 137.1875 C 142.992188 137.757812 143.9375 138.238281 144.929688 138.628906 C 145.921875 139.019531 146.941406 139.3125 147.992188 139.503906 C 149.042969 139.695312 150.101562 139.785156 151.167969 139.773438 L 202.746094 139.773438 C 203.453125 139.773438 204.152344 139.707031 204.84375 139.570312 C 205.539062 139.433594 206.210938 139.230469 206.863281 138.960938 C 207.519531 138.691406 208.136719 138.363281 208.726562 137.976562 C 209.3125 137.585938 209.859375 137.144531 210.359375 136.648438 C 210.859375 136.152344 211.304688 135.613281 211.695312 135.03125 C 212.089844 134.445312 212.421875 133.832031 212.691406 133.183594 C 212.960938 132.535156 213.167969 131.871094 213.304688 131.183594 C 213.441406 130.496094 213.511719 129.800781 213.511719 129.101562 C 213.554688 127.179688 213.199219 125.332031 212.445312 123.5625 C 211.691406 121.792969 210.605469 120.25 209.1875 118.941406 Z M 209.1875 118.941406 " fill-opacity="1" fill-rule="nonzero"/></g><g clip-path="url(#f81b2f5ca7)"><path fill="#ededed" d="M 161.574219 116.375 C 162.75 115.351562 164.066406 114.554688 165.519531 113.984375 C 166.972656 113.414062 168.484375 113.101562 170.046875 113.046875 C 169.960938 112.574219 169.898438 112.097656 169.859375 111.617188 C 169.824219 111.136719 169.808594 110.652344 169.820312 110.171875 C 169.832031 109.691406 169.871094 109.210938 169.929688 108.734375 C 169.992188 108.253906 170.078125 107.78125 170.1875 107.3125 C 170.296875 106.839844 170.429688 106.378906 170.585938 105.921875 C 170.742188 105.464844 170.921875 105.019531 171.125 104.582031 C 171.328125 104.144531 171.550781 103.714844 171.800781 103.300781 C 172.046875 102.886719 172.3125 102.484375 172.601562 102.09375 C 172.886719 101.707031 173.195312 101.332031 173.519531 100.976562 C 173.847656 100.617188 174.191406 100.277344 174.550781 99.953125 C 174.910156 99.632812 175.289062 99.328125 175.679688 99.042969 C 176.070312 98.757812 176.476562 98.492188 176.894531 98.25 C 177.316406 98.003906 177.746094 97.78125 178.1875 97.582031 C 178.628906 97.378906 179.082031 97.203125 179.539062 97.046875 C 180 96.890625 180.46875 96.757812 180.941406 96.648438 C 181.414062 96.542969 181.894531 96.457031 182.375 96.394531 C 183.480469 96.257812 184.585938 96.246094 185.695312 96.363281 C 186.800781 96.480469 187.882812 96.722656 188.933594 97.085938 C 189.984375 97.453125 190.980469 97.933594 191.917969 98.53125 C 192.855469 99.125 193.714844 99.820312 194.488281 100.613281 C 194.855469 99.777344 195.292969 98.976562 195.796875 98.214844 C 196.304688 97.453125 196.871094 96.738281 197.5 96.074219 C 198.128906 95.40625 198.808594 94.800781 199.542969 94.25 C 200.273438 93.699219 201.050781 93.210938 201.867188 92.792969 C 202.683594 92.375 203.53125 92.027344 204.40625 91.75 C 205.285156 91.472656 206.179688 91.273438 207.089844 91.148438 C 208 91.023438 208.917969 90.976562 209.835938 91.007812 C 210.753906 91.039062 211.664062 91.148438 212.566406 91.332031 C 213.46875 91.515625 214.347656 91.777344 215.203125 92.109375 C 216.058594 92.445312 216.878906 92.847656 217.667969 93.320312 C 218.453125 93.792969 219.195312 94.328125 219.886719 94.925781 C 220.582031 95.523438 221.21875 96.175781 221.800781 96.882812 C 222.382812 97.589844 222.902344 98.339844 223.355469 99.132812 C 223.808594 99.929688 224.1875 100.753906 224.5 101.613281 C 224.808594 102.472656 225.042969 103.351562 225.203125 104.25 C 225.359375 105.144531 225.441406 106.050781 225.445312 106.964844 C 225.453125 107.136719 225.453125 107.308594 225.445312 107.480469 C 226.203125 107.683594 226.941406 107.945312 227.65625 108.265625 C 228.371094 108.585938 229.058594 108.960938 229.710938 109.390625 C 230.367188 109.824219 230.980469 110.304688 231.558594 110.832031 C 232.132812 111.363281 232.664062 111.933594 233.144531 112.550781 C 233.628906 113.164062 234.058594 113.8125 234.433594 114.496094 C 234.808594 115.179688 235.128906 115.890625 235.390625 116.625 C 235.648438 117.359375 235.847656 118.109375 235.988281 118.878906 C 236.125 119.644531 236.199219 120.417969 236.210938 121.195312 L 236.210938 121.375 C 236.179688 122.433594 236.046875 123.476562 235.8125 124.507812 C 235.578125 125.542969 235.242188 126.542969 234.8125 127.507812 C 234.378906 128.476562 233.855469 129.394531 233.242188 130.261719 C 232.632812 131.128906 231.941406 131.929688 231.171875 132.660156 C 230.402344 133.394531 229.566406 134.046875 228.667969 134.621094 C 227.769531 135.191406 226.824219 135.671875 225.832031 136.0625 C 224.839844 136.453125 223.820312 136.742188 222.769531 136.9375 C 221.71875 137.128906 220.660156 137.21875 219.59375 137.207031 L 168.019531 137.207031 C 167.3125 137.207031 166.613281 137.140625 165.917969 137.003906 C 165.222656 136.867188 164.550781 136.664062 163.898438 136.394531 C 163.246094 136.125 162.625 135.796875 162.035156 135.40625 C 161.449219 135.019531 160.90625 134.578125 160.40625 134.082031 C 159.90625 133.585938 159.457031 133.046875 159.066406 132.464844 C 158.671875 131.878906 158.339844 131.265625 158.070312 130.617188 C 157.800781 129.96875 157.597656 129.304688 157.457031 128.617188 C 157.320312 127.929688 157.25 127.234375 157.25 126.53125 C 157.210938 124.613281 157.566406 122.765625 158.320312 120.996094 C 159.074219 119.226562 160.15625 117.683594 161.574219 116.375 Z M 161.574219 116.375 " fill-opacity="1" fill-rule="nonzero"/></g><g clip-path="url(#11ca6f109f)"><path fill="#ededed" d="M 189.382812 130.507812 C 190.851562 129.226562 192.496094 128.226562 194.3125 127.507812 C 196.128906 126.792969 198.015625 126.402344 199.96875 126.335938 C 199.863281 125.738281 199.785156 125.140625 199.738281 124.539062 C 199.691406 123.933594 199.675781 123.332031 199.6875 122.726562 C 199.703125 122.121094 199.75 121.519531 199.824219 120.917969 C 199.902344 120.320312 200.007812 119.726562 200.144531 119.136719 C 200.28125 118.546875 200.449219 117.964844 200.644531 117.394531 C 200.839844 116.820312 201.066406 116.261719 201.320312 115.710938 C 201.570312 115.160156 201.851562 114.625 202.160156 114.105469 C 202.46875 113.582031 202.800781 113.078125 203.160156 112.589844 C 203.523438 112.105469 203.90625 111.636719 204.3125 111.1875 C 204.71875 110.738281 205.148438 110.3125 205.601562 109.90625 C 206.050781 109.5 206.519531 109.117188 207.011719 108.761719 C 207.5 108.402344 208.007812 108.070312 208.53125 107.765625 C 209.054688 107.457031 209.59375 107.179688 210.144531 106.925781 C 210.699219 106.675781 211.261719 106.449219 211.835938 106.253906 C 212.414062 106.058594 212.996094 105.894531 213.589844 105.757812 C 214.179688 105.621094 214.777344 105.515625 215.378906 105.441406 C 216.761719 105.265625 218.144531 105.253906 219.53125 105.398438 C 220.914062 105.546875 222.265625 105.847656 223.578125 106.308594 C 224.890625 106.765625 226.136719 107.371094 227.308594 108.117188 C 228.480469 108.863281 229.554688 109.734375 230.523438 110.730469 C 230.980469 109.683594 231.527344 108.679688 232.160156 107.722656 C 232.789062 106.765625 233.5 105.871094 234.285156 105.035156 C 235.070312 104.199219 235.921875 103.4375 236.839844 102.746094 C 237.753906 102.054688 238.722656 101.445312 239.746094 100.917969 C 240.765625 100.394531 241.824219 99.957031 242.921875 99.609375 C 244.015625 99.265625 245.132812 99.011719 246.273438 98.855469 C 247.414062 98.699219 248.558594 98.640625 249.707031 98.679688 C 250.855469 98.71875 251.992188 98.855469 253.121094 99.085938 C 254.246094 99.316406 255.34375 99.644531 256.414062 100.0625 C 257.484375 100.480469 258.511719 100.988281 259.496094 101.582031 C 260.476562 102.171875 261.402344 102.84375 262.273438 103.597656 C 263.140625 104.347656 263.9375 105.164062 264.664062 106.050781 C 265.390625 106.9375 266.039062 107.878906 266.605469 108.875 C 267.171875 109.871094 267.648438 110.910156 268.035156 111.984375 C 268.421875 113.0625 268.714844 114.164062 268.914062 115.292969 C 269.113281 116.421875 269.214844 117.554688 269.21875 118.699219 C 269.226562 118.917969 269.226562 119.132812 269.21875 119.347656 C 270.164062 119.601562 271.085938 119.929688 271.980469 120.332031 C 272.875 120.734375 273.734375 121.207031 274.550781 121.75 C 275.367188 122.289062 276.136719 122.890625 276.859375 123.554688 C 277.578125 124.222656 278.238281 124.9375 278.84375 125.710938 C 279.445312 126.480469 279.984375 127.296875 280.453125 128.152344 C 280.925781 129.011719 281.320312 129.902344 281.648438 130.824219 C 281.972656 131.746094 282.222656 132.6875 282.394531 133.648438 C 282.566406 134.613281 282.660156 135.582031 282.675781 136.558594 L 282.675781 136.78125 C 282.65625 137.445312 282.605469 138.105469 282.523438 138.761719 C 282.441406 139.417969 282.324219 140.070312 282.175781 140.714844 C 282.03125 141.363281 281.851562 142 281.644531 142.628906 C 281.433594 143.257812 281.195312 143.875 280.925781 144.480469 C 280.65625 145.085938 280.359375 145.675781 280.03125 146.253906 C 279.703125 146.832031 279.347656 147.390625 278.964844 147.933594 C 278.585938 148.476562 278.175781 149 277.746094 149.503906 C 277.3125 150.003906 276.855469 150.488281 276.375 150.945312 C 275.894531 151.40625 275.394531 151.839844 274.871094 152.25 C 274.347656 152.660156 273.808594 153.042969 273.25 153.402344 C 272.6875 153.761719 272.113281 154.089844 271.519531 154.394531 C 270.929688 154.695312 270.320312 154.96875 269.703125 155.214844 C 269.085938 155.457031 268.457031 155.671875 267.816406 155.855469 C 267.175781 156.039062 266.527344 156.1875 265.875 156.308594 C 265.21875 156.429688 264.558594 156.519531 263.898438 156.574219 C 263.234375 156.632812 262.570312 156.65625 261.902344 156.648438 L 197.433594 156.648438 C 196.550781 156.648438 195.675781 156.5625 194.808594 156.390625 C 193.941406 156.21875 193.101562 155.964844 192.285156 155.628906 C 191.46875 155.292969 190.691406 154.878906 189.957031 154.390625 C 189.222656 153.902344 188.542969 153.347656 187.917969 152.726562 C 187.292969 152.105469 186.734375 151.429688 186.242188 150.695312 C 185.753906 149.964844 185.339844 149.195312 185 148.382812 C 184.660156 147.570312 184.40625 146.730469 184.234375 145.867188 C 184.0625 145.007812 183.976562 144.136719 183.976562 143.253906 C 183.949219 142.0625 184.050781 140.882812 184.273438 139.710938 C 184.5 138.539062 184.84375 137.40625 185.308594 136.308594 C 185.777344 135.210938 186.351562 134.171875 187.039062 133.195312 C 187.722656 132.21875 188.503906 131.320312 189.382812 130.507812 Z M 189.382812 130.507812 " fill-opacity="1" fill-rule="nonzero"/></g><g clip-path="url(#ca3f22c4c8)"><path fill="#ededed" d="M 178.136719 118.941406 C 176.960938 117.917969 175.648438 117.121094 174.191406 116.550781 C 172.738281 115.980469 171.230469 115.667969 169.667969 115.613281 C 169.753906 115.140625 169.816406 114.664062 169.851562 114.183594 C 169.890625 113.703125 169.902344 113.222656 169.890625 112.738281 C 169.878906 112.257812 169.84375 111.777344 169.78125 111.300781 C 169.722656 110.820312 169.636719 110.347656 169.527344 109.878906 C 169.417969 109.40625 169.285156 108.945312 169.128906 108.488281 C 168.96875 108.03125 168.789062 107.585938 168.585938 107.148438 C 168.386719 106.710938 168.160156 106.28125 167.914062 105.867188 C 167.667969 105.453125 167.402344 105.050781 167.113281 104.660156 C 166.824219 104.273438 166.519531 103.898438 166.191406 103.542969 C 165.867188 103.183594 165.523438 102.84375 165.164062 102.523438 C 164.800781 102.199219 164.425781 101.894531 164.035156 101.609375 C 163.640625 101.324219 163.234375 101.058594 162.816406 100.816406 C 162.398438 100.570312 161.96875 100.347656 161.527344 100.148438 C 161.082031 99.945312 160.632812 99.769531 160.171875 99.613281 C 159.710938 99.457031 159.246094 99.324219 158.773438 99.214844 C 158.296875 99.109375 157.820312 99.023438 157.339844 98.964844 C 156.234375 98.824219 155.125 98.8125 154.019531 98.929688 C 152.910156 99.046875 151.832031 99.289062 150.78125 99.652344 C 149.726562 100.019531 148.734375 100.5 147.796875 101.097656 C 146.855469 101.691406 146 102.386719 145.226562 103.179688 C 144.855469 102.34375 144.421875 101.542969 143.914062 100.78125 C 143.410156 100.019531 142.84375 99.304688 142.214844 98.640625 C 141.585938 97.972656 140.90625 97.367188 140.171875 96.816406 C 139.4375 96.265625 138.664062 95.777344 137.847656 95.359375 C 137.03125 94.941406 136.183594 94.59375 135.304688 94.316406 C 134.429688 94.042969 133.535156 93.839844 132.625 93.714844 C 131.710938 93.59375 130.796875 93.546875 129.878906 93.574219 C 128.957031 93.605469 128.046875 93.714844 127.148438 93.898438 C 126.246094 94.082031 125.367188 94.34375 124.511719 94.675781 C 123.65625 95.011719 122.832031 95.414062 122.046875 95.886719 C 121.261719 96.359375 120.519531 96.894531 119.824219 97.492188 C 119.128906 98.089844 118.492188 98.742188 117.910156 99.449219 C 117.328125 100.15625 116.8125 100.90625 116.359375 101.699219 C 115.90625 102.496094 115.523438 103.320312 115.214844 104.179688 C 114.90625 105.039062 114.671875 105.917969 114.511719 106.816406 C 114.351562 107.714844 114.273438 108.617188 114.269531 109.53125 C 114.257812 109.703125 114.257812 109.875 114.269531 110.046875 C 113.511719 110.25 112.773438 110.511719 112.058594 110.832031 C 111.339844 111.152344 110.65625 111.527344 110 111.960938 C 109.347656 112.390625 108.730469 112.871094 108.15625 113.398438 C 107.578125 113.929688 107.050781 114.503906 106.566406 115.117188 C 106.085938 115.730469 105.65625 116.378906 105.28125 117.0625 C 104.902344 117.746094 104.585938 118.457031 104.324219 119.191406 C 104.0625 119.925781 103.863281 120.675781 103.726562 121.445312 C 103.589844 122.210938 103.511719 122.984375 103.5 123.761719 L 103.5 123.941406 C 103.53125 125 103.664062 126.042969 103.902344 127.074219 C 104.136719 128.109375 104.46875 129.109375 104.902344 130.074219 C 105.335938 131.042969 105.855469 131.960938 106.46875 132.828125 C 107.082031 133.695312 107.773438 134.496094 108.542969 135.226562 C 109.3125 135.960938 110.144531 136.613281 111.042969 137.1875 C 111.941406 137.757812 112.886719 138.238281 113.878906 138.628906 C 114.871094 139.019531 115.894531 139.3125 116.941406 139.503906 C 117.992188 139.695312 119.050781 139.785156 120.121094 139.773438 L 171.695312 139.773438 C 172.402344 139.773438 173.101562 139.707031 173.796875 139.570312 C 174.488281 139.433594 175.160156 139.230469 175.816406 138.960938 C 176.46875 138.691406 177.089844 138.363281 177.675781 137.976562 C 178.265625 137.585938 178.808594 137.144531 179.308594 136.648438 C 179.808594 136.152344 180.253906 135.613281 180.648438 135.03125 C 181.039062 134.445312 181.371094 133.832031 181.640625 133.183594 C 181.914062 132.535156 182.117188 131.871094 182.253906 131.183594 C 182.394531 130.496094 182.460938 129.800781 182.460938 129.101562 C 182.503906 127.179688 182.148438 125.332031 181.394531 123.5625 C 180.640625 121.792969 179.554688 120.25 178.136719 118.941406 Z M 178.136719 118.941406 " fill-opacity="1" fill-rule="nonzero"/></g><g clip-path="url(#a6f7e5ccc7)"><path fill="#ededed" d="M 81.351562 130.5 C 80.035156 129.335938 78.5625 128.429688 76.9375 127.78125 C 75.308594 127.132812 73.621094 126.777344 71.871094 126.71875 C 71.96875 126.179688 72.039062 125.636719 72.078125 125.089844 C 72.121094 124.542969 72.136719 123.996094 72.125 123.449219 C 72.109375 122.898438 72.070312 122.355469 72 121.8125 C 71.933594 121.265625 71.835938 120.726562 71.714844 120.195312 C 71.59375 119.660156 71.445312 119.132812 71.269531 118.613281 C 71.09375 118.097656 70.890625 117.589844 70.664062 117.089844 C 70.4375 116.589844 70.1875 116.105469 69.910156 115.632812 C 69.632812 115.160156 69.335938 114.703125 69.015625 114.261719 C 68.691406 113.820312 68.347656 113.398438 67.984375 112.988281 C 67.621094 112.582031 67.234375 112.195312 66.832031 111.828125 C 66.425781 111.460938 66.007812 111.117188 65.566406 110.792969 C 65.128906 110.46875 64.675781 110.167969 64.207031 109.886719 C 63.738281 109.609375 63.257812 109.355469 62.761719 109.128906 C 62.265625 108.898438 61.761719 108.699219 61.246094 108.519531 C 60.734375 108.34375 60.210938 108.195312 59.679688 108.070312 C 59.148438 107.945312 58.613281 107.851562 58.074219 107.78125 C 56.839844 107.625 55.601562 107.613281 54.359375 107.746094 C 53.121094 107.878906 51.914062 108.152344 50.734375 108.566406 C 49.558594 108.984375 48.445312 109.53125 47.398438 110.207031 C 46.347656 110.886719 45.386719 111.675781 44.519531 112.578125 C 44.109375 111.625 43.621094 110.71875 43.054688 109.851562 C 42.488281 108.984375 41.855469 108.171875 41.152344 107.414062 C 40.449219 106.65625 39.6875 105.964844 38.867188 105.339844 C 38.042969 104.714844 37.175781 104.160156 36.261719 103.683594 C 35.347656 103.207031 34.402344 102.8125 33.421875 102.5 C 32.4375 102.183594 31.4375 101.957031 30.417969 101.816406 C 29.398438 101.675781 28.375 101.621094 27.34375 101.65625 C 26.316406 101.691406 25.296875 101.8125 24.289062 102.023438 C 23.28125 102.234375 22.296875 102.527344 21.339844 102.90625 C 20.382812 103.289062 19.464844 103.746094 18.582031 104.285156 C 17.703125 104.820312 16.875 105.429688 16.097656 106.109375 C 15.320312 106.789062 14.605469 107.53125 13.953125 108.335938 C 13.304688 109.140625 12.722656 109.992188 12.21875 110.894531 C 11.710938 111.796875 11.285156 112.738281 10.9375 113.714844 C 10.589844 114.691406 10.328125 115.691406 10.148438 116.710938 C 9.972656 117.734375 9.882812 118.761719 9.878906 119.800781 C 9.867188 119.996094 9.867188 120.191406 9.878906 120.386719 C 9.03125 120.617188 8.203125 120.914062 7.402344 121.277344 C 6.601562 121.644531 5.835938 122.070312 5.105469 122.5625 C 4.371094 123.050781 3.683594 123.597656 3.039062 124.199219 C 2.394531 124.800781 1.800781 125.453125 1.261719 126.152344 C 0.722656 126.851562 0.242188 127.589844 -0.179688 128.367188 C -0.601562 129.144531 -0.957031 129.949219 -1.25 130.785156 C -1.542969 131.621094 -1.765625 132.476562 -1.917969 133.347656 C -2.074219 134.21875 -2.15625 135.097656 -2.171875 135.984375 L -2.171875 136.1875 C -2.152344 136.785156 -2.109375 137.382812 -2.03125 137.980469 C -1.957031 138.574219 -1.855469 139.164062 -1.722656 139.75 C -1.59375 140.335938 -1.433594 140.914062 -1.246094 141.484375 C -1.058594 142.054688 -0.84375 142.613281 -0.601562 143.164062 C -0.363281 143.710938 -0.09375 144.246094 0.199219 144.769531 C 0.492188 145.292969 0.808594 145.800781 1.152344 146.292969 C 1.492188 146.785156 1.855469 147.257812 2.246094 147.714844 C 2.632812 148.171875 3.039062 148.605469 3.46875 149.023438 C 3.898438 149.4375 4.347656 149.832031 4.816406 150.203125 C 5.285156 150.578125 5.769531 150.925781 6.269531 151.25 C 6.769531 151.574219 7.285156 151.875 7.816406 152.148438 C 8.347656 152.421875 8.890625 152.667969 9.445312 152.890625 C 9.996094 153.113281 10.5625 153.304688 11.132812 153.472656 C 11.707031 153.636719 12.285156 153.773438 12.871094 153.882812 C 13.457031 153.992188 14.046875 154.074219 14.640625 154.125 C 15.234375 154.175781 15.828125 154.199219 16.425781 154.191406 L 74.140625 154.191406 C 74.933594 154.191406 75.714844 154.113281 76.492188 153.957031 C 77.265625 153.800781 78.019531 153.574219 78.75 153.265625 C 79.484375 152.960938 80.175781 152.589844 80.835938 152.144531 C 81.492188 151.703125 82.101562 151.199219 82.660156 150.636719 C 83.21875 150.074219 83.71875 149.460938 84.160156 148.796875 C 84.597656 148.132812 84.96875 147.433594 85.273438 146.699219 C 85.574219 145.960938 85.804688 145.203125 85.957031 144.421875 C 86.113281 143.640625 86.191406 142.851562 86.191406 142.054688 C 86.214844 140.972656 86.125 139.902344 85.921875 138.839844 C 85.722656 137.78125 85.414062 136.75 84.996094 135.757812 C 84.578125 134.761719 84.0625 133.820312 83.449219 132.933594 C 82.835938 132.050781 82.136719 131.238281 81.351562 130.5 Z M 81.351562 130.5 " fill-opacity="1" fill-rule="nonzero"/></g><g clip-path="url(#2cc94d70f9)"><path fill="#ededed" d="M 137.386719 123.699219 C 136.210938 122.679688 134.898438 121.882812 133.441406 121.308594 C 131.988281 120.738281 130.480469 120.425781 128.917969 120.375 C 129.003906 119.898438 129.066406 119.421875 129.101562 118.941406 C 129.140625 118.460938 129.152344 117.980469 129.140625 117.5 C 129.128906 117.015625 129.09375 116.535156 129.03125 116.058594 C 128.972656 115.582031 128.886719 115.105469 128.777344 114.636719 C 128.667969 114.167969 128.535156 113.703125 128.378906 113.25 C 128.21875 112.792969 128.039062 112.34375 127.839844 111.90625 C 127.636719 111.46875 127.410156 111.042969 127.164062 110.628906 C 126.917969 110.210938 126.652344 109.808594 126.363281 109.421875 C 126.074219 109.03125 125.769531 108.660156 125.441406 108.300781 C 125.117188 107.945312 124.773438 107.605469 124.414062 107.28125 C 124.050781 106.957031 123.675781 106.652344 123.285156 106.367188 C 122.890625 106.082031 122.488281 105.820312 122.066406 105.574219 C 121.648438 105.332031 121.21875 105.109375 120.777344 104.90625 C 120.335938 104.707031 119.882812 104.527344 119.421875 104.371094 C 118.964844 104.214844 118.496094 104.085938 118.023438 103.976562 C 117.546875 103.867188 117.070312 103.78125 116.589844 103.722656 C 115.484375 103.582031 114.375 103.574219 113.269531 103.691406 C 112.160156 103.804688 111.082031 104.046875 110.03125 104.414062 C 108.980469 104.78125 107.984375 105.261719 107.046875 105.855469 C 106.105469 106.453125 105.25 107.144531 104.476562 107.9375 C 104.109375 107.101562 103.671875 106.304688 103.164062 105.542969 C 102.660156 104.78125 102.09375 104.066406 101.464844 103.398438 C 100.835938 102.734375 100.15625 102.125 99.421875 101.574219 C 98.6875 101.023438 97.914062 100.539062 97.097656 100.121094 C 96.28125 99.699219 95.433594 99.351562 94.554688 99.078125 C 93.679688 98.800781 92.785156 98.601562 91.875 98.476562 C 90.960938 98.351562 90.046875 98.304688 89.128906 98.335938 C 88.207031 98.367188 87.296875 98.472656 86.398438 98.660156 C 85.496094 98.84375 84.617188 99.101562 83.761719 99.4375 C 82.90625 99.769531 82.082031 100.171875 81.296875 100.644531 C 80.511719 101.117188 79.769531 101.65625 79.074219 102.253906 C 78.382812 102.851562 77.742188 103.503906 77.160156 104.210938 C 76.578125 104.917969 76.0625 105.667969 75.609375 106.460938 C 75.15625 107.253906 74.773438 108.082031 74.464844 108.9375 C 74.15625 109.796875 73.921875 110.675781 73.761719 111.574219 C 73.601562 112.472656 73.523438 113.378906 73.519531 114.289062 C 73.511719 114.460938 73.511719 114.632812 73.519531 114.804688 C 72.761719 115.007812 72.023438 115.269531 71.308594 115.589844 C 70.589844 115.914062 69.90625 116.289062 69.253906 116.71875 C 68.597656 117.148438 67.980469 117.628906 67.40625 118.160156 C 66.832031 118.691406 66.300781 119.261719 65.820312 119.875 C 65.335938 120.492188 64.90625 121.140625 64.53125 121.824219 C 64.152344 122.507812 63.835938 123.21875 63.574219 123.953125 C 63.3125 124.6875 63.113281 125.4375 62.976562 126.203125 C 62.839844 126.972656 62.765625 127.742188 62.753906 128.523438 L 62.753906 128.699219 C 62.78125 129.757812 62.914062 130.804688 63.152344 131.835938 C 63.386719 132.867188 63.71875 133.867188 64.152344 134.835938 C 64.585938 135.804688 65.105469 136.71875 65.71875 137.585938 C 66.332031 138.453125 67.023438 139.253906 67.792969 139.988281 C 68.5625 140.722656 69.394531 141.375 70.292969 141.945312 C 71.191406 142.519531 72.136719 143 73.128906 143.390625 C 74.121094 143.777344 75.144531 144.070312 76.195312 144.261719 C 77.242188 144.457031 78.300781 144.546875 79.371094 144.535156 L 130.945312 144.535156 C 131.652344 144.535156 132.351562 144.464844 133.046875 144.328125 C 133.738281 144.191406 134.414062 143.988281 135.066406 143.722656 C 135.71875 143.453125 136.339844 143.125 136.925781 142.734375 C 137.515625 142.34375 138.058594 141.902344 138.558594 141.40625 C 139.058594 140.910156 139.503906 140.371094 139.898438 139.789062 C 140.289062 139.207031 140.621094 138.589844 140.890625 137.945312 C 141.164062 137.296875 141.367188 136.628906 141.503906 135.941406 C 141.644531 135.253906 141.710938 134.558594 141.710938 133.859375 C 141.753906 131.9375 141.398438 130.09375 140.644531 128.320312 C 139.890625 126.550781 138.804688 125.011719 137.386719 123.699219 Z M 137.386719 123.699219 " fill-opacity="1" fill-rule="nonzero"/></g></svg>