<svg xmlns="http://www.w3.org/2000/svg" xmlns:xlink="http://www.w3.org/1999/xlink" width="1080" zoomAndPan="magnify" viewBox="0 0 810 809.999993" height="1080" preserveAspectRatio="xMidYMid meet" version="1.0"><defs><g/><clipPath id="85af2ebbd4"><path d="M 32.222656 361.628906 L 37 361.628906 L 37 537.296875 L 32.222656 537.296875 Z M 32.222656 361.628906 " clip-rule="nonzero"/></clipPath><clipPath id="cafdf4f716"><path d="M 409 159.152344 L 532.582031 159.152344 L 532.582031 315.296875 L 409 315.296875 Z M 409 159.152344 " clip-rule="nonzero"/></clipPath><clipPath id="42574eee52"><path d="M 277.757812 164 L 395 164 L 395 315.296875 L 277.757812 315.296875 Z M 277.757812 164 " clip-rule="nonzero"/></clipPath></defs><g fill="#80a142" fill-opacity="0.4"><g transform="translate(40.032362, 536.887882)"><g><path d="M 71.328125 -109.578125 L 71.328125 -87.671875 L 32.9375 -87.671875 L 32.9375 -65.875 L 68.40625 -65.875 L 68.40625 -43.96875 L 32.9375 -43.96875 L 32.9375 0 L 7.96875 0 L 7.96875 -109.578125 Z M 71.328125 -109.578125 "/></g></g></g><g fill="#80a142" fill-opacity="0.4"><g transform="translate(110.686935, 536.887882)"><g><path d="M 3.0625 -54.859375 C 3.0625 -70.710938 8.460938 -84.128906 19.265625 -95.109375 C 30.066406 -106.085938 43.082031 -111.578125 58.3125 -111.578125 C 73.632812 -111.578125 86.648438 -106.109375 97.359375 -95.171875 C 108.078125 -84.234375 113.4375 -70.796875 113.4375 -54.859375 C 113.4375 -38.828125 108.164062 -25.34375 97.625 -14.40625 C 87.09375 -3.46875 73.988281 2 58.3125 2 C 42.28125 2 29.0625 -3.421875 18.65625 -14.265625 C 8.257812 -25.117188 3.0625 -38.648438 3.0625 -54.859375 Z M 30.015625 -54.859375 C 30.015625 -49.097656 30.898438 -43.847656 32.671875 -39.109375 C 34.441406 -34.378906 37.539062 -30.375 41.96875 -27.09375 C 46.394531 -23.820312 51.84375 -22.1875 58.3125 -22.1875 C 67.613281 -22.1875 74.628906 -25.375 79.359375 -31.75 C 84.097656 -38.125 86.46875 -45.828125 86.46875 -54.859375 C 86.46875 -63.804688 84.054688 -71.488281 79.234375 -77.90625 C 74.410156 -84.320312 67.4375 -87.53125 58.3125 -87.53125 C 49.28125 -87.53125 42.304688 -84.320312 37.390625 -77.90625 C 32.472656 -71.488281 30.015625 -63.804688 30.015625 -54.859375 Z M 30.015625 -54.859375 "/></g></g></g><g fill="#80a142" fill-opacity="0.4"><g transform="translate(222.512839, 536.887882)"><g><path d="M 7.96875 -109.578125 L 47.15625 -109.578125 C 57.6875 -109.578125 66.273438 -106.765625 72.921875 -101.140625 C 79.566406 -95.523438 82.890625 -87.492188 82.890625 -77.046875 C 82.890625 -68.984375 80.875 -62.226562 76.84375 -56.78125 C 72.8125 -51.332031 67.34375 -47.503906 60.4375 -45.296875 L 98.15625 0 L 66.421875 0 L 32.9375 -43.296875 L 32.9375 0 L 7.96875 0 Z M 32.9375 -60.96875 L 35.859375 -60.96875 C 38.160156 -60.96875 40.109375 -61.007812 41.703125 -61.09375 C 43.296875 -61.1875 45.109375 -61.5 47.140625 -62.03125 C 49.179688 -62.5625 50.820312 -63.3125 52.0625 -64.28125 C 53.300781 -65.257812 54.363281 -66.675781 55.25 -68.53125 C 56.132812 -70.394531 56.578125 -72.65625 56.578125 -75.3125 C 56.578125 -77.96875 56.132812 -80.222656 55.25 -82.078125 C 54.363281 -83.941406 53.300781 -85.359375 52.0625 -86.328125 C 50.820312 -87.304688 49.179688 -88.0625 47.140625 -88.59375 C 45.109375 -89.125 43.296875 -89.429688 41.703125 -89.515625 C 40.109375 -89.609375 38.160156 -89.65625 35.859375 -89.65625 L 32.9375 -89.65625 Z M 32.9375 -60.96875 "/></g></g></g><g fill="#80a142" fill-opacity="0.4"><g transform="translate(312.956228, 536.887882)"><g><path d="M 63.625 -109.578125 L 107.859375 0 L 81.03125 0 L 72.921875 -21.921875 L 31.21875 -21.921875 L 23.109375 0 L -3.71875 0 L 40.515625 -109.578125 Z M 64.421875 -43.828125 L 52.203125 -75.71875 L 51.9375 -75.71875 L 39.71875 -43.828125 Z M 64.421875 -43.828125 "/></g></g></g><g fill="#80a142" fill-opacity="0.4"><g transform="translate(412.430743, 536.887882)"><g><path d="M 107.0625 -61.359375 L 107.0625 -37.59375 C 104.226562 -24.570312 98.03125 -14.71875 88.46875 -8.03125 C 78.90625 -1.34375 68.234375 2 56.453125 2 C 41.660156 2 29.0625 -3.535156 18.65625 -14.609375 C 8.257812 -25.679688 3.0625 -39.050781 3.0625 -54.71875 C 3.0625 -70.664062 8.148438 -84.128906 18.328125 -95.109375 C 28.515625 -106.085938 41.222656 -111.578125 56.453125 -111.578125 C 74.253906 -111.578125 88.332031 -105.332031 98.6875 -92.84375 L 82.359375 -74.921875 C 76.515625 -84.304688 68.363281 -89 57.90625 -89 C 50.207031 -89 43.632812 -85.65625 38.1875 -78.96875 C 32.738281 -72.28125 30.015625 -64.195312 30.015625 -54.71875 C 30.015625 -45.425781 32.738281 -37.476562 38.1875 -30.875 C 43.632812 -24.28125 50.207031 -20.984375 57.90625 -20.984375 C 64.289062 -20.984375 69.847656 -22.910156 74.578125 -26.765625 C 79.316406 -30.617188 81.6875 -35.734375 81.6875 -42.109375 L 56.453125 -42.109375 L 56.453125 -61.359375 Z M 107.0625 -61.359375 "/></g></g></g><g fill="#80a142" fill-opacity="0.4"><g transform="translate(517.881736, 536.887882)"><g><path d="M 70.671875 -109.578125 L 70.671875 -87.671875 L 32.9375 -87.671875 L 32.9375 -65.875 L 69.078125 -65.875 L 69.078125 -43.96875 L 32.9375 -43.96875 L 32.9375 -21.921875 L 70.671875 -21.921875 L 70.671875 0 L 7.96875 0 L 7.96875 -109.578125 Z M 70.671875 -109.578125 "/></g></g></g><g fill="#80a142" fill-opacity="0.4"><g transform="translate(590.262851, 536.887882)"><g><path d="M 7.96875 -109.578125 L 47.15625 -109.578125 C 57.6875 -109.578125 66.273438 -106.765625 72.921875 -101.140625 C 79.566406 -95.523438 82.890625 -87.492188 82.890625 -77.046875 C 82.890625 -68.984375 80.875 -62.226562 76.84375 -56.78125 C 72.8125 -51.332031 67.34375 -47.503906 60.4375 -45.296875 L 98.15625 0 L 66.421875 0 L 32.9375 -43.296875 L 32.9375 0 L 7.96875 0 Z M 32.9375 -60.96875 L 35.859375 -60.96875 C 38.160156 -60.96875 40.109375 -61.007812 41.703125 -61.09375 C 43.296875 -61.1875 45.109375 -61.5 47.140625 -62.03125 C 49.179688 -62.5625 50.820312 -63.3125 52.0625 -64.28125 C 53.300781 -65.257812 54.363281 -66.675781 55.25 -68.53125 C 56.132812 -70.394531 56.578125 -72.65625 56.578125 -75.3125 C 56.578125 -77.96875 56.132812 -80.222656 55.25 -82.078125 C 54.363281 -83.941406 53.300781 -85.359375 52.0625 -86.328125 C 50.820312 -87.304688 49.179688 -88.0625 47.140625 -88.59375 C 45.109375 -89.125 43.296875 -89.429688 41.703125 -89.515625 C 40.109375 -89.609375 38.160156 -89.65625 35.859375 -89.65625 L 32.9375 -89.65625 Z M 32.9375 -60.96875 "/></g></g></g><g fill="#80a142" fill-opacity="0.4"><g transform="translate(680.706258, 536.887882)"><g><path d="M 48.34375 -111.578125 C 54.28125 -111.578125 60.082031 -110.710938 65.75 -108.984375 C 71.414062 -107.253906 75.625 -105.550781 78.375 -103.875 L 82.359375 -101.21875 L 72.265625 -81.296875 C 71.460938 -81.828125 70.351562 -82.507812 68.9375 -83.34375 C 67.519531 -84.1875 64.863281 -85.316406 60.96875 -86.734375 C 57.070312 -88.148438 53.441406 -88.859375 50.078125 -88.859375 C 45.910156 -88.859375 42.695312 -87.972656 40.4375 -86.203125 C 38.1875 -84.429688 37.0625 -82.039062 37.0625 -79.03125 C 37.0625 -77.53125 37.59375 -76.132812 38.65625 -74.84375 C 39.71875 -73.5625 41.53125 -72.191406 44.09375 -70.734375 C 46.664062 -69.273438 48.925781 -68.097656 50.875 -67.203125 C 52.820312 -66.316406 55.832031 -64.988281 59.90625 -63.21875 C 66.988281 -60.207031 73.03125 -56.113281 78.03125 -50.9375 C 83.039062 -45.757812 85.546875 -39.894531 85.546875 -33.34375 C 85.546875 -27.050781 84.414062 -21.554688 82.15625 -16.859375 C 79.894531 -12.171875 76.796875 -8.5 72.859375 -5.84375 C 68.921875 -3.1875 64.554688 -1.21875 59.765625 0.0625 C 54.984375 1.351562 49.804688 2 44.234375 2 C 39.453125 2 34.757812 1.507812 30.15625 0.53125 C 25.550781 -0.445312 21.695312 -1.664062 18.59375 -3.125 C 15.5 -4.582031 12.710938 -6.019531 10.234375 -7.4375 C 7.753906 -8.851562 5.9375 -10.050781 4.78125 -11.03125 L 3.0625 -12.484375 L 15.546875 -33.46875 C 16.609375 -32.582031 18.066406 -31.453125 19.921875 -30.078125 C 21.785156 -28.710938 25.082031 -26.878906 29.8125 -24.578125 C 34.550781 -22.273438 38.738281 -21.125 42.375 -21.125 C 52.90625 -21.125 58.171875 -24.707031 58.171875 -31.875 C 58.171875 -33.382812 57.796875 -34.78125 57.046875 -36.0625 C 56.296875 -37.34375 54.96875 -38.625 53.0625 -39.90625 C 51.15625 -41.195312 49.472656 -42.21875 48.015625 -42.96875 C 46.554688 -43.71875 44.164062 -44.867188 40.84375 -46.421875 C 37.519531 -47.972656 35.0625 -49.144531 33.46875 -49.9375 C 26.832031 -53.21875 21.695312 -57.316406 18.0625 -62.234375 C 14.4375 -67.148438 12.625 -72.441406 12.625 -78.109375 C 12.625 -87.929688 16.253906 -95.960938 23.515625 -102.203125 C 30.773438 -108.453125 39.050781 -111.578125 48.34375 -111.578125 Z M 48.34375 -111.578125 "/></g></g></g><g fill="#234507" fill-opacity="1"><g transform="translate(40.032362, 527.75569)"><g><path d="M 71.328125 -109.578125 L 71.328125 -87.671875 L 32.9375 -87.671875 L 32.9375 -65.875 L 68.40625 -65.875 L 68.40625 -43.96875 L 32.9375 -43.96875 L 32.9375 0 L 7.96875 0 L 7.96875 -109.578125 Z M 71.328125 -109.578125 "/></g></g></g><g fill="#234507" fill-opacity="1"><g transform="translate(110.686935, 527.75569)"><g><path d="M 3.0625 -54.859375 C 3.0625 -70.710938 8.460938 -84.128906 19.265625 -95.109375 C 30.066406 -106.085938 43.082031 -111.578125 58.3125 -111.578125 C 73.632812 -111.578125 86.648438 -106.109375 97.359375 -95.171875 C 108.078125 -84.234375 113.4375 -70.796875 113.4375 -54.859375 C 113.4375 -38.828125 108.164062 -25.34375 97.625 -14.40625 C 87.09375 -3.46875 73.988281 2 58.3125 2 C 42.28125 2 29.0625 -3.421875 18.65625 -14.265625 C 8.257812 -25.117188 3.0625 -38.648438 3.0625 -54.859375 Z M 30.015625 -54.859375 C 30.015625 -49.097656 30.898438 -43.847656 32.671875 -39.109375 C 34.441406 -34.378906 37.539062 -30.375 41.96875 -27.09375 C 46.394531 -23.820312 51.84375 -22.1875 58.3125 -22.1875 C 67.613281 -22.1875 74.628906 -25.375 79.359375 -31.75 C 84.097656 -38.125 86.46875 -45.828125 86.46875 -54.859375 C 86.46875 -63.804688 84.054688 -71.488281 79.234375 -77.90625 C 74.410156 -84.320312 67.4375 -87.53125 58.3125 -87.53125 C 49.28125 -87.53125 42.304688 -84.320312 37.390625 -77.90625 C 32.472656 -71.488281 30.015625 -63.804688 30.015625 -54.859375 Z M 30.015625 -54.859375 "/></g></g></g><g fill="#234507" fill-opacity="1"><g transform="translate(222.512839, 527.75569)"><g><path d="M 7.96875 -109.578125 L 47.15625 -109.578125 C 57.6875 -109.578125 66.273438 -106.765625 72.921875 -101.140625 C 79.566406 -95.523438 82.890625 -87.492188 82.890625 -77.046875 C 82.890625 -68.984375 80.875 -62.226562 76.84375 -56.78125 C 72.8125 -51.332031 67.34375 -47.503906 60.4375 -45.296875 L 98.15625 0 L 66.421875 0 L 32.9375 -43.296875 L 32.9375 0 L 7.96875 0 Z M 32.9375 -60.96875 L 35.859375 -60.96875 C 38.160156 -60.96875 40.109375 -61.007812 41.703125 -61.09375 C 43.296875 -61.1875 45.109375 -61.5 47.140625 -62.03125 C 49.179688 -62.5625 50.820312 -63.3125 52.0625 -64.28125 C 53.300781 -65.257812 54.363281 -66.675781 55.25 -68.53125 C 56.132812 -70.394531 56.578125 -72.65625 56.578125 -75.3125 C 56.578125 -77.96875 56.132812 -80.222656 55.25 -82.078125 C 54.363281 -83.941406 53.300781 -85.359375 52.0625 -86.328125 C 50.820312 -87.304688 49.179688 -88.0625 47.140625 -88.59375 C 45.109375 -89.125 43.296875 -89.429688 41.703125 -89.515625 C 40.109375 -89.609375 38.160156 -89.65625 35.859375 -89.65625 L 32.9375 -89.65625 Z M 32.9375 -60.96875 "/></g></g></g><g fill="#234507" fill-opacity="1"><g transform="translate(312.956228, 527.75569)"><g><path d="M 63.625 -109.578125 L 107.859375 0 L 81.03125 0 L 72.921875 -21.921875 L 31.21875 -21.921875 L 23.109375 0 L -3.71875 0 L 40.515625 -109.578125 Z M 64.421875 -43.828125 L 52.203125 -75.71875 L 51.9375 -75.71875 L 39.71875 -43.828125 Z M 64.421875 -43.828125 "/></g></g></g><g fill="#234507" fill-opacity="1"><g transform="translate(412.430743, 527.75569)"><g><path d="M 107.0625 -61.359375 L 107.0625 -37.59375 C 104.226562 -24.570312 98.03125 -14.71875 88.46875 -8.03125 C 78.90625 -1.34375 68.234375 2 56.453125 2 C 41.660156 2 29.0625 -3.535156 18.65625 -14.609375 C 8.257812 -25.679688 3.0625 -39.050781 3.0625 -54.71875 C 3.0625 -70.664062 8.148438 -84.128906 18.328125 -95.109375 C 28.515625 -106.085938 41.222656 -111.578125 56.453125 -111.578125 C 74.253906 -111.578125 88.332031 -105.332031 98.6875 -92.84375 L 82.359375 -74.921875 C 76.515625 -84.304688 68.363281 -89 57.90625 -89 C 50.207031 -89 43.632812 -85.65625 38.1875 -78.96875 C 32.738281 -72.28125 30.015625 -64.195312 30.015625 -54.71875 C 30.015625 -45.425781 32.738281 -37.476562 38.1875 -30.875 C 43.632812 -24.28125 50.207031 -20.984375 57.90625 -20.984375 C 64.289062 -20.984375 69.847656 -22.910156 74.578125 -26.765625 C 79.316406 -30.617188 81.6875 -35.734375 81.6875 -42.109375 L 56.453125 -42.109375 L 56.453125 -61.359375 Z M 107.0625 -61.359375 "/></g></g></g><g fill="#234507" fill-opacity="1"><g transform="translate(517.881736, 527.75569)"><g><path d="M 70.671875 -109.578125 L 70.671875 -87.671875 L 32.9375 -87.671875 L 32.9375 -65.875 L 69.078125 -65.875 L 69.078125 -43.96875 L 32.9375 -43.96875 L 32.9375 -21.921875 L 70.671875 -21.921875 L 70.671875 0 L 7.96875 0 L 7.96875 -109.578125 Z M 70.671875 -109.578125 "/></g></g></g><g fill="#234507" fill-opacity="1"><g transform="translate(590.262851, 527.75569)"><g><path d="M 7.96875 -109.578125 L 47.15625 -109.578125 C 57.6875 -109.578125 66.273438 -106.765625 72.921875 -101.140625 C 79.566406 -95.523438 82.890625 -87.492188 82.890625 -77.046875 C 82.890625 -68.984375 80.875 -62.226562 76.84375 -56.78125 C 72.8125 -51.332031 67.34375 -47.503906 60.4375 -45.296875 L 98.15625 0 L 66.421875 0 L 32.9375 -43.296875 L 32.9375 0 L 7.96875 0 Z M 32.9375 -60.96875 L 35.859375 -60.96875 C 38.160156 -60.96875 40.109375 -61.007812 41.703125 -61.09375 C 43.296875 -61.1875 45.109375 -61.5 47.140625 -62.03125 C 49.179688 -62.5625 50.820312 -63.3125 52.0625 -64.28125 C 53.300781 -65.257812 54.363281 -66.675781 55.25 -68.53125 C 56.132812 -70.394531 56.578125 -72.65625 56.578125 -75.3125 C 56.578125 -77.96875 56.132812 -80.222656 55.25 -82.078125 C 54.363281 -83.941406 53.300781 -85.359375 52.0625 -86.328125 C 50.820312 -87.304688 49.179688 -88.0625 47.140625 -88.59375 C 45.109375 -89.125 43.296875 -89.429688 41.703125 -89.515625 C 40.109375 -89.609375 38.160156 -89.65625 35.859375 -89.65625 L 32.9375 -89.65625 Z M 32.9375 -60.96875 "/></g></g></g><g fill="#234507" fill-opacity="1"><g transform="translate(680.706258, 527.75569)"><g><path d="M 48.34375 -111.578125 C 54.28125 -111.578125 60.082031 -110.710938 65.75 -108.984375 C 71.414062 -107.253906 75.625 -105.550781 78.375 -103.875 L 82.359375 -101.21875 L 72.265625 -81.296875 C 71.460938 -81.828125 70.351562 -82.507812 68.9375 -83.34375 C 67.519531 -84.1875 64.863281 -85.316406 60.96875 -86.734375 C 57.070312 -88.148438 53.441406 -88.859375 50.078125 -88.859375 C 45.910156 -88.859375 42.695312 -87.972656 40.4375 -86.203125 C 38.1875 -84.429688 37.0625 -82.039062 37.0625 -79.03125 C 37.0625 -77.53125 37.59375 -76.132812 38.65625 -74.84375 C 39.71875 -73.5625 41.53125 -72.191406 44.09375 -70.734375 C 46.664062 -69.273438 48.925781 -68.097656 50.875 -67.203125 C 52.820312 -66.316406 55.832031 -64.988281 59.90625 -63.21875 C 66.988281 -60.207031 73.03125 -56.113281 78.03125 -50.9375 C 83.039062 -45.757812 85.546875 -39.894531 85.546875 -33.34375 C 85.546875 -27.050781 84.414062 -21.554688 82.15625 -16.859375 C 79.894531 -12.171875 76.796875 -8.5 72.859375 -5.84375 C 68.921875 -3.1875 64.554688 -1.21875 59.765625 0.0625 C 54.984375 1.351562 49.804688 2 44.234375 2 C 39.453125 2 34.757812 1.507812 30.15625 0.53125 C 25.550781 -0.445312 21.695312 -1.664062 18.59375 -3.125 C 15.5 -4.582031 12.710938 -6.019531 10.234375 -7.4375 C 7.753906 -8.851562 5.9375 -10.050781 4.78125 -11.03125 L 3.0625 -12.484375 L 15.546875 -33.46875 C 16.609375 -32.582031 18.066406 -31.453125 19.921875 -30.078125 C 21.785156 -28.710938 25.082031 -26.878906 29.8125 -24.578125 C 34.550781 -22.273438 38.738281 -21.125 42.375 -21.125 C 52.90625 -21.125 58.171875 -24.707031 58.171875 -31.875 C 58.171875 -33.382812 57.796875 -34.78125 57.046875 -36.0625 C 56.296875 -37.34375 54.96875 -38.625 53.0625 -39.90625 C 51.15625 -41.195312 49.472656 -42.21875 48.015625 -42.96875 C 46.554688 -43.71875 44.164062 -44.867188 40.84375 -46.421875 C 37.519531 -47.972656 35.0625 -49.144531 33.46875 -49.9375 C 26.832031 -53.21875 21.695312 -57.316406 18.0625 -62.234375 C 14.4375 -67.148438 12.625 -72.441406 12.625 -78.109375 C 12.625 -87.929688 16.253906 -95.960938 23.515625 -102.203125 C 30.773438 -108.453125 39.050781 -111.578125 48.34375 -111.578125 Z M 48.34375 -111.578125 "/></g></g></g><g clip-path="url(#85af2ebbd4)"><path stroke-linecap="round" transform="matrix(0.395663, 0, 0, 0.395908, -87.821433, 326.634114)" fill="none" stroke-linejoin="miter" d="M 308.424709 611.999657 L 308.424709 93.423163 " stroke="#000000" stroke-width="10" stroke-opacity="1" stroke-miterlimit="10"/></g><path fill="#ed1c24" d="M 36.265625 363.617188 C 36.265625 363.617188 36.265625 375.1875 89.015625 374.464844 C 141.765625 373.742188 138.878906 382.417969 138.878906 382.417969 C 138.878906 382.417969 119.484375 378.804688 93.410156 393.988281 C 67.335938 409.171875 36.261719 404.835938 36.261719 404.835938 " fill-opacity="1" fill-rule="nonzero"/><g clip-path="url(#cafdf4f716)"><path fill="#010101" d="M 490.519531 162.476562 C 489.296875 161.617188 490.570312 159.234375 491.890625 160.144531 C 498.65625 164.707031 504.453125 170.6875 508.726562 177.628906 C 512.085938 183.101562 514.527344 189.082031 516.355469 195.164062 C 517.222656 197.847656 517.882812 200.636719 518.949219 203.273438 C 519.359375 204.132812 519.816406 205.148438 520.730469 205.550781 C 521.953125 205.957031 523.019531 204.996094 523.628906 204.03125 C 525.105469 201.800781 525.714844 199.167969 526.324219 196.582031 C 527.75 189.640625 528.207031 182.546875 528.410156 175.449219 C 528.460938 174.945312 528.5625 174.488281 528.664062 173.980469 C 529.175781 173.980469 529.683594 173.980469 530.191406 173.980469 C 532.582031 181.277344 532.582031 189.132812 531.566406 196.683594 C 530.546875 203.980469 528.410156 211.125 525.15625 217.714844 C 526.425781 224.605469 526.9375 231.75 525.511719 238.644531 C 524.035156 246.246094 520.222656 253.289062 514.882812 258.863281 C 509.488281 264.539062 502.828125 268.898438 495.757812 272.242188 C 488.636719 275.6875 481.007812 277.867188 473.53125 280.402344 C 459.746094 285.011719 445.707031 289.777344 433.90625 298.492188 C 428.109375 302.851562 422.972656 308.324219 419.871094 314.859375 L 419.566406 315.0625 C 416.359375 315.113281 413.207031 315.214844 410.003906 315.113281 C 409.75 312.835938 410.765625 310.707031 411.527344 308.628906 C 414.070312 302.75 417.226562 297.175781 420.886719 291.90625 C 422.71875 289.371094 424.703125 286.835938 427.195312 284.960938 C 429.789062 282.933594 431.773438 280.199219 433.09375 277.15625 C 435.230469 272.089844 435.941406 266.617188 437.367188 261.296875 C 437.976562 259.066406 438.128906 256.683594 437.773438 254.351562 C 437.164062 250.503906 435.382812 246.953125 433.957031 243.355469 C 433.449219 242.089844 432.839844 240.773438 432.890625 239.402344 C 433.398438 239.503906 433.855469 239.707031 434.164062 240.164062 C 437.0625 243.609375 440.316406 247.003906 441.691406 251.414062 C 443.570312 257.496094 442.453125 264.082031 440.570312 270.0625 C 439.707031 273.105469 438.433594 276.246094 438.890625 279.4375 C 439.046875 280.855469 440.570312 281.515625 441.894531 281.261719 C 446.113281 280.757812 449.828125 278.324219 453.898438 277.308594 C 456.390625 276.753906 458.167969 274.675781 459.492188 272.648438 C 462.289062 268.238281 463.714844 263.121094 464.78125 258.003906 C 466.054688 252.476562 464.476562 246.851562 462.796875 241.582031 C 459.136719 231.195312 453.796875 221.464844 447.4375 212.496094 C 446.980469 212.089844 447.234375 211.53125 447.4375 211.023438 C 450.4375 213.152344 452.777344 216.042969 455.167969 218.828125 C 458.371094 222.832031 461.578125 226.9375 463.714844 231.601562 C 464.679688 234.996094 465.339844 238.59375 467.527344 241.480469 C 468.136719 242.242188 469.054688 243.050781 470.121094 242.800781 C 471.140625 242.445312 471.800781 241.480469 472.359375 240.570312 C 473.632812 238.339844 474.292969 235.855469 475.003906 233.425781 C 477.394531 224.453125 477.34375 215.027344 475.667969 205.957031 C 474.140625 197.847656 471.445312 189.894531 467.527344 182.644531 C 467.121094 181.785156 466.410156 180.921875 466.765625 179.960938 C 467.273438 180.164062 467.78125 180.316406 468.136719 180.722656 C 473.429688 185.890625 476.53125 192.832031 478.414062 199.875 C 480.601562 208.238281 481.261719 216.953125 481.007812 225.570312 C 480.5 237.933594 476.175781 249.742188 470.9375 260.890625 C 469.410156 264.386719 467.476562 267.730469 466.5625 271.429688 C 466.460938 272.191406 466.207031 273.558594 467.273438 273.761719 C 469.207031 273.964844 471.089844 273.304688 472.867188 272.648438 C 477.191406 270.925781 481.210938 268.542969 485.125 266.109375 C 486.90625 265.046875 488.332031 263.425781 489.09375 261.5 C 490.007812 259.320312 489.855469 256.9375 490.058594 254.65625 C 490.417969 246.851562 490.773438 239 490.316406 231.144531 C 490.265625 229.269531 489.804688 227.445312 489.804688 225.570312 C 490.058594 225.621094 490.671875 225.722656 490.925781 225.773438 C 491.941406 227.597656 492.605469 229.574219 493.164062 231.550781 C 495.097656 238.1875 495.859375 245.179688 495.503906 252.074219 C 495.453125 253.695312 495.351562 255.316406 495.65625 256.9375 C 495.808594 257.597656 495.960938 258.40625 496.671875 258.660156 C 498.300781 258.253906 498.960938 256.480469 499.722656 255.164062 C 504.097656 246.550781 504.300781 236.617188 503.082031 227.242188 C 502.011719 218.777344 499.113281 210.621094 495.402344 202.917969 C 493.519531 198.761719 491.128906 194.808594 489.703125 190.5 C 491.839844 190.90625 493.214844 192.78125 494.585938 194.300781 C 499.316406 200.179688 502.777344 206.921875 505.929688 213.761719 C 509.03125 220.25 511.167969 227.292969 511.421875 234.539062 C 511.675781 237.984375 511.21875 241.429688 511.015625 244.828125 C 510.964844 245.382812 510.964844 246.652344 511.878906 246.398438 C 515.035156 245.789062 516.457031 242.445312 516.96875 239.65625 C 518.035156 233.273438 517.070312 226.734375 515.949219 220.449219 C 514.015625 210.164062 510.863281 200.128906 507.152344 190.347656 C 503.386719 180.367188 498.25 170.382812 490.519531 162.476562 Z M 490.519531 162.476562 " fill-opacity="1" fill-rule="nonzero"/></g><g clip-path="url(#42574eee52)"><path fill="#010101" d="M 315.652344 164.910156 C 316.3125 164.351562 317.230469 165.011719 317.382812 165.769531 C 317.636719 166.835938 316.566406 167.542969 316.007812 168.304688 C 306.75 178.644531 302.019531 191.972656 297.953125 204.945312 C 295.253906 213.761719 293.121094 222.78125 292.253906 232.003906 C 291.949219 236.363281 291.746094 240.875 293.171875 245.078125 C 293.882812 247.207031 295.5625 249.183594 297.953125 249.335938 C 298.410156 247.5625 298.003906 245.789062 297.902344 244.015625 C 297.390625 238.644531 297.800781 233.171875 299.070312 227.902344 C 300.34375 222.476562 302.683594 217.410156 305.019531 212.394531 C 307.464844 207.324219 310.109375 202.359375 313.617188 197.949219 C 314.789062 196.632812 315.957031 195.0625 317.789062 194.65625 C 317.175781 197.039062 316.007812 199.269531 315.042969 201.546875 C 312.449219 207.074219 309.90625 212.648438 308.125 218.523438 C 305.683594 226.582031 304.664062 235.046875 305.226562 243.40625 C 305.480469 247.917969 306.648438 252.328125 308.429688 256.429688 C 309.140625 257.953125 309.851562 259.523438 311.074219 260.636719 C 311.582031 261.195312 312.5 260.839844 312.601562 260.128906 C 313.414062 257.292969 312.753906 254.351562 312.804688 251.464844 C 312.855469 244.371094 313.769531 237.175781 316.3125 230.535156 C 316.667969 229.726562 316.972656 228.40625 318.144531 228.8125 C 317.023438 239.152344 317.738281 249.589844 318.347656 259.980469 C 318.449219 263.070312 319.875 266.210938 322.570312 267.882812 C 326.179688 270.214844 329.945312 272.394531 333.910156 274.117188 C 335.945312 274.929688 338.183594 275.789062 340.421875 275.332031 C 340.980469 273.003906 339.761719 270.824219 338.945312 268.746094 C 334.421875 258.964844 329.792969 249.082031 327.757812 238.390625 C 325.925781 229.574219 326.230469 220.449219 327.300781 211.53125 C 328.570312 202.257812 331.316406 192.679688 337.726562 185.535156 C 338.335938 185.027344 339.203125 183.457031 339.8125 184.824219 C 338.84375 187.054688 337.625 189.132812 336.761719 191.363281 C 331.570312 203.625 329.078125 217.308594 331.0625 230.585938 C 331.773438 234.742188 332.691406 238.949219 334.574219 242.800781 C 335.234375 243.964844 336.148438 245.636719 337.726562 245.332031 C 339.507812 244.574219 340.269531 242.546875 340.980469 240.925781 C 342.203125 238.238281 342.203125 235.148438 343.675781 232.511719 C 346.117188 227.902344 349.273438 223.644531 352.628906 219.640625 C 354.308594 217.765625 355.933594 215.738281 358.019531 214.269531 C 358.121094 214.472656 358.324219 214.925781 358.425781 215.128906 C 354.613281 220.601562 351.308594 226.480469 348.457031 232.511719 C 346.015625 237.730469 343.878906 243.101562 342.558594 248.726562 C 341.746094 252.226562 341.234375 255.925781 342 259.472656 C 342.964844 264.285156 344.289062 269.101562 346.730469 273.40625 C 348.050781 275.636719 349.832031 278.070312 352.527344 278.679688 C 356.34375 279.640625 359.75 281.820312 363.667969 282.378906 C 364.835938 282.582031 366.363281 282.125 366.617188 280.804688 C 367.074219 277.613281 365.800781 274.472656 364.988281 271.429688 C 363.105469 265.402344 361.9375 258.710938 364.074219 252.578125 C 365.394531 248.628906 368.292969 245.484375 370.839844 242.292969 C 371.144531 241.988281 371.5 241.683594 371.90625 241.53125 C 372.109375 242.648438 371.652344 243.761719 371.296875 244.777344 C 369.921875 248.527344 368.140625 252.125 367.53125 256.078125 C 367.175781 258.355469 367.378906 260.738281 367.988281 263.019531 C 369.261719 267.730469 369.972656 272.597656 371.652344 277.207031 C 372.820312 280.402344 374.703125 283.441406 377.398438 285.570312 C 380.65625 288.054688 382.996094 291.449219 385.230469 294.792969 C 388.234375 299.507812 390.929688 304.421875 393.015625 309.640625 C 393.675781 311.363281 394.386719 313.136719 394.132812 314.960938 C 391.691406 315.113281 389.300781 315.0625 386.859375 315.0625 C 384.417969 308.679688 378.570312 304.320312 372.617188 301.433594 C 356.699219 294.742188 342.40625 284.757812 326.027344 279.082031 C 317.890625 276.398438 309.800781 273.15625 302.734375 268.1875 C 295 262.867188 288.59375 255.265625 285.796875 246.246094 C 283.152344 238.136719 283.507812 229.472656 284.929688 221.210938 C 280.863281 212.800781 278.574219 203.574219 278.113281 194.300781 C 277.757812 189.386719 278.0625 184.371094 279.4375 179.554688 C 279.539062 179.046875 280.046875 178.796875 280.453125 178.441406 C 280.863281 178.847656 281.472656 179.199219 281.421875 179.910156 C 281.625 186.648438 282.082031 193.339844 283.40625 199.976562 C 283.914062 202.359375 284.472656 204.84375 285.59375 207.023438 C 286.152344 208.035156 286.863281 209.199219 288.136719 209.402344 C 289.152344 209.554688 289.761719 208.59375 290.167969 207.832031 C 291.035156 206.007812 291.542969 203.980469 292.101562 202.054688 C 293.578125 196.582031 295.308594 191.160156 297.800781 186.042969 C 301.867188 177.679688 308.023438 170.28125 315.652344 164.910156 Z M 315.652344 164.910156 " fill-opacity="1" fill-rule="nonzero"/></g><g fill="#234507" fill-opacity="1"><g transform="translate(339.995184, 383.380582)"><g><path d="M 17.640625 -10.515625 L 17.46875 -9.828125 C 17.46875 -9.691406 17.523438 -9.566406 17.640625 -9.453125 C 17.765625 -9.347656 17.914062 -9.296875 18.09375 -9.296875 C 18.269531 -9.296875 18.414062 -9.382812 18.53125 -9.5625 C 21.8125 -13.925781 24.53125 -17.769531 26.6875 -21.09375 C 28.851562 -24.414062 30.4375 -26.859375 31.4375 -28.421875 C 32.445312 -29.984375 33.25 -31.226562 33.84375 -32.15625 C 35.4375 -34.582031 37.015625 -36.757812 38.578125 -38.6875 C 32.617188 -37.1875 27.953125 -36.4375 24.578125 -36.4375 C 21.203125 -36.4375 18.773438 -36.648438 17.296875 -37.078125 C 15.828125 -37.503906 14.859375 -37.988281 14.390625 -38.53125 C 13.929688 -39.070312 13.703125 -39.625 13.703125 -40.1875 C 13.703125 -40.75 13.722656 -41.296875 13.765625 -41.828125 C 13.847656 -42.929688 14.515625 -43.832031 15.765625 -44.53125 C 17.015625 -45.238281 18.046875 -45.59375 18.859375 -45.59375 C 19.671875 -45.59375 20.078125 -45.472656 20.078125 -45.234375 C 20.078125 -44.992188 19.894531 -44.664062 19.53125 -44.25 C 19.175781 -43.84375 19 -43.5625 19 -43.40625 C 19 -42.707031 21.546875 -42.359375 26.640625 -42.359375 C 31.734375 -42.359375 37.585938 -43.03125 44.203125 -44.375 C 47.992188 -47.457031 51.269531 -49 54.03125 -49 C 55.863281 -49 57.078125 -48.484375 57.671875 -47.453125 C 58.066406 -46.828125 58.265625 -46.207031 58.265625 -45.59375 C 58.265625 -44.976562 57.90625 -44.359375 57.1875 -43.734375 C 56.476562 -43.117188 55.515625 -42.59375 54.296875 -42.15625 C 52.085938 -41.363281 49.484375 -40.734375 46.484375 -40.265625 C 45.234375 -38.660156 43.453125 -36.15625 41.140625 -32.75 C 38.835938 -29.351562 37.265625 -27.0625 36.421875 -25.875 C 35.585938 -24.6875 34.238281 -22.566406 32.375 -19.515625 C 30.507812 -16.472656 28.894531 -13.84375 27.53125 -11.625 C 26.164062 -9.414062 24.707031 -7.226562 23.15625 -5.0625 C 20.007812 -0.601562 17.195312 1.625 14.71875 1.625 C 13.6875 1.625 12.796875 1.347656 12.046875 0.796875 C 11.296875 0.242188 10.921875 -0.648438 10.921875 -1.890625 C 10.921875 -3.140625 11.609375 -4.695312 12.984375 -6.5625 C 14.367188 -8.425781 15.378906 -9.625 16.015625 -10.15625 C 16.648438 -10.6875 17.078125 -10.953125 17.296875 -10.953125 C 17.523438 -10.953125 17.640625 -10.804688 17.640625 -10.515625 Z M 17.640625 -10.515625 "/></g></g></g><g fill="#234507" fill-opacity="1"><g transform="translate(378.40493, 383.380582)"><g><path d="M 64.5625 -47.21875 L 64.984375 -47.21875 C 65.117188 -47.21875 65.203125 -47.207031 65.234375 -47.1875 C 65.265625 -47.164062 65.304688 -47.148438 65.359375 -47.140625 C 65.421875 -47.128906 65.472656 -47.097656 65.515625 -47.046875 C 65.628906 -46.960938 65.785156 -46.863281 65.984375 -46.75 C 66.242188 -46.550781 66.375 -46.316406 66.375 -46.046875 C 66.375 -45.785156 66.113281 -45.242188 65.59375 -44.421875 C 65.082031 -43.597656 63.753906 -41.539062 61.609375 -38.25 C 56.671875 -30.6875 52.25 -23.671875 48.34375 -17.203125 C 41.59375 -5.972656 38.179688 -0.328125 38.109375 -0.265625 C 38.046875 -0.203125 38.003906 -0.132812 37.984375 -0.0625 C 37.960938 0.0625 37.875 0.125 37.71875 0.125 L 37.265625 0.03125 L 36.359375 0.265625 L 35.828125 0.171875 L 35.265625 0.265625 L 35.078125 0.265625 L 33.21875 0.53125 C 32.113281 0.53125 31.5625 0.15625 31.5625 -0.59375 C 31.5625 -0.90625 31.660156 -1.289062 31.859375 -1.75 C 32.546875 -3.363281 35.988281 -9.222656 42.1875 -19.328125 C 38.101562 -19.210938 34.078125 -19.15625 30.109375 -19.15625 L 23 -19.1875 C 21.832031 -17.3125 20.234375 -14.65625 18.203125 -11.21875 C 13.804688 -3.71875 11.460938 0.0664062 11.171875 0.140625 C 10.890625 0.222656 10.660156 0.265625 10.484375 0.265625 C 10.304688 0.265625 10.140625 0.160156 9.984375 -0.046875 C 9.835938 -0.253906 9.734375 -0.359375 9.671875 -0.359375 C 9.617188 -0.359375 9.503906 -0.3125 9.328125 -0.21875 C 9.148438 -0.132812 8.894531 -0.09375 8.5625 -0.09375 L 7.8125 -0.125 L 7.515625 -0.328125 C 7.492188 -0.328125 7.460938 -0.289062 7.421875 -0.21875 C 7.390625 -0.15625 7.3125 -0.125 7.1875 -0.125 C 6.226562 -0.125 5.75 -0.523438 5.75 -1.328125 C 5.75 -1.859375 5.9375 -2.550781 6.3125 -3.40625 C 6.6875 -4.269531 7.175781 -5.207031 7.78125 -6.21875 C 8.394531 -7.238281 9.960938 -9.640625 12.484375 -13.421875 C 15.015625 -17.203125 16.28125 -19.101562 16.28125 -19.125 C 15.863281 -19.144531 15.378906 -19.164062 14.828125 -19.1875 C 13.703125 -19.1875 12.90625 -19.234375 12.4375 -19.328125 C 11.1875 -19.546875 10.328125 -20.582031 9.859375 -22.4375 C 9.617188 -23.34375 9.507812 -23.9375 9.53125 -24.21875 C 9.53125 -24.8125 9.785156 -25.109375 10.296875 -25.109375 L 11.15625 -24.875 C 11.59375 -24.851562 12.648438 -24.796875 14.328125 -24.703125 C 16.003906 -24.617188 17.207031 -24.578125 17.9375 -24.578125 L 19.8125 -24.65625 C 22.6875 -29.15625 26.117188 -34.238281 30.109375 -39.90625 C 27.203125 -37.519531 23.972656 -36.328125 20.421875 -36.328125 C 18.742188 -36.328125 17.296875 -36.726562 16.078125 -37.53125 C 14.867188 -38.34375 14.265625 -39.363281 14.265625 -40.59375 C 14.265625 -41.832031 14.726562 -42.8125 15.65625 -43.53125 C 16.582031 -44.25 17.460938 -44.609375 18.296875 -44.609375 C 19.140625 -44.609375 19.5625 -44.472656 19.5625 -44.203125 C 19.5625 -44.117188 19.441406 -44.019531 19.203125 -43.90625 C 18.972656 -43.800781 18.859375 -43.691406 18.859375 -43.578125 C 18.859375 -43.222656 19.242188 -42.90625 20.015625 -42.625 C 20.785156 -42.351562 21.648438 -42.21875 22.609375 -42.21875 C 23.578125 -42.21875 24.765625 -42.5 26.171875 -43.0625 C 27.585938 -43.625 29.054688 -44.347656 30.578125 -45.234375 C 32.691406 -46.460938 34.367188 -47.488281 35.609375 -48.3125 C 36.304688 -48.664062 36.960938 -48.84375 37.578125 -48.84375 C 38.203125 -48.84375 38.648438 -48.769531 38.921875 -48.625 C 39.203125 -48.476562 39.40625 -48.332031 39.53125 -48.1875 C 39.664062 -48.050781 39.8125 -47.863281 39.96875 -47.625 C 40.125 -47.394531 40.273438 -47.21875 40.421875 -47.09375 C 40.566406 -46.976562 40.640625 -46.84375 40.640625 -46.6875 C 40.640625 -46.53125 40.554688 -46.285156 40.390625 -45.953125 C 40.222656 -45.628906 39.378906 -44.289062 37.859375 -41.9375 C 36.335938 -39.59375 34.378906 -36.59375 31.984375 -32.9375 C 29.585938 -29.289062 27.835938 -26.601562 26.734375 -24.875 C 32.628906 -24.875 38.992188 -24.988281 45.828125 -25.21875 C 54.140625 -38.34375 58.523438 -45.222656 58.984375 -45.859375 C 59.453125 -46.503906 59.875 -46.925781 60.25 -47.125 C 60.625 -47.320312 61.085938 -47.421875 61.640625 -47.421875 Z M 64.5625 -47.21875 "/></g></g></g><g fill="#234507" fill-opacity="1"><g transform="translate(429.22091, 383.380582)"><g><path d="M 19.09375 -32.359375 C 19.09375 -30.921875 21.597656 -30.203125 26.609375 -30.203125 C 27.835938 -30.203125 28.75 -30.335938 29.34375 -30.609375 C 30.914062 -31.359375 32.84375 -31.734375 35.125 -31.734375 C 37.40625 -31.734375 38.546875 -31.148438 38.546875 -29.984375 C 38.546875 -29.515625 38.351562 -28.832031 37.96875 -27.9375 C 37.582031 -27.050781 37.296875 -26.503906 37.109375 -26.296875 C 36.921875 -26.097656 36.207031 -25.828125 34.96875 -25.484375 C 33.738281 -25.148438 32.941406 -24.960938 32.578125 -24.921875 C 32.210938 -24.890625 31.96875 -24.863281 31.84375 -24.84375 C 31.726562 -24.820312 31.585938 -24.800781 31.421875 -24.78125 C 31.253906 -24.757812 30.882812 -24.695312 30.3125 -24.59375 C 29.738281 -24.5 29.316406 -24.507812 29.046875 -24.625 C 21.742188 -21.019531 16.726562 -17.066406 14 -12.765625 C 12.757812 -10.828125 12.140625 -9.164062 12.140625 -7.78125 C 12.140625 -5.59375 13.648438 -4.5 16.671875 -4.5 C 19.035156 -4.5 22.035156 -5.425781 25.671875 -7.28125 C 29.316406 -9.132812 32.546875 -11.378906 35.359375 -14.015625 C 38.171875 -16.648438 39.578125 -18.9375 39.578125 -20.875 C 39.578125 -21.5 40.039062 -21.8125 40.96875 -21.8125 C 43.101562 -21.8125 44.171875 -20.539062 44.171875 -18 C 44.171875 -16.8125 43.648438 -15.394531 42.609375 -13.75 C 41.578125 -12.101562 40.132812 -10.4375 38.28125 -8.75 C 36.425781 -7.0625 34.363281 -5.488281 32.09375 -4.03125 C 29.820312 -2.582031 27.300781 -1.394531 24.53125 -0.46875 C 21.757812 0.457031 19.414062 0.921875 17.5 0.921875 C 15.582031 0.921875 14.03125 0.738281 12.84375 0.375 C 11.664062 0.0078125 10.5625 -0.53125 9.53125 -1.25 C 7.28125 -2.820312 6.15625 -5.195312 6.15625 -8.375 C 6.15625 -10.09375 6.617188 -11.835938 7.546875 -13.609375 C 8.472656 -15.390625 9.6875 -17.007812 11.1875 -18.46875 C 13.9375 -21.195312 16.890625 -23.46875 20.046875 -25.28125 C 15.503906 -26.3125 13.234375 -28.648438 13.234375 -32.296875 C 13.234375 -36.398438 16.390625 -40.148438 22.703125 -43.546875 C 26.203125 -45.421875 30.003906 -46.765625 34.109375 -47.578125 C 36.054688 -47.972656 37.679688 -48.171875 38.984375 -48.171875 C 41.628906 -48.171875 43.625 -47.960938 44.96875 -47.546875 C 45.78125 -47.148438 46.441406 -46.59375 46.953125 -45.875 C 47.460938 -45.15625 47.71875 -44.535156 47.71875 -44.015625 C 47.71875 -43.503906 47.648438 -43.035156 47.515625 -42.609375 C 47.378906 -42.191406 47.160156 -41.863281 46.859375 -41.625 C 46.410156 -41.289062 45.910156 -41.035156 45.359375 -40.859375 C 44.804688 -40.679688 44.488281 -40.570312 44.40625 -40.53125 C 42.6875 -39.800781 41.207031 -39.4375 39.96875 -39.4375 C 37.757812 -39.4375 36.554688 -39.722656 36.359375 -40.296875 C 36.410156 -40.867188 36.65625 -41.53125 37.09375 -42.28125 C 35 -42.195312 32.828125 -41.773438 30.578125 -41.015625 C 28.328125 -40.253906 26.378906 -39.359375 24.734375 -38.328125 C 23.085938 -37.304688 21.734375 -36.242188 20.671875 -35.140625 C 19.617188 -34.035156 19.09375 -33.109375 19.09375 -32.359375 Z M 19.09375 -32.359375 "/></g></g></g><g fill="#234507" fill-opacity="1"><g transform="translate(234.643333, 632.862218)"><g><path d="M 17.640625 -10.515625 L 17.46875 -9.828125 C 17.46875 -9.691406 17.523438 -9.566406 17.640625 -9.453125 C 17.765625 -9.347656 17.914062 -9.296875 18.09375 -9.296875 C 18.269531 -9.296875 18.414062 -9.382812 18.53125 -9.5625 C 21.8125 -13.925781 24.53125 -17.769531 26.6875 -21.09375 C 28.851562 -24.414062 30.4375 -26.859375 31.4375 -28.421875 C 32.445312 -29.984375 33.25 -31.226562 33.84375 -32.15625 C 35.4375 -34.582031 37.015625 -36.757812 38.578125 -38.6875 C 32.617188 -37.1875 27.953125 -36.4375 24.578125 -36.4375 C 21.203125 -36.4375 18.773438 -36.648438 17.296875 -37.078125 C 15.828125 -37.503906 14.859375 -37.988281 14.390625 -38.53125 C 13.929688 -39.070312 13.703125 -39.625 13.703125 -40.1875 C 13.703125 -40.75 13.722656 -41.296875 13.765625 -41.828125 C 13.847656 -42.929688 14.515625 -43.832031 15.765625 -44.53125 C 17.015625 -45.238281 18.046875 -45.59375 18.859375 -45.59375 C 19.671875 -45.59375 20.078125 -45.472656 20.078125 -45.234375 C 20.078125 -44.992188 19.894531 -44.664062 19.53125 -44.25 C 19.175781 -43.84375 19 -43.5625 19 -43.40625 C 19 -42.707031 21.546875 -42.359375 26.640625 -42.359375 C 31.734375 -42.359375 37.585938 -43.03125 44.203125 -44.375 C 47.992188 -47.457031 51.269531 -49 54.03125 -49 C 55.863281 -49 57.078125 -48.484375 57.671875 -47.453125 C 58.066406 -46.828125 58.265625 -46.207031 58.265625 -45.59375 C 58.265625 -44.976562 57.90625 -44.359375 57.1875 -43.734375 C 56.476562 -43.117188 55.515625 -42.59375 54.296875 -42.15625 C 52.085938 -41.363281 49.484375 -40.734375 46.484375 -40.265625 C 45.234375 -38.660156 43.453125 -36.15625 41.140625 -32.75 C 38.835938 -29.351562 37.265625 -27.0625 36.421875 -25.875 C 35.585938 -24.6875 34.238281 -22.566406 32.375 -19.515625 C 30.507812 -16.472656 28.894531 -13.84375 27.53125 -11.625 C 26.164062 -9.414062 24.707031 -7.226562 23.15625 -5.0625 C 20.007812 -0.601562 17.195312 1.625 14.71875 1.625 C 13.6875 1.625 12.796875 1.347656 12.046875 0.796875 C 11.296875 0.242188 10.921875 -0.648438 10.921875 -1.890625 C 10.921875 -3.140625 11.609375 -4.695312 12.984375 -6.5625 C 14.367188 -8.425781 15.378906 -9.625 16.015625 -10.15625 C 16.648438 -10.6875 17.078125 -10.953125 17.296875 -10.953125 C 17.523438 -10.953125 17.640625 -10.804688 17.640625 -10.515625 Z M 17.640625 -10.515625 "/></g></g></g><g fill="#234507" fill-opacity="1"><g transform="translate(273.053078, 632.862218)"><g><path d="M 12.875 -18.03125 C 18.082031 -23.945312 22.515625 -26.90625 26.171875 -26.90625 C 27.078125 -26.90625 27.820312 -26.632812 28.40625 -26.09375 C 28.988281 -25.550781 29.28125 -24.847656 29.28125 -23.984375 C 29.28125 -23.128906 28.664062 -21.691406 27.4375 -19.671875 C 26.21875 -17.648438 25.09375 -15.945312 24.0625 -14.5625 C 23.507812 -13.851562 22.882812 -13.5 22.1875 -13.5 C 21.488281 -13.5 20.945312 -13.75 20.5625 -14.25 C 20.175781 -14.757812 19.984375 -15.359375 19.984375 -16.046875 C 19.984375 -17.566406 20.800781 -19.285156 22.4375 -21.203125 L 22.375 -21.28125 C 21.644531 -21.207031 19.835938 -19.769531 16.953125 -16.96875 C 14.078125 -14.164062 11.628906 -11.65625 9.609375 -9.4375 C 7.585938 -7.226562 5.398438 -4.535156 3.046875 -1.359375 C 2.359375 -0.410156 1.773438 0.0625 1.296875 0.0625 C 0.828125 0.0625 0.203125 -0.0820312 -0.578125 -0.375 C -1.359375 -0.675781 -1.832031 -0.890625 -2 -1.015625 C -2.164062 -1.148438 -2.25 -1.375 -2.25 -1.6875 C -2.25 -2 -2.160156 -2.359375 -1.984375 -2.765625 C -1.804688 -3.171875 -1.476562 -3.75 -1 -4.5 C -0.53125 -5.25 0.179688 -6.460938 1.140625 -8.140625 C 2.097656 -9.816406 3.59375 -12.351562 5.625 -15.75 C 7.65625 -19.144531 8.867188 -21.195312 9.265625 -21.90625 C 10.097656 -23.363281 10.78125 -24.421875 11.3125 -25.078125 C 12.3125 -26.335938 13.988281 -26.96875 16.34375 -26.96875 C 16.875 -26.96875 17.140625 -26.632812 17.140625 -25.96875 C 17.140625 -24.9375 16.179688 -22.988281 14.265625 -20.125 Z M 12.875 -18.03125 "/></g></g></g><g fill="#234507" fill-opacity="1"><g transform="translate(296.707662, 632.862218)"><g><path d="M 24.8125 -24.75 C 24.8125 -23.289062 24.222656 -22.007812 23.046875 -20.90625 C 21.867188 -19.800781 20.53125 -19.25 19.03125 -19.25 C 18.539062 -19.25 18.21875 -19.363281 18.0625 -19.59375 C 17.90625 -19.832031 17.828125 -20.140625 17.828125 -20.515625 C 17.828125 -20.890625 17.875 -21.253906 17.96875 -21.609375 C 17.175781 -21.335938 16.289062 -20.925781 15.3125 -20.375 C 14.34375 -19.832031 13.148438 -19.019531 11.734375 -17.9375 C 10.328125 -16.851562 9.625 -16.046875 9.625 -15.515625 C 9.625 -15.335938 9.882812 -15.25 10.40625 -15.25 C 10.925781 -15.25 11.722656 -15.429688 12.796875 -15.796875 C 13.878906 -16.160156 14.632812 -16.34375 15.0625 -16.34375 C 15.5 -16.34375 15.785156 -16.320312 15.921875 -16.28125 C 16.203125 -16.125 16.507812 -15.785156 16.84375 -15.265625 C 17.175781 -14.753906 17.34375 -14.347656 17.34375 -14.046875 C 17.34375 -13.742188 17.054688 -13.347656 16.484375 -12.859375 C 15.910156 -12.378906 15.257812 -12.007812 14.53125 -11.75 C 13.800781 -11.5 13.3125 -11.3125 13.0625 -11.1875 C 8.414062 -8.582031 6.09375 -6.796875 6.09375 -5.828125 C 6.09375 -4.109375 7.554688 -3.25 10.484375 -3.25 C 12.359375 -3.25 14.242188 -3.84375 16.140625 -5.03125 C 17.753906 -6.039062 19.207031 -7.066406 20.5 -8.109375 C 21.789062 -9.160156 22.601562 -9.804688 22.9375 -10.046875 C 23.28125 -10.296875 23.539062 -10.421875 23.71875 -10.421875 C 24.289062 -10.421875 24.578125 -9.78125 24.578125 -8.5 C 24.578125 -7.21875 24.5 -6.375 24.34375 -5.96875 C 24.195312 -5.5625 23.757812 -5.0625 23.03125 -4.46875 C 18.3125 -0.625 13.84375 1.296875 9.625 1.296875 C 7.375 1.296875 5.578125 0.984375 4.234375 0.359375 C 1.765625 -0.765625 0.53125 -2.484375 0.53125 -4.796875 C 0.53125 -7.835938 2.632812 -10.144531 6.84375 -11.71875 C 6.007812 -12.09375 5.46875 -12.570312 5.21875 -13.15625 C 4.976562 -13.738281 4.859375 -14.675781 4.859375 -15.96875 C 4.859375 -17.257812 5.457031 -18.625 6.65625 -20.0625 C 7.863281 -21.507812 9.335938 -22.695312 11.078125 -23.625 C 14.960938 -25.71875 18.425781 -26.765625 21.46875 -26.765625 C 22.195312 -26.765625 22.9375 -26.585938 23.6875 -26.234375 C 24.4375 -25.878906 24.8125 -25.382812 24.8125 -24.75 Z M 24.8125 -24.75 "/></g></g></g><g fill="#234507" fill-opacity="1"><g transform="translate(318.21182, 632.862218)"><g><path d="M 27.296875 -25.140625 C 28.972656 -25.140625 29.8125 -24.566406 29.8125 -23.421875 C 29.8125 -22.804688 29.664062 -22.351562 29.375 -22.0625 C 29.09375 -21.78125 28.484375 -20.828125 27.546875 -19.203125 C 26.609375 -17.585938 25.570312 -15.515625 24.4375 -12.984375 C 23.300781 -10.460938 22.566406 -8.304688 22.234375 -6.515625 C 22.171875 -6.296875 22.140625 -5.988281 22.140625 -5.59375 C 22.140625 -4.375 22.46875 -3.765625 23.125 -3.765625 C 23.789062 -3.765625 24.570312 -4.078125 25.46875 -4.703125 C 26.375 -5.335938 27.179688 -6.015625 27.890625 -6.734375 C 28.597656 -7.453125 29.285156 -8.1875 29.953125 -8.9375 C 30.628906 -9.6875 31.035156 -10.113281 31.171875 -10.21875 C 31.304688 -10.332031 31.503906 -10.390625 31.765625 -10.390625 C 32.179688 -10.390625 32.429688 -10.066406 32.515625 -9.421875 C 32.609375 -8.785156 32.65625 -8.125 32.65625 -7.4375 C 32.65625 -6.757812 32.585938 -6.285156 32.453125 -6.015625 C 31.816406 -4.765625 30.410156 -3.253906 28.234375 -1.484375 C 26.066406 0.273438 24.09375 1.15625 22.3125 1.15625 C 20.539062 1.15625 19.234375 0.617188 18.390625 -0.453125 C 17.554688 -1.535156 17.140625 -2.734375 17.140625 -4.046875 C 17.140625 -5.359375 17.359375 -6.515625 17.796875 -7.515625 C 15.972656 -5.128906 13.875 -3.109375 11.5 -1.453125 C 9.125 0.203125 7.1875 1.03125 5.6875 1.03125 C 4.1875 1.03125 2.960938 0.578125 2.015625 -0.328125 C 0.804688 -1.453125 0.203125 -3.007812 0.203125 -5 C 0.203125 -7 0.644531 -9.007812 1.53125 -11.03125 C 2.425781 -13.050781 3.601562 -14.894531 5.0625 -16.5625 C 6.519531 -18.226562 8.117188 -19.742188 9.859375 -21.109375 C 13.523438 -23.972656 16.898438 -25.40625 19.984375 -25.40625 C 21.171875 -25.40625 22.140625 -25.207031 22.890625 -24.8125 C 23.640625 -24.414062 24.113281 -23.921875 24.3125 -23.328125 C 24.84375 -24.117188 25.289062 -24.617188 25.65625 -24.828125 C 26.019531 -25.035156 26.566406 -25.140625 27.296875 -25.140625 Z M 22.890625 -21.46875 C 19.117188 -21.46875 15.21875 -19.375 11.1875 -15.1875 C 9.75 -13.6875 8.425781 -11.890625 7.21875 -9.796875 C 6.019531 -7.703125 5.421875 -6.265625 5.421875 -5.484375 C 5.421875 -4.710938 5.644531 -4.328125 6.09375 -4.328125 C 6.707031 -4.328125 8.425781 -5.546875 11.25 -7.984375 C 14.070312 -10.421875 15.945312 -12.21875 16.875 -13.375 C 17.882812 -14.644531 19.890625 -17.34375 22.890625 -21.46875 Z M 22.890625 -21.46875 "/></g></g></g><g fill="#234507" fill-opacity="1"><g transform="translate(345.803309, 632.862218)"><g><path d="M 5.6875 -6.625 L 5.65625 -6.09375 C 5.65625 -5.539062 5.863281 -5.0625 6.28125 -4.65625 C 6.707031 -4.257812 7.09375 -4.0625 7.4375 -4.0625 C 10.09375 -4.0625 12.4375 -4.457031 14.46875 -5.25 C 16.507812 -6.050781 17.53125 -6.847656 17.53125 -7.640625 C 17.53125 -8.015625 17.160156 -8.335938 16.421875 -8.609375 C 15.679688 -8.890625 14.4375 -9.234375 12.6875 -9.640625 C 10.9375 -10.046875 9.660156 -10.363281 8.859375 -10.59375 C 8.066406 -10.832031 7.4375 -11.050781 6.96875 -11.25 C 6.507812 -11.445312 6.039062 -11.722656 5.5625 -12.078125 C 4.519531 -12.804688 4 -13.890625 4 -15.328125 C 4 -16.773438 4.535156 -18.207031 5.609375 -19.625 C 6.679688 -21.050781 8.019531 -22.269531 9.625 -23.28125 C 11.238281 -24.300781 12.972656 -25.195312 14.828125 -25.96875 C 18.484375 -27.488281 21.5625 -28.25 24.0625 -28.25 C 26.507812 -28.25 28.019531 -27.722656 28.59375 -26.671875 C 28.769531 -26.296875 28.859375 -25.875 28.859375 -25.40625 L 28.859375 -25.1875 C 28.859375 -24.007812 28.609375 -23.085938 28.109375 -22.421875 C 27.609375 -21.765625 26.820312 -21.171875 25.75 -20.640625 C 24.6875 -20.117188 23.835938 -19.859375 23.203125 -19.859375 C 22.578125 -19.859375 22.179688 -19.898438 22.015625 -19.984375 C 21.847656 -20.078125 21.707031 -20.191406 21.59375 -20.328125 C 21.488281 -20.472656 21.351562 -20.578125 21.1875 -20.640625 C 21.019531 -20.710938 20.9375 -20.878906 20.9375 -21.140625 C 20.9375 -21.410156 21.046875 -21.679688 21.265625 -21.953125 C 21.492188 -22.234375 21.648438 -22.523438 21.734375 -22.828125 C 20.285156 -22.765625 18.765625 -22.425781 17.171875 -21.8125 C 15.585938 -21.207031 14.222656 -20.53125 13.078125 -19.78125 C 11.941406 -19.03125 11 -18.3125 10.25 -17.625 C 9.5 -16.945312 9.125 -16.445312 9.125 -16.125 C 9.125 -15.8125 9.632812 -15.554688 10.65625 -15.359375 C 15.21875 -14.453125 18.21875 -13.664062 19.65625 -13 C 21.09375 -12.34375 22.082031 -11.59375 22.625 -10.75 C 23.175781 -9.914062 23.453125 -9.15625 23.453125 -8.46875 C 23.453125 -7.0625 22.890625 -5.726562 21.765625 -4.46875 C 20.640625 -3.207031 19.253906 -2.179688 17.609375 -1.390625 C 14.054688 0.347656 10.960938 1.21875 8.328125 1.21875 C 5.691406 1.21875 3.867188 0.816406 2.859375 0.015625 C 1.859375 -0.785156 1.359375 -1.738281 1.359375 -2.84375 C 1.359375 -3.945312 1.640625 -4.96875 2.203125 -5.90625 C 2.765625 -6.84375 3.484375 -7.3125 4.359375 -7.3125 C 5.242188 -7.3125 5.6875 -7.082031 5.6875 -6.625 Z M 5.6875 -6.625 "/></g></g></g><g fill="#234507" fill-opacity="1"><g transform="translate(370.715058, 632.862218)"><g><path d="M 30.078125 -10.390625 C 30.492188 -10.390625 30.742188 -10.066406 30.828125 -9.421875 C 30.921875 -8.785156 30.96875 -8.125 30.96875 -7.4375 C 30.96875 -6.757812 30.898438 -6.285156 30.765625 -6.015625 C 30.128906 -4.785156 28.726562 -3.28125 26.5625 -1.5 C 24.40625 0.269531 22.359375 1.15625 20.421875 1.15625 C 19.222656 1.15625 18.113281 0.796875 17.09375 0.078125 C 16.082031 -0.640625 15.578125 -1.890625 15.578125 -3.671875 C 15.578125 -5.460938 16.050781 -7.21875 17 -8.9375 C 11.53125 -2.070312 7.242188 1.359375 4.140625 1.359375 C 2.898438 1.359375 1.898438 0.914062 1.140625 0.03125 C 0.378906 -0.851562 0 -1.765625 0 -2.703125 C 0 -3.640625 0.128906 -4.609375 0.390625 -5.609375 C 0.660156 -6.609375 0.941406 -7.503906 1.234375 -8.296875 C 1.535156 -9.097656 1.976562 -10.082031 2.5625 -11.25 C 3.144531 -12.414062 3.578125 -13.265625 3.859375 -13.796875 C 4.148438 -14.328125 4.609375 -15.125 5.234375 -16.1875 C 5.867188 -17.257812 6.695312 -18.703125 7.71875 -20.515625 C 8.75 -22.328125 9.597656 -23.664062 10.265625 -24.53125 C 10.941406 -25.40625 11.597656 -25.847656 12.234375 -25.859375 C 12.878906 -25.867188 13.441406 -25.609375 13.921875 -25.078125 C 14.410156 -24.546875 14.65625 -24.113281 14.65625 -23.78125 C 14.65625 -23.457031 13.914062 -21.972656 12.4375 -19.328125 C 8.070312 -11.429688 5.890625 -6.832031 5.890625 -5.53125 C 5.890625 -5.195312 6.007812 -5.03125 6.25 -5.03125 C 7.3125 -5.03125 9.945312 -7.320312 14.15625 -11.90625 C 18.375 -16.5 20.8125 -19.441406 21.46875 -20.734375 C 22.132812 -22.023438 22.78125 -23.109375 23.40625 -23.984375 C 24.039062 -24.867188 24.507812 -25.410156 24.8125 -25.609375 C 25.757812 -26.222656 26.984375 -26.554688 28.484375 -26.609375 C 28.734375 -26.609375 28.921875 -26.59375 29.046875 -26.5625 C 29.179688 -26.539062 29.335938 -26.351562 29.515625 -26 C 29.691406 -25.65625 29.78125 -25.382812 29.78125 -25.1875 C 29.582031 -24.5625 28.703125 -22.914062 27.140625 -20.25 C 25.585938 -17.582031 24.722656 -16.070312 24.546875 -15.71875 C 21.941406 -10.332031 20.640625 -6.820312 20.640625 -5.1875 C 20.640625 -4.269531 20.992188 -3.8125 21.703125 -3.8125 C 22.984375 -3.976562 24.53125 -5 26.34375 -6.875 C 27 -7.5625 27.648438 -8.257812 28.296875 -8.96875 C 28.953125 -9.675781 29.359375 -10.085938 29.515625 -10.203125 C 29.671875 -10.328125 29.859375 -10.390625 30.078125 -10.390625 Z M 30.078125 -10.390625 "/></g></g></g><g fill="#234507" fill-opacity="1"><g transform="translate(397.512547, 632.862218)"><g><path d="M 12.875 -18.03125 C 18.082031 -23.945312 22.515625 -26.90625 26.171875 -26.90625 C 27.078125 -26.90625 27.820312 -26.632812 28.40625 -26.09375 C 28.988281 -25.550781 29.28125 -24.847656 29.28125 -23.984375 C 29.28125 -23.128906 28.664062 -21.691406 27.4375 -19.671875 C 26.21875 -17.648438 25.09375 -15.945312 24.0625 -14.5625 C 23.507812 -13.851562 22.882812 -13.5 22.1875 -13.5 C 21.488281 -13.5 20.945312 -13.75 20.5625 -14.25 C 20.175781 -14.757812 19.984375 -15.359375 19.984375 -16.046875 C 19.984375 -17.566406 20.800781 -19.285156 22.4375 -21.203125 L 22.375 -21.28125 C 21.644531 -21.207031 19.835938 -19.769531 16.953125 -16.96875 C 14.078125 -14.164062 11.628906 -11.65625 9.609375 -9.4375 C 7.585938 -7.226562 5.398438 -4.535156 3.046875 -1.359375 C 2.359375 -0.410156 1.773438 0.0625 1.296875 0.0625 C 0.828125 0.0625 0.203125 -0.0820312 -0.578125 -0.375 C -1.359375 -0.675781 -1.832031 -0.890625 -2 -1.015625 C -2.164062 -1.148438 -2.25 -1.375 -2.25 -1.6875 C -2.25 -2 -2.160156 -2.359375 -1.984375 -2.765625 C -1.804688 -3.171875 -1.476562 -3.75 -1 -4.5 C -0.53125 -5.25 0.179688 -6.460938 1.140625 -8.140625 C 2.097656 -9.816406 3.59375 -12.351562 5.625 -15.75 C 7.65625 -19.144531 8.867188 -21.195312 9.265625 -21.90625 C 10.097656 -23.363281 10.78125 -24.421875 11.3125 -25.078125 C 12.3125 -26.335938 13.988281 -26.96875 16.34375 -26.96875 C 16.875 -26.96875 17.140625 -26.632812 17.140625 -25.96875 C 17.140625 -24.9375 16.179688 -22.988281 14.265625 -20.125 Z M 12.875 -18.03125 "/></g></g></g><g fill="#234507" fill-opacity="1"><g transform="translate(421.167131, 632.862218)"><g><path d="M 24.8125 -24.75 C 24.8125 -23.289062 24.222656 -22.007812 23.046875 -20.90625 C 21.867188 -19.800781 20.53125 -19.25 19.03125 -19.25 C 18.539062 -19.25 18.21875 -19.363281 18.0625 -19.59375 C 17.90625 -19.832031 17.828125 -20.140625 17.828125 -20.515625 C 17.828125 -20.890625 17.875 -21.253906 17.96875 -21.609375 C 17.175781 -21.335938 16.289062 -20.925781 15.3125 -20.375 C 14.34375 -19.832031 13.148438 -19.019531 11.734375 -17.9375 C 10.328125 -16.851562 9.625 -16.046875 9.625 -15.515625 C 9.625 -15.335938 9.882812 -15.25 10.40625 -15.25 C 10.925781 -15.25 11.722656 -15.429688 12.796875 -15.796875 C 13.878906 -16.160156 14.632812 -16.34375 15.0625 -16.34375 C 15.5 -16.34375 15.785156 -16.320312 15.921875 -16.28125 C 16.203125 -16.125 16.507812 -15.785156 16.84375 -15.265625 C 17.175781 -14.753906 17.34375 -14.347656 17.34375 -14.046875 C 17.34375 -13.742188 17.054688 -13.347656 16.484375 -12.859375 C 15.910156 -12.378906 15.257812 -12.007812 14.53125 -11.75 C 13.800781 -11.5 13.3125 -11.3125 13.0625 -11.1875 C 8.414062 -8.582031 6.09375 -6.796875 6.09375 -5.828125 C 6.09375 -4.109375 7.554688 -3.25 10.484375 -3.25 C 12.359375 -3.25 14.242188 -3.84375 16.140625 -5.03125 C 17.753906 -6.039062 19.207031 -7.066406 20.5 -8.109375 C 21.789062 -9.160156 22.601562 -9.804688 22.9375 -10.046875 C 23.28125 -10.296875 23.539062 -10.421875 23.71875 -10.421875 C 24.289062 -10.421875 24.578125 -9.78125 24.578125 -8.5 C 24.578125 -7.21875 24.5 -6.375 24.34375 -5.96875 C 24.195312 -5.5625 23.757812 -5.0625 23.03125 -4.46875 C 18.3125 -0.625 13.84375 1.296875 9.625 1.296875 C 7.375 1.296875 5.578125 0.984375 4.234375 0.359375 C 1.765625 -0.765625 0.53125 -2.484375 0.53125 -4.796875 C 0.53125 -7.835938 2.632812 -10.144531 6.84375 -11.71875 C 6.007812 -12.09375 5.46875 -12.570312 5.21875 -13.15625 C 4.976562 -13.738281 4.859375 -14.675781 4.859375 -15.96875 C 4.859375 -17.257812 5.457031 -18.625 6.65625 -20.0625 C 7.863281 -21.507812 9.335938 -22.695312 11.078125 -23.625 C 14.960938 -25.71875 18.425781 -26.765625 21.46875 -26.765625 C 22.195312 -26.765625 22.9375 -26.585938 23.6875 -26.234375 C 24.4375 -25.878906 24.8125 -25.382812 24.8125 -24.75 Z M 24.8125 -24.75 "/></g></g></g><g fill="#234507" fill-opacity="1"><g transform="translate(442.671289, 632.862218)"><g/></g></g><g fill="#234507" fill-opacity="1"><g transform="translate(456.73171, 632.862218)"><g><path d="M 64.5625 -47.21875 L 64.984375 -47.21875 C 65.117188 -47.21875 65.203125 -47.207031 65.234375 -47.1875 C 65.265625 -47.164062 65.304688 -47.148438 65.359375 -47.140625 C 65.421875 -47.128906 65.472656 -47.097656 65.515625 -47.046875 C 65.628906 -46.960938 65.785156 -46.863281 65.984375 -46.75 C 66.242188 -46.550781 66.375 -46.316406 66.375 -46.046875 C 66.375 -45.785156 66.113281 -45.242188 65.59375 -44.421875 C 65.082031 -43.597656 63.753906 -41.539062 61.609375 -38.25 C 56.671875 -30.6875 52.25 -23.671875 48.34375 -17.203125 C 41.59375 -5.972656 38.179688 -0.328125 38.109375 -0.265625 C 38.046875 -0.203125 38.003906 -0.132812 37.984375 -0.0625 C 37.960938 0.0625 37.875 0.125 37.71875 0.125 L 37.265625 0.03125 L 36.359375 0.265625 L 35.828125 0.171875 L 35.265625 0.265625 L 35.078125 0.265625 L 33.21875 0.53125 C 32.113281 0.53125 31.5625 0.15625 31.5625 -0.59375 C 31.5625 -0.90625 31.660156 -1.289062 31.859375 -1.75 C 32.546875 -3.363281 35.988281 -9.222656 42.1875 -19.328125 C 38.101562 -19.210938 34.078125 -19.15625 30.109375 -19.15625 L 23 -19.1875 C 21.832031 -17.3125 20.234375 -14.65625 18.203125 -11.21875 C 13.804688 -3.71875 11.460938 0.0664062 11.171875 0.140625 C 10.890625 0.222656 10.660156 0.265625 10.484375 0.265625 C 10.304688 0.265625 10.140625 0.160156 9.984375 -0.046875 C 9.835938 -0.253906 9.734375 -0.359375 9.671875 -0.359375 C 9.617188 -0.359375 9.503906 -0.3125 9.328125 -0.21875 C 9.148438 -0.132812 8.894531 -0.09375 8.5625 -0.09375 L 7.8125 -0.125 L 7.515625 -0.328125 C 7.492188 -0.328125 7.460938 -0.289062 7.421875 -0.21875 C 7.390625 -0.15625 7.3125 -0.125 7.1875 -0.125 C 6.226562 -0.125 5.75 -0.523438 5.75 -1.328125 C 5.75 -1.859375 5.9375 -2.550781 6.3125 -3.40625 C 6.6875 -4.269531 7.175781 -5.207031 7.78125 -6.21875 C 8.394531 -7.238281 9.960938 -9.640625 12.484375 -13.421875 C 15.015625 -17.203125 16.28125 -19.101562 16.28125 -19.125 C 15.863281 -19.144531 15.378906 -19.164062 14.828125 -19.1875 C 13.703125 -19.1875 12.90625 -19.234375 12.4375 -19.328125 C 11.1875 -19.546875 10.328125 -20.582031 9.859375 -22.4375 C 9.617188 -23.34375 9.507812 -23.9375 9.53125 -24.21875 C 9.53125 -24.8125 9.785156 -25.109375 10.296875 -25.109375 L 11.15625 -24.875 C 11.59375 -24.851562 12.648438 -24.796875 14.328125 -24.703125 C 16.003906 -24.617188 17.207031 -24.578125 17.9375 -24.578125 L 19.8125 -24.65625 C 22.6875 -29.15625 26.117188 -34.238281 30.109375 -39.90625 C 27.203125 -37.519531 23.972656 -36.328125 20.421875 -36.328125 C 18.742188 -36.328125 17.296875 -36.726562 16.078125 -37.53125 C 14.867188 -38.34375 14.265625 -39.363281 14.265625 -40.59375 C 14.265625 -41.832031 14.726562 -42.8125 15.65625 -43.53125 C 16.582031 -44.25 17.460938 -44.609375 18.296875 -44.609375 C 19.140625 -44.609375 19.5625 -44.472656 19.5625 -44.203125 C 19.5625 -44.117188 19.441406 -44.019531 19.203125 -43.90625 C 18.972656 -43.800781 18.859375 -43.691406 18.859375 -43.578125 C 18.859375 -43.222656 19.242188 -42.90625 20.015625 -42.625 C 20.785156 -42.351562 21.648438 -42.21875 22.609375 -42.21875 C 23.578125 -42.21875 24.765625 -42.5 26.171875 -43.0625 C 27.585938 -43.625 29.054688 -44.347656 30.578125 -45.234375 C 32.691406 -46.460938 34.367188 -47.488281 35.609375 -48.3125 C 36.304688 -48.664062 36.960938 -48.84375 37.578125 -48.84375 C 38.203125 -48.84375 38.648438 -48.769531 38.921875 -48.625 C 39.203125 -48.476562 39.40625 -48.332031 39.53125 -48.1875 C 39.664062 -48.050781 39.8125 -47.863281 39.96875 -47.625 C 40.125 -47.394531 40.273438 -47.21875 40.421875 -47.09375 C 40.566406 -46.976562 40.640625 -46.84375 40.640625 -46.6875 C 40.640625 -46.53125 40.554688 -46.285156 40.390625 -45.953125 C 40.222656 -45.628906 39.378906 -44.289062 37.859375 -41.9375 C 36.335938 -39.59375 34.378906 -36.59375 31.984375 -32.9375 C 29.585938 -29.289062 27.835938 -26.601562 26.734375 -24.875 C 32.628906 -24.875 38.992188 -24.988281 45.828125 -25.21875 C 54.140625 -38.34375 58.523438 -45.222656 58.984375 -45.859375 C 59.453125 -46.503906 59.875 -46.925781 60.25 -47.125 C 60.625 -47.320312 61.085938 -47.421875 61.640625 -47.421875 Z M 64.5625 -47.21875 "/></g></g></g><g fill="#234507" fill-opacity="1"><g transform="translate(507.54769, 632.862218)"><g><path d="M 30.078125 -10.390625 C 30.492188 -10.390625 30.742188 -10.066406 30.828125 -9.421875 C 30.921875 -8.785156 30.96875 -8.125 30.96875 -7.4375 C 30.96875 -6.757812 30.898438 -6.285156 30.765625 -6.015625 C 30.128906 -4.785156 28.726562 -3.28125 26.5625 -1.5 C 24.40625 0.269531 22.359375 1.15625 20.421875 1.15625 C 19.222656 1.15625 18.113281 0.796875 17.09375 0.078125 C 16.082031 -0.640625 15.578125 -1.890625 15.578125 -3.671875 C 15.578125 -5.460938 16.050781 -7.21875 17 -8.9375 C 11.53125 -2.070312 7.242188 1.359375 4.140625 1.359375 C 2.898438 1.359375 1.898438 0.914062 1.140625 0.03125 C 0.378906 -0.851562 0 -1.765625 0 -2.703125 C 0 -3.640625 0.128906 -4.609375 0.390625 -5.609375 C 0.660156 -6.609375 0.941406 -7.503906 1.234375 -8.296875 C 1.535156 -9.097656 1.976562 -10.082031 2.5625 -11.25 C 3.144531 -12.414062 3.578125 -13.265625 3.859375 -13.796875 C 4.148438 -14.328125 4.609375 -15.125 5.234375 -16.1875 C 5.867188 -17.257812 6.695312 -18.703125 7.71875 -20.515625 C 8.75 -22.328125 9.597656 -23.664062 10.265625 -24.53125 C 10.941406 -25.40625 11.597656 -25.847656 12.234375 -25.859375 C 12.878906 -25.867188 13.441406 -25.609375 13.921875 -25.078125 C 14.410156 -24.546875 14.65625 -24.113281 14.65625 -23.78125 C 14.65625 -23.457031 13.914062 -21.972656 12.4375 -19.328125 C 8.070312 -11.429688 5.890625 -6.832031 5.890625 -5.53125 C 5.890625 -5.195312 6.007812 -5.03125 6.25 -5.03125 C 7.3125 -5.03125 9.945312 -7.320312 14.15625 -11.90625 C 18.375 -16.5 20.8125 -19.441406 21.46875 -20.734375 C 22.132812 -22.023438 22.78125 -23.109375 23.40625 -23.984375 C 24.039062 -24.867188 24.507812 -25.410156 24.8125 -25.609375 C 25.757812 -26.222656 26.984375 -26.554688 28.484375 -26.609375 C 28.734375 -26.609375 28.921875 -26.59375 29.046875 -26.5625 C 29.179688 -26.539062 29.335938 -26.351562 29.515625 -26 C 29.691406 -25.65625 29.78125 -25.382812 29.78125 -25.1875 C 29.582031 -24.5625 28.703125 -22.914062 27.140625 -20.25 C 25.585938 -17.582031 24.722656 -16.070312 24.546875 -15.71875 C 21.941406 -10.332031 20.640625 -6.820312 20.640625 -5.1875 C 20.640625 -4.269531 20.992188 -3.8125 21.703125 -3.8125 C 22.984375 -3.976562 24.53125 -5 26.34375 -6.875 C 27 -7.5625 27.648438 -8.257812 28.296875 -8.96875 C 28.953125 -9.675781 29.359375 -10.085938 29.515625 -10.203125 C 29.671875 -10.328125 29.859375 -10.390625 30.078125 -10.390625 Z M 30.078125 -10.390625 "/></g></g></g><g fill="#234507" fill-opacity="1"><g transform="translate(534.345179, 632.862218)"><g><path d="M 19.328125 -5.09375 C 19.328125 -4.125 19.988281 -3.640625 21.3125 -3.640625 C 22.019531 -3.640625 22.90625 -3.988281 23.96875 -4.6875 C 25.039062 -5.394531 26.007812 -6.171875 26.875 -7.015625 C 29.164062 -9.285156 30.460938 -10.421875 30.765625 -10.421875 C 31.335938 -10.421875 31.625 -9.59375 31.625 -7.9375 C 31.625 -6.28125 31.109375 -5.144531 30.078125 -4.53125 C 26.921875 -1.6875 24.484375 0.0390625 22.765625 0.65625 C 21.796875 0.988281 20.722656 1.144531 19.546875 1.125 C 18.378906 1.101562 17.222656 0.597656 16.078125 -0.390625 C 14.929688 -1.390625 14.359375 -2.597656 14.359375 -4.015625 C 14.359375 -5.441406 14.734375 -7.054688 15.484375 -8.859375 C 16.234375 -10.671875 17 -12.222656 17.78125 -13.515625 C 18.5625 -14.804688 19.523438 -16.304688 20.671875 -18.015625 C 21.828125 -19.722656 22.4375 -20.785156 22.5 -21.203125 L 22.4375 -21.28125 C 21.707031 -21.207031 19.898438 -19.769531 17.015625 -16.96875 C 14.140625 -14.164062 11.765625 -11.726562 9.890625 -9.65625 C 8.015625 -7.582031 5.773438 -4.816406 3.171875 -1.359375 C 2.441406 -0.410156 1.84375 0.0625 1.375 0.0625 C 0.914062 0.0625 0.296875 -0.0820312 -0.484375 -0.375 C -1.265625 -0.675781 -1.742188 -0.890625 -1.921875 -1.015625 C -2.097656 -1.148438 -2.1875 -1.347656 -2.1875 -1.609375 C -2.1875 -1.878906 -2.109375 -2.207031 -1.953125 -2.59375 C -1.796875 -2.976562 -1.644531 -3.296875 -1.5 -3.546875 C -1.363281 -3.804688 -1.128906 -4.203125 -0.796875 -4.734375 C -0.460938 -5.265625 0.191406 -6.382812 1.171875 -8.09375 C 2.148438 -9.800781 3.65625 -12.351562 5.6875 -15.75 C 7.71875 -19.144531 8.929688 -21.195312 9.328125 -21.90625 C 10.171875 -23.363281 10.851562 -24.421875 11.375 -25.078125 C 12.375 -26.335938 14.050781 -26.96875 16.40625 -26.96875 C 16.9375 -26.96875 17.203125 -26.632812 17.203125 -25.96875 C 17.203125 -24.9375 16.242188 -22.988281 14.328125 -20.125 L 12.9375 -18.03125 C 16.75 -22.269531 19.96875 -24.953125 22.59375 -26.078125 C 23.875 -26.628906 25.023438 -26.90625 26.046875 -26.90625 C 27.078125 -26.90625 27.894531 -26.628906 28.5 -26.078125 C 29.113281 -25.523438 29.421875 -24.910156 29.421875 -24.234375 C 29.421875 -23.566406 29.1875 -22.765625 28.71875 -21.828125 C 28.257812 -20.890625 27.789062 -20.050781 27.3125 -19.3125 C 26.84375 -18.570312 26.21875 -17.640625 25.4375 -16.515625 C 24.664062 -15.390625 24.25 -14.773438 24.1875 -14.671875 C 24.125 -14.578125 23.953125 -14.3125 23.671875 -13.875 C 23.398438 -13.445312 23.195312 -13.132812 23.0625 -12.9375 C 22.925781 -12.738281 22.703125 -12.390625 22.390625 -11.890625 C 22.085938 -11.398438 21.84375 -10.988281 21.65625 -10.65625 C 21.46875 -10.320312 21.234375 -9.910156 20.953125 -9.421875 C 20.679688 -8.941406 20.460938 -8.523438 20.296875 -8.171875 C 20.128906 -7.816406 19.957031 -7.429688 19.78125 -7.015625 C 19.476562 -6.242188 19.328125 -5.601562 19.328125 -5.09375 Z M 19.328125 -5.09375 "/></g></g></g><g fill="#234507" fill-opacity="1"><g transform="translate(560.811835, 632.862218)"><g><path d="M 24.8125 -42.625 L 26.171875 -42.28125 C 26.367188 -42.28125 26.546875 -42.179688 26.703125 -41.984375 C 26.859375 -41.785156 26.9375 -41.597656 26.9375 -41.421875 C 26.9375 -41.242188 26.703125 -40.769531 26.234375 -40 C 25.773438 -39.226562 25.226562 -38.351562 24.59375 -37.375 C 23.96875 -36.394531 23.632812 -35.859375 23.59375 -35.765625 C 25.3125 -35.898438 26.53125 -35.96875 27.25 -35.96875 C 27.96875 -35.96875 28.457031 -35.914062 28.71875 -35.8125 C 28.988281 -35.71875 29.289062 -35.441406 29.625 -34.984375 C 29.96875 -34.535156 30.28125 -34.195312 30.5625 -33.96875 C 30.851562 -33.738281 31 -33.390625 31 -32.921875 C 31 -32.460938 30.71875 -32.070312 30.15625 -31.75 C 29.59375 -31.425781 28.992188 -31.234375 28.359375 -31.171875 C 23.242188 -30.660156 20.421875 -30.394531 19.890625 -30.375 C 18.097656 -27.632812 15.597656 -23.367188 12.390625 -17.578125 C 9.179688 -11.796875 7.476562 -8.175781 7.28125 -6.71875 C 7.1875 -6.050781 7.140625 -5.507812 7.140625 -5.09375 C 7.140625 -4.238281 7.59375 -3.8125 8.5 -3.8125 C 9.40625 -3.8125 10.410156 -4.15625 11.515625 -4.84375 C 12.617188 -5.539062 13.632812 -6.296875 14.5625 -7.109375 C 17.03125 -9.316406 18.351562 -10.421875 18.53125 -10.421875 C 19.101562 -10.421875 19.390625 -9.425781 19.390625 -7.4375 C 19.390625 -6.363281 18.894531 -5.394531 17.90625 -4.53125 C 15.675781 -2.613281 13.800781 -1.171875 12.28125 -0.203125 C 10.757812 0.765625 9.234375 1.25 7.703125 1.25 C 7.378906 1.25 7.070312 1.21875 6.78125 1.15625 C 5.019531 0.820312 3.722656 0.175781 2.890625 -0.78125 C 2.066406 -1.738281 1.660156 -3.03125 1.671875 -4.65625 C 1.679688 -6.289062 2.164062 -8.269531 3.125 -10.59375 C 4.082031 -12.925781 5.289062 -15.40625 6.75 -18.03125 C 9.132812 -22.3125 11.515625 -26.328125 13.890625 -30.078125 L 12.640625 -29.90625 C 10.078125 -29.625 8.585938 -29.484375 8.171875 -29.484375 L 7.875 -29.484375 C 7.238281 -29.484375 6.617188 -29.609375 6.015625 -29.859375 C 5.421875 -30.117188 5.125 -30.4375 5.125 -30.8125 C 5.125 -31.1875 5.285156 -31.546875 5.609375 -31.890625 C 5.929688 -32.242188 6.125 -32.519531 6.1875 -32.71875 C 6.34375 -33.207031 6.921875 -33.75 7.921875 -34.34375 C 8.929688 -34.9375 9.6875 -35.25 10.1875 -35.28125 C 10.695312 -35.320312 11.1875 -35.351562 11.65625 -35.375 C 12.132812 -35.394531 12.664062 -35.414062 13.25 -35.4375 C 13.832031 -35.457031 14.28125 -35.476562 14.59375 -35.5 L 17.5625 -35.640625 C 19.414062 -38.421875 20.691406 -40.207031 21.390625 -41 C 22.085938 -41.789062 22.488281 -42.222656 22.59375 -42.296875 C 22.707031 -42.378906 22.929688 -42.421875 23.265625 -42.421875 Z M 24.8125 -42.625 "/></g></g></g></svg>