<svg xmlns="http://www.w3.org/2000/svg" xmlns:xlink="http://www.w3.org/1999/xlink" width="500" zoomAndPan="magnify" viewBox="0 0 375 299.999988" height="400" preserveAspectRatio="xMidYMid meet" version="1.0"><defs><g/><clipPath id="c81b33a892"><path d="M 134 132 L 358 132 L 358 239 L 134 239 Z M 134 132 " clip-rule="nonzero"/></clipPath><clipPath id="aed82719b4"><path d="M 130.296875 225.605469 L 353.96875 125.011719 L 360.121094 138.691406 L 136.449219 239.285156 Z M 130.296875 225.605469 " clip-rule="nonzero"/></clipPath><clipPath id="2e0ed1ebd0"><path d="M 130.296875 225.605469 L 353.96875 125.011719 L 360.121094 138.691406 L 136.449219 239.285156 Z M 130.296875 225.605469 " clip-rule="nonzero"/></clipPath><clipPath id="2dff92af38"><path d="M 130.296875 225.605469 L 353.96875 125.011719 L 360.121094 138.691406 L 136.449219 239.285156 Z M 130.296875 225.605469 " clip-rule="nonzero"/></clipPath><clipPath id="05c260ced0"><path d="M 265 170 L 266 170 L 266 171 L 265 171 Z M 265 170 " clip-rule="nonzero"/></clipPath><clipPath id="26755be6ca"><path d="M 130.296875 225.605469 L 353.96875 125.011719 L 360.121094 138.691406 L 136.449219 239.285156 Z M 130.296875 225.605469 " clip-rule="nonzero"/></clipPath><clipPath id="88854dd3d9"><path d="M 130.296875 225.605469 L 353.96875 125.011719 L 360.121094 138.691406 L 136.449219 239.285156 Z M 130.296875 225.605469 " clip-rule="nonzero"/></clipPath><clipPath id="9e857b7814"><path d="M 130.296875 225.605469 L 353.96875 125.011719 L 360.121094 138.691406 L 136.449219 239.285156 Z M 130.296875 225.605469 " clip-rule="nonzero"/></clipPath><clipPath id="7fc6735447"><path d="M 152 229 L 153 229 L 153 230 L 152 230 Z M 152 229 " clip-rule="nonzero"/></clipPath><clipPath id="d02a40618d"><path d="M 130.296875 225.605469 L 353.96875 125.011719 L 360.121094 138.691406 L 136.449219 239.285156 Z M 130.296875 225.605469 " clip-rule="nonzero"/></clipPath><clipPath id="c6555a8f0f"><path d="M 130.296875 225.605469 L 353.96875 125.011719 L 360.121094 138.691406 L 136.449219 239.285156 Z M 130.296875 225.605469 " clip-rule="nonzero"/></clipPath><clipPath id="63ebd11ef0"><path d="M 130.296875 225.605469 L 353.96875 125.011719 L 360.121094 138.691406 L 136.449219 239.285156 Z M 130.296875 225.605469 " clip-rule="nonzero"/></clipPath><clipPath id="cd0f6c34eb"><path d="M 343 137 L 344 137 L 344 139 L 343 139 Z M 343 137 " clip-rule="nonzero"/></clipPath><clipPath id="844b75c4c4"><path d="M 130.296875 225.605469 L 353.96875 125.011719 L 360.121094 138.691406 L 136.449219 239.285156 Z M 130.296875 225.605469 " clip-rule="nonzero"/></clipPath><clipPath id="431aa66626"><path d="M 130.296875 225.605469 L 353.96875 125.011719 L 360.121094 138.691406 L 136.449219 239.285156 Z M 130.296875 225.605469 " clip-rule="nonzero"/></clipPath><clipPath id="09ad2af16a"><path d="M 130.296875 225.605469 L 353.96875 125.011719 L 360.121094 138.691406 L 136.449219 239.285156 Z M 130.296875 225.605469 " clip-rule="nonzero"/></clipPath></defs><g fill="#000000" fill-opacity="1"><g transform="translate(51.901709, 211.51835)"><g><path d="M 50.691406 -92.339844 C 50.730469 -92.773438 50.773438 -93.207031 50.742188 -93.824219 C 50.753906 -94.875 50.582031 -95.855469 50.59375 -96.910156 C 50.644531 -98.394531 50.769531 -99.699219 50.890625 -101.003906 L 51.222656 -101.761719 C 51.457031 -103.316406 52.886719 -104.5 52.066406 -106.066406 C 51.996094 -106.25 52.109375 -106.503906 52.21875 -106.753906 C 52.472656 -106.644531 52.726562 -106.53125 52.796875 -106.351562 L 53.007812 -105.804688 C 53.121094 -106.054688 53.230469 -106.308594 53.160156 -106.492188 C 53.019531 -106.855469 52.695312 -107.148438 52.554688 -107.511719 C 52.019531 -108.351562 52.171875 -109.039062 53.011719 -109.574219 C 53.191406 -109.644531 53.273438 -110.515625 53.273438 -110.515625 C 51.828125 -111 52.050781 -111.507812 53.074219 -112.113281 C 53.257812 -112.183594 53.113281 -112.546875 53.226562 -112.800781 C 53.265625 -113.234375 53.238281 -113.851562 53.53125 -114.175781 C 54.707031 -115.46875 54.070312 -117.105469 54.121094 -118.59375 L 54.578125 -120.65625 C 54.730469 -121.34375 55.066406 -122.101562 55.21875 -122.789062 C 55.300781 -123.65625 55.128906 -124.640625 55.460938 -125.398438 C 56.0625 -127.09375 55.355469 -128.914062 53.65625 -129.511719 L 53.515625 -129.878906 L 50.695312 -130.667969 C 50.007812 -130.820312 49.320312 -130.972656 48.773438 -130.761719 C 47.679688 -130.339844 47 -127.769531 46.738281 -126.832031 C 44.304688 -119.601562 44.117188 -111.988281 43.492188 -104.417969 C 43.316406 -101.625 42.960938 -98.765625 42.605469 -95.90625 C 42.289062 -93.476562 41.609375 -90.910156 41.292969 -88.484375 C 40.785156 -84.9375 40.710938 -81.347656 40.203125 -77.796875 C 35.953125 -53.109375 30.875 -28.941406 22.683594 -5.238281 C 21.851562 -1.980469 16.503906 6.375 13.046875 7.714844 C 11.40625 8.351562 9.890625 7.683594 8.820312 6.003906 C 6.144531 1.804688 5.542969 -2.988281 4.578125 -7.640625 C 4.023438 -10.148438 4.015625 -12.867188 3.824219 -15.515625 C 3.808594 -17.183594 3.859375 -18.671875 3.910156 -20.15625 C 4.117188 -22.332031 4.390625 -24.324219 4.59375 -26.496094 C 5.074219 -30.660156 5.550781 -34.828125 5.847656 -38.921875 L 6.984375 -53.816406 C 6.957031 -54.429688 6.492188 -55.089844 6.460938 -55.707031 C 6.636719 -58.496094 6.992188 -61.355469 7.167969 -64.148438 C 7.25 -65.015625 7.148438 -65.816406 7.230469 -66.6875 C 7.820312 -71.105469 8.230469 -75.449219 8.3125 -80.09375 C 8.296875 -81.761719 8.09375 -83.359375 8.328125 -84.914062 C 8.726562 -88.210938 8.507812 -91.476562 7.488281 -94.640625 C 5.933594 -98.648438 4.742188 -99.023438 0.351562 -98.996094 C -0.0820312 -99.039062 -0.445312 -98.894531 -0.808594 -98.753906 C -1.539062 -98.472656 -2.011719 -98.078125 -1.953125 -96.84375 C -1.824219 -95.429688 -1.695312 -94.015625 -1.746094 -92.527344 L -4.285156 -68.292969 C -4.722656 -64.5625 -5.160156 -60.832031 -5.417969 -57.171875 C -5.613281 -52.277344 -5.628906 -47.457031 -5.824219 -42.5625 C -6.574219 -29.914062 -6.925781 -20.5625 -5.9375 -7.75 C -5.527344 -1.835938 -4.503906 4.050781 -1.769531 9.484375 C 0.683594 14.1875 6.820312 17.042969 12.097656 14.996094 C 21.75 11.253906 26.632812 -1.53125 29.777344 -10.710938 C 31.308594 -14.863281 32.835938 -19.019531 34.1875 -23.101562 L 37.230469 -33.078125 L 39.726562 -42.84375 C 39.835938 -43.097656 40.019531 -43.167969 40.128906 -43.421875 L 40.339844 -42.875 C 40.175781 -37.363281 39.824219 -31.78125 39.660156 -26.273438 C 39.304688 -13.148438 38.949219 -0.0234375 39.207031 13.070312 C 39.257812 15.355469 39.558594 17.75 39.789062 19.964844 L 40.335938 19.753906 L 40.949219 13.230469 C 41.039062 11.3125 41.386719 9.5 41.480469 7.582031 C 41.683594 5.40625 41.453125 3.191406 41.65625 1.019531 C 41.984375 -2.460938 42.5625 -5.824219 42.890625 -9.304688 C 43.328125 -13.035156 43.765625 -16.765625 43.953125 -20.605469 C 44.042969 -22.527344 43.632812 -24.671875 43.652344 -26.773438 C 43.707031 -28.261719 44.445312 -29.59375 44.496094 -31.082031 C 44.730469 -32.636719 46.199219 -34.253906 44.511719 -35.902344 C 44.511719 -35.902344 44.804688 -36.226562 44.917969 -36.480469 C 45.210938 -36.804688 45.757812 -37.015625 45.867188 -37.269531 C 45.835938 -37.882812 45.375 -38.542969 45.34375 -39.160156 C 45.464844 -40.464844 45.40625 -41.695312 45.597656 -42.820312 C 45.976562 -44.011719 44.722656 -45.621094 46.542969 -46.328125 L 46.488281 -51.332031 C 46.550781 -53.871094 48.351562 -56.242188 47.292969 -58.976562 C 47.222656 -59.15625 47.332031 -59.410156 47.261719 -59.589844 C 47.539062 -61.582031 49.117188 -63.453125 47.46875 -65.535156 C 47.398438 -65.71875 47.621094 -66.222656 47.734375 -66.476562 C 47.917969 -66.546875 48.351562 -66.507812 48.53125 -66.578125 L 48.109375 -67.667969 C 47.898438 -68.214844 47.6875 -68.761719 47.65625 -69.378906 C 47.65625 -69.378906 48.273438 -69.410156 48.636719 -69.550781 L 49.183594 -69.761719 L 48.972656 -70.308594 C 48.832031 -70.671875 48.507812 -70.964844 48.617188 -71.21875 C 48.671875 -72.703125 48.976562 -74.078125 49.027344 -75.566406 C 49.191406 -77.304688 49.191406 -77.304688 50.394531 -77.980469 L 50.503906 -78.234375 C 50.183594 -78.527344 51.175781 -79.75 50.082031 -79.324219 L 49.71875 -79.183594 C 49.71875 -79.183594 49.394531 -79.476562 49.324219 -79.660156 C 49.375 -81.144531 49.5 -82.449219 49.621094 -83.753906 Z M 50.691406 -92.339844 "/></g></g></g><g fill="#000000" fill-opacity="1"><g transform="translate(121.08391, 184.687038)"><g><path d="M 15 -29.90625 L 15.214844 -29.359375 L 15.832031 -29.386719 L 16.710938 -30.359375 C 16.824219 -30.609375 16.863281 -31.046875 16.976562 -31.296875 C 17.378906 -31.875 17.28125 -32.671875 18.261719 -32.84375 C 18.359375 -32.046875 18.390625 -31.429688 18.421875 -30.8125 L 20.335938 -37.210938 C 20.671875 -37.96875 21.1875 -38.796875 21.269531 -39.667969 C 21.503906 -41.222656 21.484375 -42.890625 22.40625 -44.296875 C 22.8125 -44.871094 23.035156 -45.378906 23.257812 -45.882812 C 23.480469 -46.386719 23.519531 -46.824219 23.742188 -47.328125 L 24.414062 -48.84375 C 23.261719 -49.652344 23.191406 -49.835938 24.433594 -50.949219 C 24.546875 -51.199219 24.585938 -51.632812 24.699219 -51.886719 L 24.820312 -53.191406 C 24.144531 -54.394531 24.265625 -55.699219 25.398438 -56.558594 C 25.300781 -57.355469 25.269531 -57.972656 25.058594 -58.519531 C 24.847656 -59.066406 24.746094 -59.863281 24.171875 -60.269531 L 23.675781 -61.542969 C 19.433594 -64.925781 14.621094 -65.992188 9.523438 -64.015625 C 1.148438 -60.765625 -5.441406 -55.070312 -10.917969 -48.128906 C -11.320312 -47.550781 -11.472656 -46.863281 -11.878906 -46.289062 L -11.667969 -45.742188 C -10.867188 -45.84375 -9.929688 -45.578125 -9.269531 -46.042969 C -7.882812 -46.789062 -6.640625 -47.902344 -5.324219 -48.832031 C -3.898438 -50.011719 -2.472656 -51.195312 -0.863281 -52.445312 L -0.648438 -51.902344 L -3.726562 -38.769531 C -4.820312 -34.574219 -5.917969 -30.378906 -6.761719 -26.074219 C -8.589844 -17.824219 -10.234375 -9.644531 -11.878906 -1.46875 C -12.527344 1.71875 -13.359375 4.972656 -12.890625 8.351562 C -12.648438 9.511719 -12.589844 10.746094 -12.527344 11.980469 C -12.570312 12.414062 -12.972656 12.992188 -12.832031 13.355469 C -12.339844 14.628906 -12.785156 15.640625 -13.230469 16.652344 C -14.050781 18.855469 -15.125 20.945312 -15.945312 23.148438 C -16.835938 25.171875 -16.425781 27.316406 -15.648438 29.316406 C -15.367188 30.046875 -13.839844 29.664062 -13.109375 29.378906 C -12.746094 29.238281 -12.128906 29.210938 -12.019531 28.957031 C -11.5 28.128906 -11.925781 27.035156 -12.824219 26.335938 C -12.589844 24.78125 -10.394531 22.882812 -8.9375 22.316406 C -8.320312 22.289062 -8.140625 22.214844 -8.167969 21.601562 C -8.53125 17.96875 -6.828125 14.796875 -5.886719 11.289062 C -5.734375 10.601562 -5.398438 9.84375 -5.316406 8.972656 C -5.386719 8.792969 -5.277344 8.539062 -5.09375 8.46875 C -2.371094 4.6875 -0.335938 0.757812 1.882812 -3.242188 L 5.316406 -8.972656 C 6.9375 -11.277344 8.304688 -13.691406 9.417969 -16.21875 L 12.304688 -21.738281 L 11.941406 -21.597656 C 9.9375 -20.820312 9.988281 -18.535156 8.558594 -17.351562 L 7.800781 -17.6875 L 9.140625 -20.71875 C 8.621094 -19.890625 8.175781 -18.878906 7.660156 -18.050781 L 7.589844 -18.234375 L 4.492188 -13.261719 L 4.5625 -13.078125 C 4.085938 -12.6875 3.792969 -12.363281 3.753906 -11.925781 C 3.324219 -9.25 1.421875 -7.671875 0.167969 -5.511719 C -0.753906 -4.105469 -1.929688 -2.8125 -3.101562 -1.519531 C -1.261719 -4.328125 -0.5 -7.765625 2.609375 -10.019531 C 1.921875 -10.171875 1.414062 -10.394531 1.304688 -10.140625 C 0.605469 -9.242188 -0.09375 -8.339844 -0.722656 -7.261719 C -1.054688 -6.503906 -1.136719 -5.632812 -1.472656 -4.875 C -1.582031 -4.621094 -1.949219 -4.480469 -2.242188 -4.15625 C -2.644531 -3.582031 -3.050781 -3.003906 -3.566406 -2.175781 C -3.554688 -3.230469 -3.585938 -3.84375 -3.433594 -4.53125 C -3.28125 -5.21875 -2.875 -5.796875 -2.722656 -6.484375 C -2.5 -6.988281 -2.097656 -7.566406 -2.238281 -7.929688 C -2.660156 -9.019531 -2.328125 -9.78125 -1.738281 -10.425781 C -1.628906 -10.679688 -1.40625 -11.183594 -1.476562 -11.367188 C -1.941406 -12.023438 -1.535156 -12.601562 -1.382812 -13.289062 C -0.96875 -14.914062 -0.550781 -16.542969 -0.207031 -18.351562 C -0.0546875 -19.039062 0.0273438 -19.910156 0.179688 -20.597656 C 0.445312 -21.535156 0.777344 -22.292969 1.042969 -23.234375 L 1.164062 -24.539062 L 1.957031 -27.359375 C 2.039062 -28.226562 1.9375 -29.027344 2.089844 -29.714844 C 2.507812 -31.34375 3.105469 -33.039062 3.519531 -34.667969 L 4.3125 -37.488281 C 6.074219 -43.199219 7.789062 -47.421875 10.5625 -52.6875 C 11.191406 -53.769531 11.273438 -54.640625 10.921875 -55.550781 C 10.679688 -56.714844 9.890625 -57.664062 11.894531 -58.441406 C 12.804688 -58.792969 13.644531 -59.328125 14.554688 -59.683594 C 15.28125 -59.964844 16.082031 -60.066406 16.878906 -60.164062 C 18.113281 -60.226562 20.894531 -59 21.0625 -58.019531 C 21.445312 -56.492188 21.898438 -54.78125 21.738281 -53.042969 C 21.644531 -51.121094 20.933594 -49.171875 20.40625 -47.289062 C 20.253906 -46.601562 19.921875 -45.84375 19.585938 -45.085938 C 18.652344 -42.632812 17.792969 -39.992188 16.859375 -37.535156 C 16.414062 -36.527344 15.714844 -35.628906 15.085938 -34.546875 L 15.296875 -34 C 16.683594 -34.746094 16.382812 -37.144531 18.203125 -37.847656 L 18.75 -38.0625 C 18.039062 -36.109375 17.332031 -34.160156 16.550781 -32.390625 C 16.328125 -31.886719 16.105469 -31.378906 16.679688 -30.976562 Z M 16.03125 -27.789062 C 15.808594 -27.285156 15.402344 -26.710938 15.179688 -26.203125 C 14.886719 -25.878906 14.59375 -25.558594 14.734375 -25.191406 C 14.976562 -24.03125 14.15625 -21.828125 13.203125 -21.039062 C 13.640625 -21 14.253906 -21.027344 14.367188 -21.28125 C 15.398438 -22.9375 16.25 -24.523438 17.101562 -26.109375 L 17.769531 -27.628906 C 17.476562 -27.304688 17.113281 -27.164062 16.929688 -27.09375 C 16.75 -27.023438 16.679688 -27.203125 16.464844 -27.75 C 17.195312 -28.03125 17.742188 -28.242188 18.398438 -28.707031 C 18.4375 -29.144531 18.589844 -29.832031 18.742188 -30.519531 C 18.492188 -30.628906 18.308594 -30.558594 18.125 -30.488281 C 17.761719 -30.347656 17.46875 -30.023438 17.175781 -29.699219 C 17.0625 -29.449219 16.769531 -29.125 16.40625 -28.984375 C 15.75 -28.519531 15.019531 -28.238281 14.363281 -27.773438 L 14.574219 -27.226562 L 15.121094 -27.4375 C 15.414062 -27.761719 15.527344 -28.011719 15.820312 -28.335938 Z M 16.03125 -27.789062 "/></g></g></g><g fill="#000000" fill-opacity="1"><g transform="translate(159.316203, 169.859198)"><g><path d="M 0.671875 4.976562 L 1.429688 5.308594 C 1.9375 5.53125 1.9375 5.53125 2.410156 5.136719 C 3.070312 4.675781 3.222656 3.988281 3.304688 3.117188 C 3.316406 2.066406 3.324219 1.015625 3.769531 0.00390625 C 3.996094 -0.5 4.398438 -1.078125 4.371094 -1.695312 C 4.300781 -1.875 4.410156 -2.128906 4.523438 -2.382812 C 4.632812 -2.632812 4.816406 -2.707031 4.746094 -2.886719 C 4.753906 -3.9375 5.699219 -7.445312 6.214844 -8.273438 C 6.660156 -9.285156 6.855469 -10.40625 7.300781 -11.417969 C 7.816406 -12.246094 7.828125 -13.300781 8.34375 -14.128906 C 8.132812 -14.671875 8.679688 -14.886719 8.972656 -15.207031 C 9.449219 -15.601562 9.851562 -16.179688 10.511719 -16.644531 C 11.351562 -17.179688 11.796875 -18.1875 12.777344 -18.359375 C 13.40625 -19.441406 14.425781 -20.046875 15.195312 -20.765625 C 15.488281 -21.085938 15.78125 -21.410156 16.003906 -21.917969 C 16.046875 -22.351562 16.339844 -22.675781 16.703125 -22.816406 C 17.363281 -23.28125 17.765625 -23.855469 18.425781 -24.320312 C 18.898438 -24.714844 19.304688 -25.289062 19.710938 -25.867188 C 19.820312 -26.117188 19.933594 -26.371094 20.113281 -26.441406 C 20.660156 -26.652344 21.066406 -27.230469 21.542969 -27.625 L 22.96875 -28.804688 C 23.808594 -29.339844 24.941406 -30.199219 25.851562 -30.550781 L 26.0625 -30.007812 C 25.910156 -29.320312 26.011719 -28.519531 26.042969 -27.902344 L 26.007812 -24.75 C 26.109375 -23.949219 26.390625 -23.222656 26.492188 -22.421875 C 26.410156 -21.554688 26.246094 -19.8125 26.597656 -18.902344 C 26.667969 -18.722656 26.628906 -18.285156 26.515625 -18.035156 C 26.40625 -17.78125 26.546875 -17.417969 26.6875 -17.054688 C 26.71875 -16.4375 26.675781 -16 26.707031 -15.382812 C 26.90625 -13.785156 27.136719 -11.574219 27.15625 -9.902344 C 27.1875 -9.289062 27.214844 -8.671875 27.429688 -8.125 C 27.640625 -7.578125 27.234375 -7.003906 27.699219 -6.34375 C 27.546875 -5.65625 27.828125 -4.929688 27.859375 -4.3125 L 28.371094 -1.371094 C 28.503906 0.046875 28.632812 1.460938 28.582031 2.949219 L 28.457031 4.253906 C 28.628906 5.234375 28.984375 6.144531 29.152344 7.125 L 29.367188 7.671875 L 29.667969 10.066406 C 29.835938 11.046875 30.007812 12.027344 30.433594 13.121094 C 30.503906 13.304688 30.390625 13.554688 30.460938 13.738281 C 30.5625 14.539062 30.480469 15.40625 30.761719 16.136719 L 30.976562 16.679688 C 30.824219 17.367188 31.035156 17.914062 31.246094 18.460938 C 31.316406 18.644531 31.386719 18.824219 31.277344 19.078125 C 31.164062 19.332031 32.042969 22.132812 32.183594 22.496094 C 33.304688 22.6875 34.285156 22.519531 35.195312 22.164062 C 35.054688 21.800781 34.730469 21.507812 34.84375 21.253906 C 34.996094 20.566406 34.714844 19.839844 34.429688 19.109375 L 34.097656 19.867188 L 33.339844 19.535156 L 33.003906 20.292969 L 32.246094 19.957031 L 32.105469 19.59375 C 32.214844 19.339844 32.144531 19.160156 32.074219 18.976562 L 31.527344 19.1875 C 31.640625 18.9375 31.429688 18.390625 31.539062 18.136719 C 31.652344 17.886719 31.652344 17.886719 32.015625 17.742188 L 31.59375 16.652344 L 31.925781 15.894531 C 31.574219 14.984375 31.503906 14.800781 31.867188 14.660156 L 32.414062 14.449219 L 32.695312 15.175781 C 32.886719 14.054688 33.40625 13.226562 33.164062 12.0625 C 33.09375 11.878906 33.386719 11.558594 33.496094 11.304688 C 33.105469 10.828125 33.074219 10.210938 33.226562 9.523438 C 33.335938 9.273438 33.265625 9.089844 33.195312 8.90625 L 32.703125 7.632812 L 32.339844 7.773438 C 32.449219 7.523438 32.5625 7.269531 32.492188 7.085938 C 32.601562 6.835938 32.277344 6.542969 32.320312 6.105469 C 32.429688 5.855469 32.289062 5.488281 32.148438 5.125 C 32.007812 4.761719 32.1875 4.691406 32.300781 4.4375 C 32.414062 4.183594 32.269531 3.820312 32.199219 3.640625 C 32.128906 3.457031 31.878906 3.34375 31.804688 3.164062 C 32.757812 2.375 32.152344 1.355469 32.667969 0.523438 C 32.34375 0.230469 32.023438 -0.0625 31.546875 0.332031 L 31.335938 -0.214844 C 31.699219 -0.355469 32.0625 -0.496094 32.679688 -0.527344 C 32.03125 -1.113281 32.507812 -1.507812 32.550781 -1.941406 L 32.40625 -2.304688 L 31.648438 -2.640625 C 32.265625 -2.671875 32.054688 -3.214844 32.347656 -3.539062 C 32.570312 -4.046875 31.996094 -4.449219 32.035156 -4.882812 L 32.492188 -6.945312 L 33.039062 -7.160156 C 33.082031 -7.59375 32.828125 -7.703125 32.28125 -7.492188 L 32.617188 -8.25 C 32.222656 -8.726562 32.011719 -9.273438 31.980469 -9.890625 L 32.527344 -10.101562 C 32.386719 -10.464844 32.425781 -10.898438 31.738281 -11.050781 C 32.648438 -11.40625 32.113281 -12.246094 32.519531 -12.820312 C 31.691406 -13.335938 31.550781 -13.703125 31.882812 -14.460938 C 32.136719 -14.347656 32.386719 -14.238281 32.710938 -13.945312 C 32.683594 -14.558594 32.46875 -15.105469 32.511719 -15.542969 C 32.550781 -15.976562 32.339844 -16.523438 32.816406 -16.917969 C 32.5625 -17.027344 32.308594 -17.140625 31.988281 -17.433594 C 32.351562 -17.574219 32.785156 -17.53125 32.574219 -18.078125 C 33.089844 -18.90625 32.484375 -19.929688 32.75 -20.871094 C 32.3125 -20.910156 32.0625 -21.023438 32.101562 -21.457031 C 32.03125 -21.636719 31.890625 -22.003906 32.394531 -21.78125 C 32.6875 -22.101562 32.730469 -22.539062 32.589844 -22.902344 C 32.417969 -23.882812 32.609375 -25.003906 32.621094 -26.054688 C 32.664062 -26.492188 32.773438 -26.742188 32.632812 -27.109375 C 32.5625 -27.289062 32.492188 -27.472656 32.601562 -27.726562 C 32.785156 -27.796875 32.714844 -27.976562 32.644531 -28.160156 C 32.363281 -28.886719 32.515625 -29.574219 32.667969 -30.261719 C 32.898438 -31.820312 32.699219 -33.417969 32.679688 -35.085938 C 32.285156 -35.5625 32.507812 -36.066406 32.984375 -36.460938 C 33.894531 -36.8125 35.210938 -37.742188 36.050781 -38.277344 C 36.527344 -38.671875 37 -39.066406 37.222656 -39.570312 L 37.449219 -40.074219 C 36.984375 -40.734375 36.589844 -41.210938 36.195312 -41.683594 C 35.871094 -41.976562 35.691406 -41.90625 35.394531 -41.585938 L 34.851562 -41.371094 C 34.121094 -41.089844 33.535156 -40.445312 32.878906 -39.980469 L 32.371094 -40.203125 C 32.453125 -41.070312 32.28125 -42.050781 32.546875 -42.992188 C 32.585938 -43.425781 32.558594 -44.042969 32.527344 -44.660156 C 32.570312 -45.09375 32.425781 -45.460938 32.285156 -45.824219 C 32.761719 -46.21875 32.367188 -46.695312 32.410156 -47.128906 C 32.632812 -47.632812 32.601562 -48.25 32.640625 -48.683594 C 32.792969 -49.371094 32.511719 -50.101562 32.664062 -50.789062 C 32.929688 -51.726562 32.828125 -52.527344 32.726562 -53.324219 C 32.738281 -54.378906 32.386719 -55.289062 32.902344 -56.117188 C 32.832031 -56.296875 33.117188 -59.339844 33.230469 -59.59375 C 32.695312 -60.433594 33.210938 -61.261719 33.109375 -62.0625 L 33.230469 -63.367188 C 33.296875 -65.902344 33.609375 -68.328125 34.542969 -70.785156 C 34.65625 -71.039062 34.585938 -71.222656 34.511719 -71.402344 C 34.300781 -71.949219 34.089844 -72.496094 34.3125 -73 C 34.535156 -73.507812 34.578125 -73.941406 34.433594 -74.304688 L 34.011719 -75.398438 C 33.941406 -75.578125 33.871094 -75.761719 34.050781 -75.832031 C 34.347656 -76.15625 34.203125 -76.519531 34.0625 -76.882812 C 33.78125 -77.613281 33.316406 -78.269531 33.398438 -79.140625 C 33.4375 -79.574219 33.367188 -79.753906 33.046875 -80.050781 L 33.085938 -80.484375 C 32.117188 -81.363281 31.246094 -81.445312 30.15625 -81.023438 C 29.972656 -80.953125 29.789062 -80.882812 29.539062 -80.992188 C 29.285156 -81.105469 29.101562 -81.035156 28.921875 -80.960938 C 27.828125 -80.539062 27.542969 -77.496094 27.460938 -76.625 C 27.53125 -76.445312 27.347656 -76.375 27.421875 -76.191406 C 27.117188 -74.816406 26.628906 -73.371094 26.578125 -71.886719 L 26.332031 -69.277344 C 26.402344 -69.09375 26.21875 -69.023438 26.039062 -68.953125 C 25.070312 -69.835938 24.167969 -70.53125 22.863281 -70.65625 C 22.640625 -70.148438 22.417969 -69.644531 22.125 -69.320312 L 21.792969 -68.5625 C 21.570312 -68.058594 21.527344 -67.625 21.304688 -67.117188 C 20.746094 -65.855469 20.441406 -64.480469 19.886719 -63.214844 C 19.734375 -62.527344 19.761719 -61.910156 19.175781 -61.265625 C 18.769531 -60.6875 18.6875 -59.820312 18.355469 -59.0625 C 18.132812 -58.554688 18.089844 -58.121094 17.617188 -57.726562 C 17.433594 -57.65625 17.503906 -57.476562 17.574219 -57.292969 L 14.898438 -51.230469 C 14.566406 -50.472656 14.191406 -49.277344 14.039062 -48.589844 L 11.363281 -42.527344 L 11.179688 -42.457031 C 11.394531 -41.910156 11.097656 -41.585938 11.058594 -41.152344 L 10.9375 -39.847656 C 10.785156 -39.160156 10.378906 -38.585938 10.226562 -37.898438 C 9.953125 -35.90625 9.171875 -34.136719 8.644531 -32.257812 C 8.339844 -30.882812 7.78125 -29.617188 7.476562 -28.242188 C 7.101562 -27.050781 6.726562 -25.859375 6.28125 -24.847656 C 6.171875 -24.59375 6.128906 -24.160156 6.089844 -23.726562 C 6.117188 -23.109375 5.460938 -22.644531 5.488281 -22.027344 C 5.5625 -21.84375 5.015625 -21.632812 4.652344 -21.492188 L 3.375 -20.996094 C 3.265625 -20.746094 3.082031 -20.675781 2.902344 -20.605469 C 2.71875 -20.53125 2.285156 -20.574219 2.171875 -20.320312 C 2.0625 -20.070312 1.695312 -19.925781 1.515625 -19.855469 L 0.0585938 -19.292969 C -0.0546875 -19.039062 -0.417969 -18.898438 -0.597656 -18.828125 C -1.144531 -18.617188 -1.582031 -18.65625 -2.195312 -18.625 C -2.632812 -18.667969 -2.8125 -18.597656 -2.925781 -18.34375 C -3.035156 -18.089844 -3.148438 -17.839844 -2.824219 -17.546875 L -2.613281 -17 C -2.441406 -16.019531 -1.613281 -15.5 -0.96875 -14.914062 C -0.460938 -14.691406 0.0429688 -14.46875 0.4375 -13.992188 C 0.832031 -13.519531 1.488281 -13.980469 1.996094 -13.757812 C 2.5 -13.535156 2.640625 -13.171875 2.488281 -12.484375 C 2.335938 -11.796875 1.929688 -11.222656 2.03125 -10.421875 C 2.101562 -10.242188 2.171875 -10.058594 2.0625 -9.804688 C 1.6875 -8.613281 1.5625 -7.308594 1.441406 -6.003906 L 0.863281 -2.636719 C 0.597656 -1.699219 0.515625 -0.828125 0.253906 0.113281 C -0.164062 1.738281 -0.328125 3.476562 0.671875 4.976562 Z M 13.628906 -30.210938 L 14.699219 -32.300781 C 14.8125 -32.554688 15.105469 -32.878906 15.144531 -33.3125 C 15.1875 -33.746094 15.480469 -34.070312 15.773438 -34.394531 C 15.996094 -34.898438 16.21875 -35.402344 16.191406 -36.019531 C 16.203125 -37.074219 16.757812 -38.335938 17.273438 -39.164062 L 17.457031 -39.234375 C 17.722656 -40.175781 18.167969 -41.1875 18.867188 -42.085938 C 18.945312 -42.953125 19.535156 -43.601562 19.867188 -44.359375 C 20.3125 -45.371094 21.195312 -46.339844 21.136719 -47.574219 C 21.539062 -48.148438 21.691406 -48.835938 22.097656 -49.414062 L 23.101562 -51.6875 C 23.210938 -51.9375 23.253906 -52.375 23.617188 -52.515625 C 23.800781 -52.585938 23.910156 -52.839844 24.023438 -53.089844 L 23.808594 -53.636719 L 24.144531 -54.394531 C 24.175781 -53.777344 24.386719 -53.234375 24.414062 -52.617188 L 24.21875 -47.722656 C 24.347656 -46.304688 24.296875 -44.820312 24.425781 -43.40625 C 24.386719 -42.96875 24.527344 -42.605469 24.667969 -42.242188 C 24.738281 -42.058594 24.882812 -41.695312 24.769531 -41.441406 C 24.800781 -40.824219 25.191406 -40.351562 25.039062 -39.664062 C 25.070312 -39.046875 25.28125 -38.5 25.3125 -37.882812 C 25.34375 -37.265625 25.441406 -36.46875 25.472656 -35.851562 C 25.5 -35.234375 25.207031 -34.910156 24.84375 -34.769531 C 24.117188 -34.488281 23.457031 -34.023438 22.800781 -33.558594 C 22.507812 -33.234375 22.144531 -33.09375 21.777344 -32.953125 L 19.59375 -32.105469 C 18.867188 -31.824219 18.207031 -31.359375 17.550781 -30.894531 C 17.1875 -30.753906 16.894531 -30.429688 16.527344 -30.289062 L 16.164062 -30.144531 C 15.617188 -29.933594 15.144531 -29.539062 14.777344 -29.398438 C 14.554688 -28.894531 14.121094 -28.933594 13.757812 -28.792969 C 13.179688 -29.199219 13.332031 -29.886719 13.628906 -30.210938 Z M 13.628906 -30.210938 "/></g></g></g><g fill="#000000" fill-opacity="1"><g transform="translate(210.110528, 150.159357)"><g><path d="M 0.671875 4.976562 L 1.429688 5.308594 C 1.9375 5.53125 1.9375 5.53125 2.410156 5.136719 C 3.070312 4.675781 3.222656 3.988281 3.304688 3.117188 C 3.316406 2.066406 3.324219 1.015625 3.769531 0.00390625 C 3.996094 -0.5 4.398438 -1.078125 4.371094 -1.695312 C 4.300781 -1.875 4.410156 -2.128906 4.523438 -2.382812 C 4.632812 -2.632812 4.816406 -2.707031 4.746094 -2.886719 C 4.753906 -3.9375 5.699219 -7.445312 6.214844 -8.273438 C 6.660156 -9.285156 6.855469 -10.40625 7.300781 -11.417969 C 7.816406 -12.246094 7.828125 -13.300781 8.34375 -14.128906 C 8.132812 -14.671875 8.679688 -14.886719 8.972656 -15.207031 C 9.449219 -15.601562 9.851562 -16.179688 10.511719 -16.644531 C 11.351562 -17.179688 11.796875 -18.1875 12.777344 -18.359375 C 13.40625 -19.441406 14.425781 -20.046875 15.195312 -20.765625 C 15.488281 -21.085938 15.78125 -21.410156 16.003906 -21.917969 C 16.046875 -22.351562 16.339844 -22.675781 16.703125 -22.816406 C 17.363281 -23.28125 17.765625 -23.855469 18.425781 -24.320312 C 18.898438 -24.714844 19.304688 -25.289062 19.710938 -25.867188 C 19.820312 -26.117188 19.933594 -26.371094 20.113281 -26.441406 C 20.660156 -26.652344 21.066406 -27.230469 21.542969 -27.625 L 22.96875 -28.804688 C 23.808594 -29.339844 24.941406 -30.199219 25.851562 -30.550781 L 26.0625 -30.007812 C 25.910156 -29.320312 26.011719 -28.519531 26.042969 -27.902344 L 26.007812 -24.75 C 26.109375 -23.949219 26.390625 -23.222656 26.492188 -22.421875 C 26.410156 -21.554688 26.246094 -19.8125 26.597656 -18.902344 C 26.667969 -18.722656 26.628906 -18.285156 26.515625 -18.035156 C 26.40625 -17.78125 26.546875 -17.417969 26.6875 -17.054688 C 26.71875 -16.4375 26.675781 -16 26.707031 -15.382812 C 26.90625 -13.785156 27.136719 -11.574219 27.15625 -9.902344 C 27.1875 -9.289062 27.214844 -8.671875 27.429688 -8.125 C 27.640625 -7.578125 27.234375 -7.003906 27.699219 -6.34375 C 27.546875 -5.65625 27.828125 -4.929688 27.859375 -4.3125 L 28.371094 -1.371094 C 28.503906 0.046875 28.632812 1.460938 28.582031 2.949219 L 28.457031 4.253906 C 28.628906 5.234375 28.984375 6.144531 29.152344 7.125 L 29.367188 7.671875 L 29.667969 10.066406 C 29.835938 11.046875 30.007812 12.027344 30.433594 13.121094 C 30.503906 13.304688 30.390625 13.554688 30.460938 13.738281 C 30.5625 14.539062 30.480469 15.40625 30.761719 16.136719 L 30.976562 16.679688 C 30.824219 17.367188 31.035156 17.914062 31.246094 18.460938 C 31.316406 18.644531 31.386719 18.824219 31.277344 19.078125 C 31.164062 19.332031 32.042969 22.132812 32.183594 22.496094 C 33.304688 22.6875 34.285156 22.519531 35.195312 22.164062 C 35.054688 21.800781 34.730469 21.507812 34.84375 21.253906 C 34.996094 20.566406 34.714844 19.839844 34.429688 19.109375 L 34.097656 19.867188 L 33.339844 19.535156 L 33.003906 20.292969 L 32.246094 19.957031 L 32.105469 19.59375 C 32.214844 19.339844 32.144531 19.160156 32.074219 18.976562 L 31.527344 19.1875 C 31.640625 18.9375 31.429688 18.390625 31.539062 18.136719 C 31.652344 17.886719 31.652344 17.886719 32.015625 17.742188 L 31.59375 16.652344 L 31.925781 15.894531 C 31.574219 14.984375 31.503906 14.800781 31.867188 14.660156 L 32.414062 14.449219 L 32.695312 15.175781 C 32.886719 14.054688 33.40625 13.226562 33.164062 12.0625 C 33.09375 11.878906 33.386719 11.558594 33.496094 11.304688 C 33.105469 10.828125 33.074219 10.210938 33.226562 9.523438 C 33.335938 9.273438 33.265625 9.089844 33.195312 8.90625 L 32.703125 7.632812 L 32.339844 7.773438 C 32.449219 7.523438 32.5625 7.269531 32.492188 7.085938 C 32.601562 6.835938 32.277344 6.542969 32.320312 6.105469 C 32.429688 5.855469 32.289062 5.488281 32.148438 5.125 C 32.007812 4.761719 32.1875 4.691406 32.300781 4.4375 C 32.414062 4.183594 32.269531 3.820312 32.199219 3.640625 C 32.128906 3.457031 31.878906 3.34375 31.804688 3.164062 C 32.757812 2.375 32.152344 1.355469 32.667969 0.523438 C 32.34375 0.230469 32.023438 -0.0625 31.546875 0.332031 L 31.335938 -0.214844 C 31.699219 -0.355469 32.0625 -0.496094 32.679688 -0.527344 C 32.03125 -1.113281 32.507812 -1.507812 32.550781 -1.941406 L 32.40625 -2.304688 L 31.648438 -2.640625 C 32.265625 -2.671875 32.054688 -3.214844 32.347656 -3.539062 C 32.570312 -4.046875 31.996094 -4.449219 32.035156 -4.882812 L 32.492188 -6.945312 L 33.039062 -7.160156 C 33.082031 -7.59375 32.828125 -7.703125 32.28125 -7.492188 L 32.617188 -8.25 C 32.222656 -8.726562 32.011719 -9.273438 31.980469 -9.890625 L 32.527344 -10.101562 C 32.386719 -10.464844 32.425781 -10.898438 31.738281 -11.050781 C 32.648438 -11.40625 32.113281 -12.246094 32.519531 -12.820312 C 31.691406 -13.335938 31.550781 -13.703125 31.882812 -14.460938 C 32.136719 -14.347656 32.386719 -14.238281 32.710938 -13.945312 C 32.683594 -14.558594 32.46875 -15.105469 32.511719 -15.542969 C 32.550781 -15.976562 32.339844 -16.523438 32.816406 -16.917969 C 32.5625 -17.027344 32.308594 -17.140625 31.988281 -17.433594 C 32.351562 -17.574219 32.785156 -17.53125 32.574219 -18.078125 C 33.089844 -18.90625 32.484375 -19.929688 32.75 -20.871094 C 32.3125 -20.910156 32.0625 -21.023438 32.101562 -21.457031 C 32.03125 -21.636719 31.890625 -22.003906 32.394531 -21.78125 C 32.6875 -22.101562 32.730469 -22.539062 32.589844 -22.902344 C 32.417969 -23.882812 32.609375 -25.003906 32.621094 -26.054688 C 32.664062 -26.492188 32.773438 -26.742188 32.632812 -27.109375 C 32.5625 -27.289062 32.492188 -27.472656 32.601562 -27.726562 C 32.785156 -27.796875 32.714844 -27.976562 32.644531 -28.160156 C 32.363281 -28.886719 32.515625 -29.574219 32.667969 -30.261719 C 32.898438 -31.820312 32.699219 -33.417969 32.679688 -35.085938 C 32.285156 -35.5625 32.507812 -36.066406 32.984375 -36.460938 C 33.894531 -36.8125 35.210938 -37.742188 36.050781 -38.277344 C 36.527344 -38.671875 37 -39.066406 37.222656 -39.570312 L 37.449219 -40.074219 C 36.984375 -40.734375 36.589844 -41.210938 36.195312 -41.683594 C 35.871094 -41.976562 35.691406 -41.90625 35.394531 -41.585938 L 34.851562 -41.371094 C 34.121094 -41.089844 33.535156 -40.445312 32.878906 -39.980469 L 32.371094 -40.203125 C 32.453125 -41.070312 32.28125 -42.050781 32.546875 -42.992188 C 32.585938 -43.425781 32.558594 -44.042969 32.527344 -44.660156 C 32.570312 -45.09375 32.425781 -45.460938 32.285156 -45.824219 C 32.761719 -46.21875 32.367188 -46.695312 32.410156 -47.128906 C 32.632812 -47.632812 32.601562 -48.25 32.640625 -48.683594 C 32.792969 -49.371094 32.511719 -50.101562 32.664062 -50.789062 C 32.929688 -51.726562 32.828125 -52.527344 32.726562 -53.324219 C 32.738281 -54.378906 32.386719 -55.289062 32.902344 -56.117188 C 32.832031 -56.296875 33.117188 -59.339844 33.230469 -59.59375 C 32.695312 -60.433594 33.210938 -61.261719 33.109375 -62.0625 L 33.230469 -63.367188 C 33.296875 -65.902344 33.609375 -68.328125 34.542969 -70.785156 C 34.65625 -71.039062 34.585938 -71.222656 34.511719 -71.402344 C 34.300781 -71.949219 34.089844 -72.496094 34.3125 -73 C 34.535156 -73.507812 34.578125 -73.941406 34.433594 -74.304688 L 34.011719 -75.398438 C 33.941406 -75.578125 33.871094 -75.761719 34.050781 -75.832031 C 34.347656 -76.15625 34.203125 -76.519531 34.0625 -76.882812 C 33.78125 -77.613281 33.316406 -78.269531 33.398438 -79.140625 C 33.4375 -79.574219 33.367188 -79.753906 33.046875 -80.050781 L 33.085938 -80.484375 C 32.117188 -81.363281 31.246094 -81.445312 30.15625 -81.023438 C 29.972656 -80.953125 29.789062 -80.882812 29.539062 -80.992188 C 29.285156 -81.105469 29.101562 -81.035156 28.921875 -80.960938 C 27.828125 -80.539062 27.542969 -77.496094 27.460938 -76.625 C 27.53125 -76.445312 27.347656 -76.375 27.421875 -76.191406 C 27.117188 -74.816406 26.628906 -73.371094 26.578125 -71.886719 L 26.332031 -69.277344 C 26.402344 -69.09375 26.21875 -69.023438 26.039062 -68.953125 C 25.070312 -69.835938 24.167969 -70.53125 22.863281 -70.65625 C 22.640625 -70.148438 22.417969 -69.644531 22.125 -69.320312 L 21.792969 -68.5625 C 21.570312 -68.058594 21.527344 -67.625 21.304688 -67.117188 C 20.746094 -65.855469 20.441406 -64.480469 19.886719 -63.214844 C 19.734375 -62.527344 19.761719 -61.910156 19.175781 -61.265625 C 18.769531 -60.6875 18.6875 -59.820312 18.355469 -59.0625 C 18.132812 -58.554688 18.089844 -58.121094 17.617188 -57.726562 C 17.433594 -57.65625 17.503906 -57.476562 17.574219 -57.292969 L 14.898438 -51.230469 C 14.566406 -50.472656 14.191406 -49.277344 14.039062 -48.589844 L 11.363281 -42.527344 L 11.179688 -42.457031 C 11.394531 -41.910156 11.097656 -41.585938 11.058594 -41.152344 L 10.9375 -39.847656 C 10.785156 -39.160156 10.378906 -38.585938 10.226562 -37.898438 C 9.953125 -35.90625 9.171875 -34.136719 8.644531 -32.257812 C 8.339844 -30.882812 7.78125 -29.617188 7.476562 -28.242188 C 7.101562 -27.050781 6.726562 -25.859375 6.28125 -24.847656 C 6.171875 -24.59375 6.128906 -24.160156 6.089844 -23.726562 C 6.117188 -23.109375 5.460938 -22.644531 5.488281 -22.027344 C 5.5625 -21.84375 5.015625 -21.632812 4.652344 -21.492188 L 3.375 -20.996094 C 3.265625 -20.746094 3.082031 -20.675781 2.902344 -20.605469 C 2.71875 -20.53125 2.285156 -20.574219 2.171875 -20.320312 C 2.0625 -20.070312 1.695312 -19.925781 1.515625 -19.855469 L 0.0585938 -19.292969 C -0.0546875 -19.039062 -0.417969 -18.898438 -0.597656 -18.828125 C -1.144531 -18.617188 -1.582031 -18.65625 -2.195312 -18.625 C -2.632812 -18.667969 -2.8125 -18.597656 -2.925781 -18.34375 C -3.035156 -18.089844 -3.148438 -17.839844 -2.824219 -17.546875 L -2.613281 -17 C -2.441406 -16.019531 -1.613281 -15.5 -0.96875 -14.914062 C -0.460938 -14.691406 0.0429688 -14.46875 0.4375 -13.992188 C 0.832031 -13.519531 1.488281 -13.980469 1.996094 -13.757812 C 2.5 -13.535156 2.640625 -13.171875 2.488281 -12.484375 C 2.335938 -11.796875 1.929688 -11.222656 2.03125 -10.421875 C 2.101562 -10.242188 2.171875 -10.058594 2.0625 -9.804688 C 1.6875 -8.613281 1.5625 -7.308594 1.441406 -6.003906 L 0.863281 -2.636719 C 0.597656 -1.699219 0.515625 -0.828125 0.253906 0.113281 C -0.164062 1.738281 -0.328125 3.476562 0.671875 4.976562 Z M 13.628906 -30.210938 L 14.699219 -32.300781 C 14.8125 -32.554688 15.105469 -32.878906 15.144531 -33.3125 C 15.1875 -33.746094 15.480469 -34.070312 15.773438 -34.394531 C 15.996094 -34.898438 16.21875 -35.402344 16.191406 -36.019531 C 16.203125 -37.074219 16.757812 -38.335938 17.273438 -39.164062 L 17.457031 -39.234375 C 17.722656 -40.175781 18.167969 -41.1875 18.867188 -42.085938 C 18.945312 -42.953125 19.535156 -43.601562 19.867188 -44.359375 C 20.3125 -45.371094 21.195312 -46.339844 21.136719 -47.574219 C 21.539062 -48.148438 21.691406 -48.835938 22.097656 -49.414062 L 23.101562 -51.6875 C 23.210938 -51.9375 23.253906 -52.375 23.617188 -52.515625 C 23.800781 -52.585938 23.910156 -52.839844 24.023438 -53.089844 L 23.808594 -53.636719 L 24.144531 -54.394531 C 24.175781 -53.777344 24.386719 -53.234375 24.414062 -52.617188 L 24.21875 -47.722656 C 24.347656 -46.304688 24.296875 -44.820312 24.425781 -43.40625 C 24.386719 -42.96875 24.527344 -42.605469 24.667969 -42.242188 C 24.738281 -42.058594 24.882812 -41.695312 24.769531 -41.441406 C 24.800781 -40.824219 25.191406 -40.351562 25.039062 -39.664062 C 25.070312 -39.046875 25.28125 -38.5 25.3125 -37.882812 C 25.34375 -37.265625 25.441406 -36.46875 25.472656 -35.851562 C 25.5 -35.234375 25.207031 -34.910156 24.84375 -34.769531 C 24.117188 -34.488281 23.457031 -34.023438 22.800781 -33.558594 C 22.507812 -33.234375 22.144531 -33.09375 21.777344 -32.953125 L 19.59375 -32.105469 C 18.867188 -31.824219 18.207031 -31.359375 17.550781 -30.894531 C 17.1875 -30.753906 16.894531 -30.429688 16.527344 -30.289062 L 16.164062 -30.144531 C 15.617188 -29.933594 15.144531 -29.539062 14.777344 -29.398438 C 14.554688 -28.894531 14.121094 -28.933594 13.757812 -28.792969 C 13.179688 -29.199219 13.332031 -29.886719 13.628906 -30.210938 Z M 13.628906 -30.210938 "/></g></g></g><g fill="#000000" fill-opacity="1"><g transform="translate(260.904853, 130.459516)"><g><path d="M -2.082031 8.136719 C -1.9375 8.5 -1.6875 8.613281 -1.320312 8.472656 C -1.320312 8.472656 -1.140625 8.402344 -1.027344 8.148438 C 1.804688 4.117188 3.328125 -2.757812 4.394531 -7.570312 L 4.886719 -12.785156 C 4.96875 -13.65625 5.046875 -14.523438 5.199219 -15.210938 C 5.394531 -16.335938 5.335938 -17.566406 6.285156 -18.355469 C 6.46875 -18.425781 6.4375 -19.042969 6.480469 -19.476562 C 6.519531 -19.914062 6.308594 -20.457031 6.347656 -20.894531 C 6.613281 -21.832031 7.128906 -22.664062 7.464844 -23.421875 C 8.171875 -25.371094 8.375 -27.542969 8.832031 -29.605469 C 7.601562 -29.546875 7.792969 -30.667969 7.761719 -31.285156 C 7.59375 -32.265625 7.605469 -33.320312 8.484375 -34.289062 C 9.050781 -32.832031 9.726562 -31.628906 10.21875 -30.355469 L 12.214844 -23.589844 C 12.710938 -22.3125 13.386719 -21.109375 13.699219 -19.765625 C 15.097656 -15.070312 16.320312 -10.308594 17.71875 -5.617188 C 18.738281 -2.449219 19.9375 0.644531 21.140625 3.738281 C 21.5625 4.832031 22.9375 5.136719 23.957031 4.53125 L 24.503906 4.320312 C 25.960938 3.753906 27.417969 3.191406 27.761719 1.378906 C 28.140625 0.1875 28.007812 -1.226562 28.382812 -2.421875 C 28.871094 -3.867188 28.667969 -5.464844 28.722656 -6.949219 C 28.785156 -9.488281 28.777344 -12.207031 28.839844 -14.746094 C 28.921875 -15.617188 29.257812 -16.375 29.335938 -17.242188 L 29.527344 -24.855469 C 29.550781 -26.960938 30.078125 -28.839844 29.917969 -30.871094 C 29.867188 -33.15625 30.253906 -35.402344 30.457031 -37.574219 L 31.5625 -49.3125 C 31.722656 -51.050781 32.070312 -52.863281 32.234375 -54.601562 L 33.425781 -64.488281 C 33.660156 -66.042969 33.640625 -67.714844 33.875 -69.269531 L 34.578125 -73.941406 C 33.816406 -70.503906 32.941406 -66.8125 32.320312 -63.011719 C 31.46875 -57.65625 30.867188 -52.183594 30.011719 -46.828125 C 28.691406 -38.355469 27.113281 -29.996094 25.539062 -21.632812 C 25.347656 -20.511719 24.71875 -19.429688 24.527344 -18.308594 C 24.390625 -15.953125 24.441406 -13.667969 24.308594 -11.3125 C 24.265625 -10.878906 23.972656 -10.554688 23.863281 -10.300781 L 23.316406 -10.089844 L 22.46875 -12.273438 L 21.109375 -17.402344 C 20.652344 -19.109375 19.988281 -21.367188 19.351562 -23.003906 C 19.394531 -23.441406 19.433594 -23.875 19.292969 -24.238281 C 18.871094 -25.332031 18.265625 -26.351562 17.839844 -27.445312 C 17.417969 -28.539062 17.359375 -29.769531 17.117188 -30.933594 C 16.976562 -31.296875 17.015625 -31.734375 17.015625 -31.734375 C 17.671875 -32.199219 18.402344 -32.480469 18.511719 -32.734375 C 18.59375 -33.601562 18.605469 -34.652344 17.34375 -35.210938 C 17.261719 -34.339844 17.359375 -33.542969 17.460938 -32.742188 L 16.914062 -32.53125 C 16.601562 -33.878906 16.289062 -35.222656 15.835938 -36.929688 C 16.230469 -36.457031 16.484375 -36.34375 16.738281 -36.234375 L 17.28125 -36.445312 C 16.425781 -37.578125 18.074219 -39.265625 16.234375 -40.226562 C 16.234375 -40.226562 16.347656 -40.480469 16.277344 -40.660156 L 14.582031 -45.03125 C 14.367188 -45.578125 14.339844 -46.195312 14.128906 -46.742188 C 13.914062 -47.285156 13.339844 -47.691406 13.128906 -48.238281 C 12.027344 -50.535156 8.925781 -52.054688 6.558594 -51.136719 C 5.464844 -50.710938 4.695312 -49.996094 4.320312 -48.800781 C 3.683594 -46.667969 3.042969 -44.535156 2.65625 -42.292969 C 0.503906 -30.566406 -1.144531 -18.617188 -2.613281 -6.738281 C -3.019531 -2.390625 -3.703125 3.949219 -2.082031 8.136719 Z M 7.054688 -29.335938 C 7.378906 -29.042969 7.882812 -28.820312 8.023438 -28.457031 C 8.09375 -28.273438 7.617188 -27.878906 7.324219 -27.554688 L 7.003906 -27.847656 L 7.144531 -27.484375 L 6.472656 -25.96875 C 5.867188 -26.992188 6.132812 -27.929688 7.054688 -29.335938 Z M 33.730469 -76.125 C 34.304688 -75.71875 34.515625 -75.175781 34.546875 -74.558594 L 34.882812 -75.316406 Z M 33.730469 -76.125 "/></g></g></g><g clip-path="url(#c81b33a892)"><g clip-path="url(#aed82719b4)"><g clip-path="url(#2e0ed1ebd0)"><g clip-path="url(#2dff92af38)"><path fill="#000000" d="M 235.105469 178.601562 C 228.582031 181.625 223.101562 184.257812 219.03125 186.332031 C 217.878906 186.914062 215.859375 187.941406 214.527344 188.617188 C 211.082031 190.359375 198.46875 197.035156 193.542969 199.722656 C 192.808594 200.117188 190.753906 201.222656 188.980469 202.160156 C 187.214844 203.097656 185.554688 203.984375 185.300781 204.136719 C 185.046875 204.289062 182.148438 205.875 178.855469 207.679688 C 175.558594 209.46875 171.078125 211.921875 168.890625 213.125 C 166.699219 214.3125 162.640625 216.527344 159.84375 218.027344 C 151.03125 222.773438 147.238281 224.917969 144.097656 226.921875 C 143.011719 227.617188 142.3125 228.125 142.242188 228.28125 C 142.179688 228.425781 141.6875 228.789062 140.992188 229.21875 C 138.167969 230.925781 137.03125 231.742188 135.730469 233.023438 C 134.894531 233.851562 134.84375 233.9375 134.792969 234.484375 C 134.757812 234.953125 134.789062 235.105469 134.941406 235.214844 C 135.089844 235.316406 135.125 235.390625 135.050781 235.539062 C 134.921875 235.804688 135.152344 236.316406 135.433594 236.394531 C 135.625 236.449219 135.640625 236.484375 135.550781 236.652344 C 135.394531 236.941406 135.597656 237.132812 136.214844 237.328125 C 136.523438 237.421875 136.785156 237.574219 136.789062 237.664062 C 136.808594 237.9375 137.042969 238.113281 137.421875 238.125 C 138.410156 238.179688 142.894531 236.367188 146.195312 234.589844 C 147.449219 233.910156 149.695312 232.730469 151.183594 231.945312 C 152.675781 231.171875 154.148438 230.394531 154.460938 230.226562 C 154.769531 230.050781 155.609375 229.609375 156.335938 229.246094 C 157.058594 228.878906 157.945312 228.417969 158.320312 228.222656 C 159.015625 227.859375 160.585938 227.0625 162.769531 225.964844 C 163.464844 225.625 164.695312 225.011719 165.5 224.597656 C 166.933594 223.875 167.449219 223.730469 166.347656 224.367188 C 164.1875 225.597656 164.320312 225.578125 167.300781 224.171875 C 174.089844 220.988281 186.433594 214.667969 193.910156 210.546875 C 195.609375 209.613281 197.984375 208.316406 199.171875 207.667969 C 200.375 207.023438 202.691406 205.738281 204.328125 204.832031 C 205.972656 203.914062 208.636719 202.457031 210.265625 201.585938 C 211.890625 200.710938 214.9375 199.046875 217.03125 197.898438 C 220.726562 195.878906 224.882812 193.648438 229.929688 191.003906 C 231.265625 190.316406 232.378906 189.699219 232.398438 189.652344 C 232.421875 189.5625 229.445312 190.839844 228.78125 191.1875 C 228.597656 191.296875 228.417969 191.328125 228.394531 191.273438 C 228.367188 191.21875 228.441406 191.148438 228.546875 191.101562 C 228.722656 191.035156 230.738281 190 232.328125 189.15625 C 232.703125 188.960938 233.8125 188.398438 234.792969 187.917969 C 235.785156 187.433594 237.0625 186.808594 237.636719 186.511719 C 238.214844 186.226562 239.804688 185.445312 241.171875 184.792969 C 242.535156 184.140625 243.933594 183.449219 244.277344 183.269531 C 244.621094 183.085938 246.40625 182.222656 248.242188 181.355469 C 250.078125 180.492188 252.179688 179.496094 252.902344 179.132812 C 253.625 178.769531 256.472656 177.4375 259.21875 176.164062 C 261.976562 174.882812 264.808594 173.546875 265.535156 173.191406 C 272.152344 169.945312 319.871094 148.410156 326.691406 145.585938 C 329.113281 144.589844 332.605469 143.144531 334.453125 142.390625 C 338.519531 140.707031 343.488281 138.574219 343.234375 138.609375 C 343.128906 138.632812 342.246094 138.925781 341.28125 139.269531 L 339.507812 139.902344 L 341.101562 139.15625 C 341.980469 138.738281 342.769531 138.316406 342.863281 138.210938 C 343 138.058594 342.96875 138.046875 342.707031 138.207031 C 342.523438 138.3125 342.351562 138.363281 342.328125 138.3125 C 342.308594 138.269531 342.589844 138.089844 342.964844 137.921875 C 343.382812 137.734375 343.59375 137.691406 343.519531 137.789062 C 343.464844 137.890625 343.585938 137.847656 343.859375 137.6875 C 344.550781 137.273438 352.609375 134.484375 355.769531 133.5625 C 356.222656 133.425781 356.453125 133.308594 356.539062 133.152344 C 356.609375 133.03125 356.820312 132.898438 357.050781 132.832031 C 357.304688 132.769531 357.421875 132.691406 357.382812 132.605469 C 357.355469 132.542969 357.222656 132.535156 357.085938 132.597656 C 356.945312 132.660156 356.710938 132.679688 356.554688 132.644531 C 356.28125 132.585938 356.277344 132.578125 356.496094 132.402344 C 356.773438 132.160156 356.695312 132.042969 356.308594 132.125 C 352.226562 133.011719 335.933594 138.617188 318.007812 145.289062 C 316.136719 145.992188 313.375 147 311.875 147.535156 C 310.378906 148.066406 308.089844 148.890625 306.785156 149.371094 C 305.480469 149.84375 303.535156 150.550781 302.46875 150.929688 C 301.40625 151.304688 299.292969 152.074219 297.78125 152.652344 C 296.273438 153.226562 293.523438 154.257812 291.671875 154.949219 C 283.082031 158.15625 279.628906 159.542969 269.433594 163.84375 C 267.683594 164.582031 266.113281 165.234375 265.949219 165.296875 C 265.769531 165.363281 264.71875 165.824219 263.589844 166.320312 C 262.355469 166.863281 261.550781 167.160156 261.570312 167.085938 C 261.570312 167.007812 261.488281 166.996094 261.398438 167.046875 C 260.554688 167.4375 259.234375 167.957031 258.574219 168.152344 C 257.582031 168.429688 244.101562 174.441406 235.105469 178.601562 Z M 224.636719 188.582031 C 224.613281 188.644531 223.914062 189.035156 223.070312 189.449219 C 222.234375 189.878906 221.371094 190.332031 221.144531 190.457031 C 220.917969 190.585938 220.078125 191.027344 219.265625 191.433594 C 218.457031 191.835938 217.574219 192.296875 217.28125 192.453125 C 217.007812 192.613281 216.300781 192.984375 215.726562 193.28125 C 215.152344 193.578125 214.519531 193.914062 214.328125 194.039062 C 214.136719 194.152344 213.464844 194.515625 212.828125 194.84375 C 212.203125 195.171875 211.550781 195.519531 211.378906 195.621094 C 211.214844 195.722656 210.625 196.039062 210.085938 196.332031 C 209.132812 196.839844 208.585938 197.136719 207.1875 197.890625 C 206.8125 198.085938 206.097656 198.472656 205.578125 198.746094 C 204.269531 199.4375 203.167969 200.019531 202.625 200.328125 C 202.09375 200.632812 199.976562 201.789062 198.703125 202.480469 C 198.214844 202.738281 197.621094 203.070312 197.363281 203.210938 C 197.105469 203.351562 196.507812 203.683594 196.019531 203.945312 C 195.53125 204.203125 194.875 204.546875 194.570312 204.722656 C 194.257812 204.890625 193.628906 205.238281 193.171875 205.480469 C 192.023438 206.101562 191.300781 206.492188 189.039062 207.726562 C 186.476562 209.121094 182.917969 211.019531 181.46875 211.773438 C 180.839844 212.09375 179.945312 212.5625 179.484375 212.792969 C 179.027344 213.039062 178.328125 213.402344 177.925781 213.621094 C 175.988281 214.636719 174.273438 215.484375 174.292969 215.410156 C 174.328125 215.316406 175.09375 214.871094 176.433594 214.164062 C 176.921875 213.90625 177.480469 213.605469 177.671875 213.480469 C 177.863281 213.367188 178.417969 213.054688 178.90625 212.796875 C 180.566406 211.910156 181.132812 211.601562 181.699219 211.285156 C 182.003906 211.105469 184.277344 209.894531 186.71875 208.574219 C 189.175781 207.265625 192.082031 205.6875 193.1875 205.085938 C 198.894531 201.984375 206.195312 198.054688 212.195312 194.867188 C 212.601562 194.660156 213.414062 194.230469 214.019531 193.921875 C 214.625 193.609375 215.921875 192.949219 216.890625 192.4375 C 219.152344 191.265625 220.375 190.636719 222.273438 189.679688 C 223.117188 189.265625 223.804688 188.902344 223.808594 188.886719 C 223.847656 188.804688 224.675781 188.5 224.636719 188.582031 Z M 278.671875 164.652344 C 285.261719 161.828125 287.433594 160.90625 295.371094 157.589844 C 304.621094 153.738281 308.027344 152.359375 309.421875 151.941406 C 309.894531 151.792969 309.945312 151.792969 309.757812 151.96875 C 309.625 152.078125 309.585938 152.136719 309.664062 152.113281 C 309.734375 152.09375 309.824219 152.121094 309.847656 152.171875 C 309.90625 152.300781 310.117188 152.203125 273.972656 168.5 C 259.117188 175.195312 246.171875 181.066406 245.183594 181.5625 C 243.730469 182.28125 234.992188 186.273438 234.207031 186.589844 C 233.804688 186.746094 234.074219 186.457031 234.578125 186.203125 C 236.457031 185.242188 237.738281 184.601562 239.53125 183.71875 C 240.660156 183.171875 241.730469 182.640625 241.894531 182.542969 C 242.066406 182.4375 242.589844 182.175781 243.074219 181.960938 C 243.804688 181.617188 243.925781 181.539062 243.820312 181.417969 C 243.730469 181.332031 243.746094 181.257812 243.867188 181.203125 C 243.984375 181.152344 244.050781 181.1875 244.054688 181.3125 C 244.070312 181.460938 244.179688 181.449219 244.640625 181.242188 C 245.144531 181.015625 245.214844 180.945312 245.183594 180.703125 L 245.152344 180.433594 L 245.347656 180.667969 L 245.542969 180.898438 L 245.496094 180.625 C 245.457031 180.398438 245.511719 180.320312 245.875 180.183594 C 246.320312 179.996094 249.847656 178.292969 251.5 177.449219 C 252.046875 177.175781 254.121094 176.179688 256.101562 175.238281 C 258.082031 174.296875 259.894531 173.429688 260.125 173.3125 C 260.355469 173.199219 261.660156 172.585938 263.027344 171.957031 C 264.460938 171.3125 265.484375 170.789062 265.460938 170.734375 C 265.429688 170.671875 263.164062 171.636719 259.824219 173.128906 C 256.753906 174.507812 254.203125 175.617188 254.160156 175.609375 C 254.03125 175.554688 272.890625 167.121094 278.671875 164.652344 Z M 244.6875 180.886719 C 244.703125 180.917969 244.683594 180.992188 244.632812 181.050781 C 244.59375 181.109375 244.53125 181.109375 244.507812 181.058594 C 244.476562 180.992188 244.507812 180.914062 244.5625 180.890625 C 244.625 180.863281 244.675781 180.863281 244.6875 180.886719 Z M 218.667969 193.011719 C 218.601562 193.066406 218.453125 193.136719 218.34375 193.15625 C 218.222656 193.171875 218.277344 193.121094 218.449219 193.046875 C 218.632812 192.964844 218.714844 192.953125 218.667969 193.011719 Z M 216.613281 194.050781 C 216.59375 194.097656 216.503906 194.152344 216.414062 194.152344 C 216.316406 194.160156 216.332031 194.113281 216.449219 194.0625 C 216.5625 193.996094 216.640625 194 216.613281 194.050781 Z M 310.273438 151.980469 C 310.300781 152.035156 310.28125 152.105469 310.226562 152.128906 C 310.164062 152.160156 310.0625 152.140625 310.007812 152.101562 C 309.945312 152.050781 309.96875 151.988281 310.054688 151.949219 C 310.152344 151.90625 310.246094 151.917969 310.273438 151.980469 Z M 215.5 194.695312 C 215.402344 194.761719 215.230469 194.839844 215.125 194.863281 C 215.003906 194.878906 215.078125 194.820312 215.28125 194.726562 C 215.488281 194.636719 215.582031 194.617188 215.5 194.695312 Z M 213.996094 195.5 C 213.867188 195.582031 213.632812 195.6875 213.460938 195.738281 C 213.28125 195.792969 213.390625 195.71875 213.679688 195.589844 C 213.976562 195.457031 214.117188 195.417969 213.996094 195.5 Z M 233.84375 186.777344 C 233.765625 186.980469 233.582031 186.933594 233.617188 186.726562 C 233.617188 186.648438 233.695312 186.589844 233.773438 186.589844 C 233.855469 186.605469 233.886719 186.667969 233.84375 186.777344 Z M 212.441406 196.328125 C 212.308594 196.410156 212.074219 196.515625 211.90625 196.566406 C 211.722656 196.625 211.832031 196.550781 212.121094 196.417969 C 212.421875 196.285156 212.558594 196.25 212.441406 196.328125 Z M 328.089844 144.316406 C 328.023438 144.371094 327.894531 144.429688 327.820312 144.4375 C 327.734375 144.4375 327.777344 144.390625 327.925781 144.324219 C 328.074219 144.257812 328.140625 144.253906 328.089844 144.316406 Z M 338.253906 139.746094 C 338.1875 139.800781 338.058594 139.859375 337.984375 139.867188 C 337.894531 139.867188 337.941406 139.820312 338.089844 139.753906 C 338.238281 139.6875 338.300781 139.683594 338.253906 139.746094 Z M 210.828125 197.179688 C 210.667969 197.277344 210.410156 197.394531 210.242188 197.445312 C 210.058594 197.5 210.191406 197.417969 210.511719 197.273438 C 210.832031 197.128906 210.980469 197.085938 210.828125 197.179688 Z M 330.707031 143.269531 C 330.523438 143.375 330.203125 143.519531 330.007812 143.582031 C 329.808594 143.644531 329.949219 143.558594 330.332031 143.382812 C 330.71875 143.210938 330.878906 143.164062 330.707031 143.269531 Z M 340.121094 139.035156 C 339.988281 139.117188 339.753906 139.222656 339.585938 139.273438 C 339.402344 139.332031 339.511719 139.257812 339.800781 139.125 C 340.101562 138.992188 340.238281 138.953125 340.121094 139.035156 Z M 209.003906 198.128906 C 208.941406 198.183594 208.8125 198.242188 208.738281 198.25 C 208.648438 198.25 208.691406 198.207031 208.84375 198.136719 C 208.992188 198.070312 209.054688 198.066406 209.003906 198.128906 Z M 209.472656 197.90625 C 209.453125 197.953125 209.363281 198.007812 209.273438 198.007812 C 209.171875 198.015625 209.191406 197.96875 209.308594 197.914062 C 209.421875 197.851562 209.5 197.855469 209.472656 197.90625 Z M 332.730469 142.484375 C 332.582031 142.578125 332.292969 142.707031 332.089844 142.773438 C 331.886719 142.839844 332.007812 142.757812 332.359375 142.601562 C 332.714844 142.441406 332.882812 142.390625 332.730469 142.484375 Z M 341.664062 138.46875 C 341.535156 138.550781 341.300781 138.65625 341.128906 138.707031 C 340.949219 138.761719 341.058594 138.6875 341.347656 138.558594 C 341.644531 138.425781 341.785156 138.386719 341.664062 138.46875 Z M 334.757812 141.703125 C 334.628906 141.785156 334.394531 141.890625 334.226562 141.941406 C 334.042969 141.996094 334.152344 141.921875 334.441406 141.792969 C 334.742188 141.660156 334.878906 141.621094 334.757812 141.703125 Z M 336.519531 141.039062 C 336.390625 141.121094 336.175781 141.21875 336.039062 141.253906 C 335.890625 141.296875 335.988281 141.226562 336.253906 141.105469 C 336.523438 140.984375 336.636719 140.960938 336.519531 141.039062 Z M 338.492188 140.28125 C 338.363281 140.363281 338.128906 140.46875 337.957031 140.519531 C 337.777344 140.574219 337.886719 140.5 338.175781 140.371094 C 338.472656 140.238281 338.613281 140.199219 338.492188 140.28125 Z M 173.878906 215.636719 C 173.910156 215.699219 173.675781 215.84375 173.363281 215.972656 L 172.789062 216.214844 L 173.238281 215.921875 C 173.488281 215.761719 173.714844 215.605469 173.765625 215.582031 C 173.804688 215.554688 173.851562 215.570312 173.878906 215.636719 Z M 174.171875 215.425781 C 174.1875 215.457031 174.167969 215.53125 174.117188 215.59375 C 174.078125 215.648438 174.015625 215.652344 173.992188 215.597656 C 173.964844 215.535156 173.992188 215.457031 174.046875 215.433594 C 174.109375 215.402344 174.164062 215.40625 174.171875 215.425781 Z M 172.722656 216.207031 C 172.738281 216.238281 172.71875 216.3125 172.667969 216.371094 C 172.628906 216.429688 172.566406 216.429688 172.542969 216.378906 C 172.511719 216.3125 172.542969 216.238281 172.597656 216.210938 C 172.660156 216.183594 172.714844 216.1875 172.722656 216.207031 Z M 228.179688 191.433594 C 228.085938 191.503906 227.914062 191.578125 227.808594 191.601562 C 227.683594 191.617188 227.761719 191.558594 227.964844 191.464844 C 228.167969 191.375 228.261719 191.355469 228.179688 191.433594 Z M 160.511719 224.035156 C 160.496094 224.082031 160.40625 224.136719 160.316406 224.140625 C 160.214844 224.144531 160.234375 224.097656 160.351562 224.046875 C 160.464844 223.980469 160.542969 223.984375 160.511719 224.035156 Z M 160.941406 223.84375 C 160.921875 223.890625 160.832031 223.945312 160.742188 223.945312 C 160.644531 223.953125 160.660156 223.90625 160.777344 223.855469 C 160.890625 223.789062 160.96875 223.792969 160.941406 223.84375 Z M 159.390625 224.683594 C 159.183594 224.800781 158.84375 224.957031 158.640625 225.019531 C 158.449219 225.082031 158.621094 224.976562 159.027344 224.792969 C 159.445312 224.605469 159.605469 224.5625 159.390625 224.683594 Z M 156.410156 226.269531 C 152.03125 228.660156 147.242188 231.484375 147.167969 231.710938 C 147.152344 231.765625 147.699219 231.523438 148.386719 231.160156 C 149.078125 230.8125 150.085938 230.28125 150.632812 230.007812 C 151.175781 229.726562 151.890625 229.34375 152.21875 229.15625 C 152.691406 228.890625 152.816406 228.859375 152.875 228.988281 C 152.914062 229.074219 152.894531 229.199219 152.84375 229.261719 C 152.726562 229.375 153.734375 228.871094 155.332031 228.011719 C 155.78125 227.757812 156.144531 227.59375 156.128906 227.640625 C 156.09375 227.734375 151.371094 230.359375 150.3125 230.871094 C 150.03125 231.011719 149.609375 231.253906 149.398438 231.414062 C 149.183594 231.5625 148.5625 231.929688 148.023438 232.210938 C 146.875 232.832031 146.792969 232.878906 145.671875 233.566406 C 145.199219 233.855469 144.253906 234.382812 143.5625 234.734375 C 142.867188 235.082031 141.535156 235.773438 140.589844 236.273438 C 139.070312 237.101562 138.785156 237.214844 137.960938 237.378906 C 137.265625 237.523438 136.972656 237.527344 136.769531 237.390625 C 136.210938 237.035156 136.503906 236.800781 138.957031 235.648438 C 139.953125 235.171875 141.75 234.222656 142.960938 233.539062 C 144.824219 232.480469 151.308594 228.910156 155.535156 226.609375 C 156.183594 226.253906 157.03125 225.820312 157.417969 225.648438 C 157.804688 225.472656 157.351562 225.753906 156.410156 226.269531 Z M 137.371094 235.410156 C 137.402344 235.484375 136.808594 235.90625 136.445312 236.070312 C 136.238281 236.148438 136.238281 236.148438 136.363281 235.914062 C 136.488281 235.675781 137.308594 235.269531 137.371094 235.410156 Z M 153.507812 228.679688 C 153.53125 228.730469 153.472656 228.796875 153.386719 228.835938 C 153.300781 228.875 153.191406 228.921875 153.15625 228.953125 C 153.113281 228.972656 153.039062 228.953125 152.992188 228.910156 C 152.945312 228.855469 153.035156 228.773438 153.203125 228.714844 C 153.351562 228.644531 153.488281 228.636719 153.507812 228.679688 Z M 156.539062 227.496094 C 156.519531 227.542969 156.429688 227.597656 156.339844 227.597656 C 156.238281 227.605469 156.257812 227.558594 156.375 227.503906 C 156.488281 227.441406 156.566406 227.445312 156.539062 227.496094 Z M 156.539062 227.496094 " fill-opacity="1" fill-rule="nonzero"/></g></g></g></g><g clip-path="url(#05c260ced0)"><g clip-path="url(#26755be6ca)"><g clip-path="url(#88854dd3d9)"><g clip-path="url(#9e857b7814)"><path fill="#000000" d="M 265.570312 170.695312 C 265.589844 170.738281 265.675781 170.753906 265.761719 170.714844 C 265.84375 170.675781 265.921875 170.589844 265.933594 170.535156 C 265.9375 170.480469 265.855469 170.46875 265.738281 170.519531 C 265.628906 170.570312 265.550781 170.65625 265.570312 170.695312 Z M 265.570312 170.695312 " fill-opacity="1" fill-rule="nonzero"/></g></g></g></g><g clip-path="url(#7fc6735447)"><g clip-path="url(#d02a40618d)"><g clip-path="url(#c6555a8f0f)"><g clip-path="url(#63ebd11ef0)"><path fill="#000000" d="M 152.199219 229.628906 C 152.175781 229.804688 152.3125 229.742188 152.464844 229.507812 C 152.566406 229.359375 152.554688 229.335938 152.394531 229.410156 C 152.300781 229.453125 152.199219 229.546875 152.199219 229.628906 Z M 152.199219 229.628906 " fill-opacity="1" fill-rule="nonzero"/></g></g></g></g><g clip-path="url(#cd0f6c34eb)"><g clip-path="url(#844b75c4c4)"><g clip-path="url(#431aa66626)"><g clip-path="url(#09ad2af16a)"><path fill="#000000" d="M 343.140625 138.113281 C 343.164062 138.167969 343.226562 138.164062 343.265625 138.109375 C 343.316406 138.046875 343.335938 137.972656 343.320312 137.941406 C 343.308594 137.921875 343.257812 137.917969 343.195312 137.945312 C 343.140625 137.972656 343.109375 138.046875 343.140625 138.113281 Z M 343.140625 138.113281 " fill-opacity="1" fill-rule="nonzero"/></g></g></g></g></svg>